%
M48
M72
T01C0.01378
T02C0.03150
T03C0.03543
T04C0.03937
T05C0.04000
T06C0.04400
T07C0.04724
T08C0.05276
T09C0.11800
%
T01
X80000Y115385
X94500Y171385
X188500Y110885
X221500Y73385
X266500Y175885
T02
X336236Y165885
X346079Y165885
X355921Y165885
X365764Y165885
T03
X295213Y204861
X285173Y204861
X275134Y204861
X265094Y204861
X255055Y204861
X245016Y204861
X235173Y204861
X225134Y204861
X215094Y204861
X205252Y204861
X215094Y215294
X225134Y215294
X235173Y215294
X245016Y215294
X255055Y215294
X265094Y215294
X275134Y215294
X285173Y215294
X295213Y215294
T04
X131000Y198385
X121000Y198385
X111000Y198385
X101000Y198385
X91000Y198385
X81000Y198385
T05
X81000Y140885
X91000Y140885
X91000Y130885
X81000Y130885
X71000Y130885
X61000Y130885
X61000Y140885
X71000Y140885
X51000Y140885
X41000Y140885
X31000Y140885
X21000Y140885
X21000Y130885
X31000Y130885
X41000Y130885
X51000Y130885
X111000Y130885
X121000Y130885
X121000Y140885
X111000Y140885
X131000Y140885
X141000Y140885
X151000Y140885
X161000Y140885
X171000Y140885
X181000Y140885
X181000Y130885
X171000Y130885
X161000Y130885
X151000Y130885
X141000Y130885
X131000Y130885
T06
X131000Y95885
X141000Y95885
X151000Y95885
X161000Y95885
X171000Y95885
X181000Y95885
X191000Y95885
X201000Y95885
X211000Y95885
X221000Y95885
X231000Y95885
X231000Y65885
X221000Y65885
X211000Y65885
X201000Y65885
X191000Y65885
X181000Y65885
X171000Y65885
X161000Y65885
X151000Y65885
X141000Y65885
X131000Y65885
X121000Y65885
X111000Y65885
X101000Y65885
X101000Y95885
X111000Y95885
X121000Y95885
T07
X327299Y100885
X332772Y114113
X359228Y114113
X364701Y100885
X359228Y87656
X332772Y87656
T08
X291000Y85885
X291000Y75885
X291000Y65885
X291000Y135885
X291000Y145885
X291000Y155885
X246000Y175885
X236000Y175885
X226000Y175885
X121000Y175885
X111000Y175885
X101000Y175885
T09
X53126Y52381
X64937Y70885
X41315Y70885
M30
