G04 EAGLE Gerber X2 export*
%TF.Part,Single*%
%TF.FileFunction,Copper,L1,Top,Mixed*%
%TF.FilePolarity,Positive*%
%TF.GenerationSoftware,Autodesk,EAGLE,8.6.3*%
%TF.CreationDate,2018-03-15T12:54:08Z*%
G75*
%MOMM*%
%FSLAX34Y34*%
%LPD*%
%AMOC8*
5,1,8,0,0,1.08239X$1,22.5*%
G01*
%ADD10R,1.100000X1.000000*%
%ADD11R,1.200000X1.400000*%
%ADD12C,4.318000*%
%ADD13P,1.649562X8X22.500000*%
%ADD14P,1.649562X8X202.500000*%
%ADD15R,2.010000X2.010000*%
%ADD16C,2.010000*%
%ADD17R,1.000000X1.100000*%
%ADD18C,1.200000*%
%ADD19C,1.350000*%
%ADD20C,1.500000*%
%ADD21R,1.500000X1.500000*%
%ADD22C,1.800000*%
%ADD23R,2.235200X1.219200*%
%ADD24R,2.200000X3.600000*%
%ADD25R,1.676400X1.676400*%
%ADD26C,1.676400*%
%ADD27R,0.300000X1.600000*%
%ADD28C,0.254000*%
%ADD29C,0.381000*%
%ADD30C,0.654800*%

G36*
X108541Y12704D02*
X108541Y12704D01*
X108574Y12702D01*
X108734Y12724D01*
X108895Y12741D01*
X108927Y12751D01*
X108960Y12755D01*
X109113Y12810D01*
X109267Y12859D01*
X109296Y12875D01*
X109327Y12886D01*
X109465Y12970D01*
X109607Y13050D01*
X109632Y13072D01*
X109660Y13089D01*
X109778Y13200D01*
X109900Y13306D01*
X109920Y13333D01*
X109945Y13355D01*
X110038Y13488D01*
X110135Y13617D01*
X110150Y13647D01*
X110169Y13674D01*
X110233Y13823D01*
X110303Y13969D01*
X110310Y14001D01*
X110324Y14032D01*
X110356Y14191D01*
X110394Y14348D01*
X110396Y14381D01*
X110402Y14414D01*
X110402Y14576D01*
X110407Y14738D01*
X110402Y14770D01*
X110401Y14804D01*
X110368Y14962D01*
X110340Y15122D01*
X110328Y15152D01*
X110321Y15185D01*
X110256Y15334D01*
X110197Y15484D01*
X110179Y15512D01*
X110165Y15542D01*
X110115Y15609D01*
X109983Y15809D01*
X109898Y15893D01*
X109854Y15951D01*
X104961Y20845D01*
X100446Y28664D01*
X98109Y37386D01*
X98109Y46414D01*
X99663Y52212D01*
X99682Y52331D01*
X99710Y52448D01*
X99713Y52523D01*
X99725Y52597D01*
X99719Y52717D01*
X99723Y52838D01*
X99710Y52911D01*
X99707Y52986D01*
X99677Y53103D01*
X99656Y53222D01*
X99629Y53291D01*
X99610Y53364D01*
X99557Y53472D01*
X99513Y53584D01*
X99471Y53647D01*
X99438Y53714D01*
X99364Y53809D01*
X99298Y53910D01*
X99245Y53962D01*
X99199Y54022D01*
X99107Y54100D01*
X99022Y54185D01*
X98959Y54226D01*
X98902Y54274D01*
X98796Y54332D01*
X98696Y54398D01*
X98626Y54425D01*
X98560Y54461D01*
X98445Y54496D01*
X98333Y54540D01*
X98274Y54548D01*
X98187Y54574D01*
X97930Y54597D01*
X89164Y56946D01*
X81345Y61461D01*
X74961Y67845D01*
X70446Y75664D01*
X68109Y84386D01*
X68109Y93414D01*
X70446Y102136D01*
X74961Y109955D01*
X81345Y116339D01*
X85700Y118854D01*
X85798Y118925D01*
X85901Y118987D01*
X85955Y119038D01*
X86016Y119082D01*
X86097Y119171D01*
X86185Y119254D01*
X86228Y119315D01*
X86279Y119370D01*
X86340Y119474D01*
X86410Y119572D01*
X86439Y119641D01*
X86478Y119706D01*
X86516Y119820D01*
X86564Y119930D01*
X86579Y120004D01*
X86604Y120075D01*
X86619Y120194D01*
X86643Y120312D01*
X86643Y120387D01*
X86652Y120461D01*
X86642Y120581D01*
X86642Y120702D01*
X86627Y120775D01*
X86621Y120850D01*
X86587Y120965D01*
X86562Y121083D01*
X86532Y121152D01*
X86511Y121224D01*
X86454Y121330D01*
X86406Y121440D01*
X86370Y121488D01*
X86327Y121568D01*
X86126Y121809D01*
X86095Y121850D01*
X79058Y128886D01*
X76834Y134255D01*
X76834Y161290D01*
X76829Y161342D01*
X76830Y161365D01*
X76828Y161374D01*
X76830Y161423D01*
X76808Y161550D01*
X76794Y161678D01*
X76774Y161741D01*
X76763Y161807D01*
X76715Y161926D01*
X76676Y162049D01*
X76644Y162107D01*
X76619Y162169D01*
X76548Y162276D01*
X76485Y162389D01*
X76441Y162439D01*
X76405Y162495D01*
X76314Y162586D01*
X76229Y162683D01*
X76176Y162723D01*
X76129Y162770D01*
X76021Y162840D01*
X75918Y162918D01*
X75858Y162946D01*
X75802Y162983D01*
X75682Y163030D01*
X75566Y163085D01*
X75501Y163101D01*
X75439Y163125D01*
X75353Y163137D01*
X75187Y163177D01*
X75017Y163182D01*
X74930Y163194D01*
X70815Y163194D01*
X70749Y163187D01*
X70682Y163190D01*
X70555Y163168D01*
X70427Y163154D01*
X70364Y163134D01*
X70298Y163123D01*
X70179Y163075D01*
X70056Y163036D01*
X69998Y163004D01*
X69936Y162979D01*
X69829Y162908D01*
X69716Y162845D01*
X69666Y162801D01*
X69610Y162765D01*
X69519Y162674D01*
X69422Y162589D01*
X69382Y162536D01*
X69335Y162489D01*
X69265Y162381D01*
X69187Y162278D01*
X69159Y162218D01*
X69122Y162162D01*
X69075Y162042D01*
X69020Y161926D01*
X69004Y161861D01*
X68980Y161799D01*
X68968Y161713D01*
X68928Y161547D01*
X68923Y161377D01*
X68911Y161290D01*
X68911Y157274D01*
X66977Y152606D01*
X63404Y149033D01*
X58736Y147099D01*
X31684Y147099D01*
X27016Y149033D01*
X23443Y152606D01*
X21509Y157274D01*
X21509Y198326D01*
X23443Y202994D01*
X27016Y206567D01*
X31684Y208501D01*
X58736Y208501D01*
X63404Y206567D01*
X67234Y202738D01*
X67259Y202717D01*
X67281Y202692D01*
X67410Y202594D01*
X67536Y202492D01*
X67565Y202477D01*
X67592Y202457D01*
X67738Y202387D01*
X67882Y202313D01*
X67914Y202304D01*
X67944Y202290D01*
X68101Y202251D01*
X68257Y202208D01*
X68291Y202206D01*
X68323Y202198D01*
X68485Y202192D01*
X68646Y202181D01*
X68679Y202186D01*
X68713Y202185D01*
X68872Y202213D01*
X69032Y202235D01*
X69064Y202246D01*
X69097Y202252D01*
X69247Y202311D01*
X69400Y202366D01*
X69428Y202383D01*
X69459Y202395D01*
X69594Y202484D01*
X69732Y202569D01*
X69757Y202591D01*
X69785Y202610D01*
X69899Y202725D01*
X70017Y202835D01*
X70036Y202862D01*
X70060Y202886D01*
X70148Y203022D01*
X70241Y203154D01*
X70254Y203184D01*
X70273Y203212D01*
X70332Y203363D01*
X70396Y203512D01*
X70403Y203544D01*
X70415Y203575D01*
X70426Y203658D01*
X70475Y203893D01*
X70474Y204012D01*
X70484Y204085D01*
X70484Y219075D01*
X70477Y219141D01*
X70480Y219208D01*
X70458Y219335D01*
X70444Y219463D01*
X70424Y219526D01*
X70413Y219592D01*
X70365Y219711D01*
X70326Y219834D01*
X70294Y219892D01*
X70269Y219954D01*
X70198Y220061D01*
X70135Y220174D01*
X70091Y220224D01*
X70055Y220280D01*
X69964Y220371D01*
X69879Y220468D01*
X69826Y220508D01*
X69779Y220555D01*
X69671Y220625D01*
X69568Y220703D01*
X69508Y220731D01*
X69452Y220768D01*
X69332Y220815D01*
X69216Y220870D01*
X69151Y220886D01*
X69089Y220910D01*
X69003Y220922D01*
X68837Y220962D01*
X68667Y220967D01*
X68580Y220979D01*
X67783Y220979D01*
X64847Y223916D01*
X64795Y223958D01*
X64750Y224006D01*
X64644Y224080D01*
X64544Y224162D01*
X64485Y224192D01*
X64431Y224230D01*
X64313Y224282D01*
X64198Y224341D01*
X64134Y224359D01*
X64073Y224385D01*
X63947Y224411D01*
X63823Y224446D01*
X63756Y224450D01*
X63691Y224464D01*
X63562Y224464D01*
X63434Y224472D01*
X63368Y224463D01*
X63301Y224463D01*
X63175Y224436D01*
X63048Y224419D01*
X62985Y224397D01*
X62920Y224383D01*
X62802Y224331D01*
X62680Y224288D01*
X62624Y224253D01*
X62563Y224227D01*
X62493Y224174D01*
X62348Y224085D01*
X62223Y223969D01*
X62154Y223916D01*
X59217Y220979D01*
X42383Y220979D01*
X30479Y232883D01*
X30479Y249717D01*
X33416Y252654D01*
X33457Y252705D01*
X33506Y252750D01*
X33580Y252856D01*
X33662Y252956D01*
X33692Y253015D01*
X33730Y253069D01*
X33782Y253188D01*
X33841Y253302D01*
X33859Y253366D01*
X33885Y253427D01*
X33911Y253553D01*
X33946Y253677D01*
X33950Y253744D01*
X33964Y253809D01*
X33964Y253938D01*
X33972Y254066D01*
X33963Y254132D01*
X33963Y254199D01*
X33936Y254325D01*
X33919Y254452D01*
X33897Y254515D01*
X33883Y254580D01*
X33831Y254698D01*
X33788Y254820D01*
X33753Y254876D01*
X33727Y254937D01*
X33674Y255007D01*
X33585Y255152D01*
X33469Y255277D01*
X33416Y255347D01*
X30479Y258283D01*
X30479Y275117D01*
X42383Y287021D01*
X59217Y287021D01*
X62154Y284084D01*
X62205Y284043D01*
X62250Y283994D01*
X62356Y283920D01*
X62456Y283838D01*
X62515Y283808D01*
X62569Y283770D01*
X62688Y283718D01*
X62802Y283659D01*
X62866Y283641D01*
X62927Y283615D01*
X63053Y283589D01*
X63177Y283554D01*
X63244Y283550D01*
X63309Y283536D01*
X63438Y283536D01*
X63566Y283528D01*
X63632Y283537D01*
X63699Y283537D01*
X63825Y283564D01*
X63952Y283581D01*
X64015Y283603D01*
X64080Y283617D01*
X64198Y283669D01*
X64320Y283712D01*
X64376Y283747D01*
X64437Y283773D01*
X64507Y283826D01*
X64652Y283915D01*
X64777Y284031D01*
X64847Y284084D01*
X67783Y287021D01*
X75076Y287021D01*
X75175Y287031D01*
X75275Y287031D01*
X75369Y287051D01*
X75464Y287061D01*
X75559Y287091D01*
X75656Y287111D01*
X75744Y287150D01*
X75836Y287179D01*
X75922Y287228D01*
X76014Y287267D01*
X76072Y287312D01*
X76175Y287370D01*
X76357Y287528D01*
X76423Y287578D01*
X184609Y395765D01*
X184662Y395829D01*
X184721Y395887D01*
X184784Y395980D01*
X184855Y396067D01*
X184893Y396141D01*
X184940Y396210D01*
X184983Y396314D01*
X185035Y396413D01*
X185057Y396493D01*
X185089Y396570D01*
X185109Y396681D01*
X185140Y396789D01*
X185145Y396872D01*
X185160Y396953D01*
X185158Y397066D01*
X185166Y397178D01*
X185155Y397260D01*
X185153Y397343D01*
X185132Y397422D01*
X185113Y397564D01*
X185045Y397754D01*
X185022Y397840D01*
X182999Y402724D01*
X182999Y422776D01*
X184933Y427444D01*
X188506Y431017D01*
X193174Y432951D01*
X213226Y432951D01*
X218175Y430901D01*
X218271Y430872D01*
X218363Y430834D01*
X218457Y430817D01*
X218549Y430789D01*
X218648Y430781D01*
X218746Y430762D01*
X218842Y430764D01*
X218937Y430756D01*
X219036Y430768D01*
X219136Y430770D01*
X219206Y430789D01*
X219324Y430803D01*
X219552Y430879D01*
X219633Y430901D01*
X224582Y432951D01*
X232618Y432951D01*
X240057Y429869D01*
X240156Y429800D01*
X240256Y429719D01*
X240315Y429688D01*
X240369Y429650D01*
X240488Y429599D01*
X240602Y429540D01*
X240666Y429522D01*
X240727Y429495D01*
X240853Y429469D01*
X240977Y429434D01*
X241044Y429430D01*
X241109Y429417D01*
X241238Y429417D01*
X241366Y429408D01*
X241432Y429417D01*
X241499Y429417D01*
X241625Y429444D01*
X241752Y429461D01*
X241815Y429484D01*
X241880Y429497D01*
X241998Y429549D01*
X242119Y429592D01*
X242176Y429627D01*
X242237Y429654D01*
X242307Y429707D01*
X242452Y429795D01*
X242523Y429861D01*
X249982Y432951D01*
X258018Y432951D01*
X259068Y432516D01*
X259147Y432492D01*
X259224Y432459D01*
X259334Y432437D01*
X259441Y432404D01*
X259524Y432397D01*
X259605Y432381D01*
X259718Y432381D01*
X259830Y432371D01*
X259912Y432381D01*
X259995Y432381D01*
X260105Y432404D01*
X260217Y432418D01*
X260295Y432444D01*
X260377Y432461D01*
X260480Y432506D01*
X260586Y432542D01*
X260658Y432584D01*
X260734Y432618D01*
X260799Y432667D01*
X260922Y432739D01*
X261072Y432875D01*
X261143Y432929D01*
X266046Y437832D01*
X271415Y440056D01*
X295005Y440056D01*
X300374Y437832D01*
X304697Y433508D01*
X304774Y433446D01*
X304845Y433375D01*
X304925Y433323D01*
X305000Y433263D01*
X305088Y433217D01*
X305171Y433162D01*
X305261Y433127D01*
X305346Y433083D01*
X305442Y433056D01*
X305534Y433020D01*
X305607Y433010D01*
X305721Y432978D01*
X305961Y432962D01*
X306044Y432951D01*
X308818Y432951D01*
X309868Y432516D01*
X309948Y432492D01*
X310024Y432459D01*
X310134Y432437D01*
X310241Y432404D01*
X310324Y432397D01*
X310405Y432381D01*
X310518Y432381D01*
X310630Y432371D01*
X310712Y432381D01*
X310795Y432381D01*
X310905Y432404D01*
X311017Y432418D01*
X311095Y432444D01*
X311177Y432461D01*
X311280Y432507D01*
X311386Y432542D01*
X311458Y432584D01*
X311534Y432618D01*
X311599Y432667D01*
X311722Y432739D01*
X311872Y432875D01*
X311943Y432929D01*
X354380Y475366D01*
X358756Y479742D01*
X364125Y481966D01*
X551545Y481966D01*
X556914Y479742D01*
X561755Y474901D01*
X561819Y474848D01*
X561877Y474789D01*
X561970Y474725D01*
X562057Y474655D01*
X562131Y474616D01*
X562200Y474570D01*
X562304Y474527D01*
X562404Y474475D01*
X562484Y474453D01*
X562560Y474421D01*
X562671Y474401D01*
X562779Y474370D01*
X562862Y474365D01*
X562943Y474349D01*
X563056Y474352D01*
X563168Y474344D01*
X563250Y474355D01*
X563333Y474357D01*
X563412Y474378D01*
X563554Y474397D01*
X563744Y474465D01*
X563830Y474488D01*
X565431Y475151D01*
X573169Y475151D01*
X580318Y472190D01*
X580703Y471804D01*
X580755Y471762D01*
X580800Y471714D01*
X580906Y471639D01*
X581006Y471558D01*
X581065Y471528D01*
X581119Y471489D01*
X581237Y471438D01*
X581352Y471379D01*
X581416Y471361D01*
X581477Y471335D01*
X581603Y471309D01*
X581727Y471274D01*
X581794Y471269D01*
X581859Y471256D01*
X581988Y471256D01*
X582116Y471247D01*
X582182Y471257D01*
X582249Y471257D01*
X582375Y471283D01*
X582502Y471301D01*
X582565Y471323D01*
X582630Y471337D01*
X582748Y471388D01*
X582870Y471432D01*
X582926Y471466D01*
X582987Y471493D01*
X583057Y471546D01*
X583202Y471635D01*
X583327Y471751D01*
X583396Y471804D01*
X583782Y472190D01*
X590931Y475151D01*
X598669Y475151D01*
X605818Y472190D01*
X605953Y472054D01*
X606005Y472012D01*
X606050Y471964D01*
X606156Y471889D01*
X606256Y471808D01*
X606315Y471777D01*
X606369Y471739D01*
X606487Y471688D01*
X606602Y471629D01*
X606666Y471611D01*
X606727Y471585D01*
X606853Y471559D01*
X606977Y471524D01*
X607044Y471519D01*
X607109Y471506D01*
X607238Y471506D01*
X607366Y471497D01*
X607432Y471507D01*
X607499Y471507D01*
X607625Y471533D01*
X607752Y471551D01*
X607815Y471573D01*
X607880Y471587D01*
X607998Y471638D01*
X608120Y471682D01*
X608176Y471716D01*
X608237Y471743D01*
X608307Y471796D01*
X608452Y471885D01*
X608577Y472001D01*
X608646Y472054D01*
X608782Y472190D01*
X615931Y475151D01*
X623669Y475151D01*
X625001Y474599D01*
X625080Y474575D01*
X625157Y474542D01*
X625267Y474520D01*
X625374Y474487D01*
X625457Y474480D01*
X625538Y474464D01*
X625651Y474464D01*
X625763Y474454D01*
X625845Y474464D01*
X625928Y474464D01*
X626038Y474488D01*
X626150Y474501D01*
X626228Y474527D01*
X626310Y474545D01*
X626413Y474590D01*
X626519Y474625D01*
X626591Y474667D01*
X626667Y474701D01*
X626732Y474750D01*
X626855Y474822D01*
X627005Y474958D01*
X627076Y475012D01*
X627430Y475366D01*
X631806Y479742D01*
X637175Y481966D01*
X729345Y481966D01*
X734714Y479742D01*
X739614Y474842D01*
X739678Y474790D01*
X739736Y474730D01*
X739829Y474667D01*
X739916Y474596D01*
X739990Y474558D01*
X740059Y474511D01*
X740162Y474468D01*
X740262Y474417D01*
X740342Y474394D01*
X740419Y474363D01*
X740529Y474342D01*
X740638Y474312D01*
X740720Y474306D01*
X740802Y474291D01*
X740914Y474293D01*
X741027Y474285D01*
X741109Y474297D01*
X741192Y474298D01*
X741271Y474319D01*
X741413Y474339D01*
X741603Y474406D01*
X741689Y474429D01*
X743431Y475151D01*
X751169Y475151D01*
X758318Y472190D01*
X763790Y466718D01*
X766751Y459569D01*
X766751Y451831D01*
X766029Y450089D01*
X766005Y450009D01*
X765972Y449933D01*
X765950Y449823D01*
X765918Y449715D01*
X765911Y449633D01*
X765894Y449551D01*
X765894Y449439D01*
X765884Y449327D01*
X765894Y449245D01*
X765895Y449162D01*
X765918Y449051D01*
X765931Y448940D01*
X765958Y448862D01*
X765975Y448780D01*
X766020Y448677D01*
X766056Y448571D01*
X766098Y448499D01*
X766131Y448423D01*
X766180Y448358D01*
X766253Y448234D01*
X766388Y448085D01*
X766442Y448014D01*
X767466Y446990D01*
X771842Y442614D01*
X774066Y437245D01*
X774066Y388620D01*
X774073Y388554D01*
X774070Y388487D01*
X774092Y388360D01*
X774106Y388232D01*
X774126Y388169D01*
X774137Y388103D01*
X774185Y387984D01*
X774224Y387861D01*
X774256Y387803D01*
X774281Y387741D01*
X774352Y387634D01*
X774415Y387521D01*
X774459Y387471D01*
X774495Y387415D01*
X774586Y387324D01*
X774671Y387227D01*
X774724Y387187D01*
X774771Y387140D01*
X774879Y387070D01*
X774982Y386992D01*
X775042Y386964D01*
X775098Y386927D01*
X775218Y386880D01*
X775334Y386825D01*
X775399Y386809D01*
X775461Y386785D01*
X775547Y386773D01*
X775713Y386733D01*
X775883Y386728D01*
X775970Y386716D01*
X810625Y386716D01*
X815994Y384492D01*
X851027Y349458D01*
X851104Y349396D01*
X851175Y349325D01*
X851255Y349273D01*
X851330Y349213D01*
X851418Y349167D01*
X851501Y349112D01*
X851591Y349077D01*
X851676Y349033D01*
X851772Y349006D01*
X851864Y348970D01*
X851937Y348960D01*
X852051Y348928D01*
X852291Y348912D01*
X852374Y348901D01*
X855220Y348901D01*
X862093Y346054D01*
X862653Y345493D01*
X862705Y345451D01*
X862750Y345403D01*
X862856Y345329D01*
X862956Y345247D01*
X863015Y345217D01*
X863069Y345179D01*
X863187Y345127D01*
X863302Y345068D01*
X863366Y345050D01*
X863427Y345024D01*
X863553Y344998D01*
X863677Y344963D01*
X863744Y344959D01*
X863809Y344945D01*
X863938Y344945D01*
X864066Y344937D01*
X864132Y344946D01*
X864199Y344946D01*
X864325Y344973D01*
X864452Y344990D01*
X864515Y345012D01*
X864580Y345026D01*
X864698Y345078D01*
X864820Y345121D01*
X864876Y345156D01*
X864937Y345182D01*
X865007Y345235D01*
X865152Y345324D01*
X865277Y345440D01*
X865346Y345493D01*
X865907Y346054D01*
X872780Y348901D01*
X880220Y348901D01*
X887093Y346054D01*
X887653Y345493D01*
X887705Y345451D01*
X887750Y345403D01*
X887856Y345329D01*
X887956Y345247D01*
X888015Y345217D01*
X888069Y345179D01*
X888187Y345127D01*
X888302Y345068D01*
X888366Y345050D01*
X888427Y345024D01*
X888553Y344998D01*
X888677Y344963D01*
X888744Y344959D01*
X888809Y344945D01*
X888938Y344945D01*
X889066Y344937D01*
X889132Y344946D01*
X889199Y344946D01*
X889325Y344973D01*
X889452Y344990D01*
X889515Y345012D01*
X889580Y345026D01*
X889698Y345078D01*
X889820Y345121D01*
X889876Y345156D01*
X889937Y345182D01*
X890007Y345235D01*
X890152Y345324D01*
X890277Y345440D01*
X890346Y345493D01*
X890907Y346054D01*
X897780Y348901D01*
X905220Y348901D01*
X912093Y346054D01*
X912653Y345493D01*
X912705Y345451D01*
X912750Y345403D01*
X912856Y345329D01*
X912956Y345247D01*
X913015Y345217D01*
X913069Y345179D01*
X913187Y345127D01*
X913302Y345068D01*
X913366Y345050D01*
X913427Y345024D01*
X913553Y344998D01*
X913677Y344963D01*
X913744Y344959D01*
X913809Y344945D01*
X913938Y344945D01*
X914066Y344937D01*
X914132Y344946D01*
X914199Y344946D01*
X914325Y344973D01*
X914452Y344990D01*
X914515Y345012D01*
X914580Y345026D01*
X914698Y345078D01*
X914820Y345121D01*
X914876Y345156D01*
X914937Y345182D01*
X915007Y345235D01*
X915152Y345324D01*
X915277Y345440D01*
X915346Y345493D01*
X915907Y346054D01*
X922780Y348901D01*
X930220Y348901D01*
X937093Y346054D01*
X942354Y340793D01*
X945201Y333920D01*
X945201Y326480D01*
X942354Y319607D01*
X937093Y314346D01*
X930220Y311499D01*
X922780Y311499D01*
X915907Y314346D01*
X915346Y314907D01*
X915295Y314949D01*
X915249Y314997D01*
X915144Y315071D01*
X915044Y315153D01*
X914985Y315183D01*
X914931Y315221D01*
X914812Y315273D01*
X914698Y315332D01*
X914634Y315350D01*
X914573Y315376D01*
X914447Y315402D01*
X914323Y315437D01*
X914256Y315441D01*
X914191Y315455D01*
X914062Y315455D01*
X913934Y315463D01*
X913868Y315454D01*
X913801Y315454D01*
X913675Y315427D01*
X913548Y315410D01*
X913485Y315388D01*
X913420Y315374D01*
X913302Y315322D01*
X913180Y315279D01*
X913124Y315244D01*
X913063Y315218D01*
X912993Y315165D01*
X912848Y315076D01*
X912723Y314960D01*
X912653Y314907D01*
X912093Y314346D01*
X905220Y311499D01*
X897780Y311499D01*
X890907Y314346D01*
X890346Y314907D01*
X890295Y314949D01*
X890249Y314997D01*
X890144Y315071D01*
X890044Y315153D01*
X889985Y315183D01*
X889931Y315221D01*
X889812Y315273D01*
X889698Y315332D01*
X889634Y315350D01*
X889573Y315376D01*
X889447Y315402D01*
X889323Y315437D01*
X889256Y315441D01*
X889191Y315455D01*
X889062Y315455D01*
X888934Y315463D01*
X888868Y315454D01*
X888801Y315454D01*
X888675Y315427D01*
X888548Y315410D01*
X888485Y315388D01*
X888420Y315374D01*
X888302Y315322D01*
X888180Y315279D01*
X888124Y315244D01*
X888063Y315218D01*
X887993Y315165D01*
X887848Y315076D01*
X887723Y314960D01*
X887653Y314907D01*
X887093Y314346D01*
X880220Y311499D01*
X872780Y311499D01*
X869409Y312896D01*
X869361Y312910D01*
X869316Y312931D01*
X869174Y312966D01*
X869035Y313007D01*
X868986Y313012D01*
X868937Y313023D01*
X868792Y313028D01*
X868647Y313040D01*
X868597Y313034D01*
X868547Y313036D01*
X868404Y313011D01*
X868260Y312994D01*
X868213Y312978D01*
X868163Y312969D01*
X868028Y312916D01*
X867890Y312869D01*
X867847Y312844D01*
X867801Y312826D01*
X867680Y312746D01*
X867554Y312672D01*
X867517Y312639D01*
X867475Y312611D01*
X867373Y312508D01*
X867265Y312411D01*
X867236Y312371D01*
X867200Y312335D01*
X867121Y312213D01*
X867035Y312096D01*
X867015Y312051D01*
X866987Y312009D01*
X866934Y311873D01*
X866874Y311741D01*
X866863Y311692D01*
X866845Y311646D01*
X866833Y311557D01*
X866789Y311361D01*
X866787Y311217D01*
X866776Y311136D01*
X866776Y263379D01*
X866786Y263280D01*
X866786Y263180D01*
X866806Y263086D01*
X866816Y262991D01*
X866846Y262896D01*
X866866Y262799D01*
X866905Y262711D01*
X866934Y262619D01*
X866983Y262533D01*
X867022Y262441D01*
X867067Y262383D01*
X867125Y262280D01*
X867283Y262098D01*
X867333Y262032D01*
X908407Y220958D01*
X908484Y220896D01*
X908555Y220825D01*
X908635Y220773D01*
X908710Y220713D01*
X908798Y220667D01*
X908881Y220612D01*
X908971Y220577D01*
X909056Y220533D01*
X909152Y220506D01*
X909244Y220470D01*
X909317Y220460D01*
X909431Y220428D01*
X909671Y220412D01*
X909754Y220401D01*
X914217Y220401D01*
X922193Y217097D01*
X928297Y210993D01*
X931601Y203017D01*
X931601Y197284D01*
X931611Y197185D01*
X931611Y197085D01*
X931631Y196991D01*
X931641Y196896D01*
X931671Y196801D01*
X931691Y196704D01*
X931730Y196616D01*
X931759Y196524D01*
X931808Y196438D01*
X931847Y196346D01*
X931892Y196288D01*
X931950Y196185D01*
X932108Y196003D01*
X932158Y195937D01*
X934402Y193694D01*
X936626Y188325D01*
X936626Y183752D01*
X936636Y183654D01*
X936636Y183554D01*
X936656Y183460D01*
X936666Y183365D01*
X936696Y183270D01*
X936716Y183172D01*
X936755Y183085D01*
X936784Y182993D01*
X936833Y182906D01*
X936872Y182815D01*
X936917Y182757D01*
X936975Y182654D01*
X937133Y182472D01*
X937183Y182406D01*
X942197Y177393D01*
X945501Y169417D01*
X945501Y160783D01*
X942197Y152807D01*
X936093Y146703D01*
X930169Y144249D01*
X930110Y144218D01*
X930048Y144194D01*
X929939Y144125D01*
X929826Y144064D01*
X929775Y144021D01*
X929719Y143986D01*
X929626Y143896D01*
X929528Y143813D01*
X929487Y143761D01*
X929439Y143714D01*
X929367Y143608D01*
X929287Y143506D01*
X929258Y143447D01*
X929220Y143392D01*
X929171Y143272D01*
X929114Y143157D01*
X929097Y143093D01*
X929072Y143031D01*
X929048Y142905D01*
X929016Y142780D01*
X929012Y142713D01*
X929000Y142648D01*
X929002Y142520D01*
X928996Y142391D01*
X929006Y142325D01*
X929007Y142259D01*
X929030Y142174D01*
X929056Y142006D01*
X929116Y141846D01*
X929138Y141761D01*
X931601Y135817D01*
X931601Y127183D01*
X928297Y119207D01*
X922193Y113103D01*
X914217Y109799D01*
X905583Y109799D01*
X897607Y113103D01*
X891503Y119207D01*
X888199Y127183D01*
X888199Y135817D01*
X891503Y143793D01*
X895427Y147716D01*
X895489Y147793D01*
X895560Y147864D01*
X895612Y147944D01*
X895672Y148018D01*
X895718Y148107D01*
X895773Y148190D01*
X895808Y148279D01*
X895852Y148364D01*
X895879Y148460D01*
X895915Y148553D01*
X895925Y148625D01*
X895957Y148740D01*
X895973Y148980D01*
X895984Y149062D01*
X895984Y155305D01*
X898208Y160674D01*
X901542Y164007D01*
X901604Y164084D01*
X901675Y164155D01*
X901727Y164235D01*
X901787Y164310D01*
X901833Y164398D01*
X901888Y164481D01*
X901923Y164571D01*
X901967Y164656D01*
X901994Y164752D01*
X902030Y164844D01*
X902040Y164917D01*
X902072Y165031D01*
X902088Y165271D01*
X902099Y165354D01*
X902099Y169417D01*
X904562Y175361D01*
X904581Y175425D01*
X904608Y175486D01*
X904636Y175611D01*
X904673Y175735D01*
X904679Y175801D01*
X904693Y175866D01*
X904695Y175995D01*
X904706Y176123D01*
X904698Y176189D01*
X904699Y176256D01*
X904675Y176382D01*
X904660Y176510D01*
X904639Y176573D01*
X904626Y176638D01*
X904577Y176757D01*
X904535Y176880D01*
X904502Y176937D01*
X904476Y176998D01*
X904403Y177105D01*
X904338Y177216D01*
X904294Y177265D01*
X904256Y177320D01*
X904163Y177409D01*
X904077Y177505D01*
X904023Y177544D01*
X903975Y177590D01*
X903899Y177635D01*
X903762Y177735D01*
X903607Y177805D01*
X903531Y177849D01*
X897607Y180303D01*
X891503Y186407D01*
X888199Y194383D01*
X888199Y199066D01*
X888189Y199165D01*
X888189Y199265D01*
X888169Y199359D01*
X888159Y199454D01*
X888129Y199549D01*
X888109Y199646D01*
X888070Y199734D01*
X888041Y199826D01*
X887992Y199912D01*
X887953Y200004D01*
X887908Y200062D01*
X887850Y200165D01*
X887692Y200347D01*
X887642Y200413D01*
X839788Y248266D01*
X837564Y253635D01*
X837564Y316900D01*
X837554Y316999D01*
X837554Y317099D01*
X837534Y317193D01*
X837524Y317288D01*
X837494Y317383D01*
X837474Y317480D01*
X837435Y317568D01*
X837406Y317659D01*
X837358Y317746D01*
X837318Y317837D01*
X837273Y317895D01*
X837215Y317999D01*
X837057Y318180D01*
X837007Y318247D01*
X835646Y319607D01*
X833019Y325951D01*
X832963Y326053D01*
X832917Y326159D01*
X832879Y326209D01*
X832833Y326294D01*
X832643Y326520D01*
X832606Y326569D01*
X802228Y356947D01*
X802151Y357009D01*
X802080Y357080D01*
X802000Y357132D01*
X801925Y357192D01*
X801837Y357238D01*
X801754Y357293D01*
X801664Y357328D01*
X801579Y357372D01*
X801483Y357399D01*
X801391Y357435D01*
X801318Y357445D01*
X801204Y357477D01*
X800964Y357493D01*
X800881Y357504D01*
X790105Y357504D01*
X790039Y357497D01*
X789972Y357500D01*
X789845Y357478D01*
X789717Y357464D01*
X789654Y357444D01*
X789588Y357433D01*
X789469Y357385D01*
X789346Y357346D01*
X789288Y357314D01*
X789226Y357289D01*
X789119Y357218D01*
X789006Y357155D01*
X788956Y357111D01*
X788900Y357075D01*
X788809Y356984D01*
X788712Y356899D01*
X788672Y356846D01*
X788625Y356799D01*
X788555Y356691D01*
X788477Y356588D01*
X788449Y356528D01*
X788412Y356472D01*
X788365Y356352D01*
X788310Y356236D01*
X788294Y356171D01*
X788270Y356109D01*
X788258Y356023D01*
X788218Y355857D01*
X788213Y355687D01*
X788201Y355600D01*
X788201Y347574D01*
X786267Y342906D01*
X784783Y341422D01*
X784721Y341345D01*
X784650Y341274D01*
X784598Y341194D01*
X784538Y341120D01*
X784492Y341031D01*
X784437Y340948D01*
X784402Y340858D01*
X784358Y340773D01*
X784331Y340678D01*
X784295Y340585D01*
X784285Y340512D01*
X784253Y340398D01*
X784237Y340158D01*
X784226Y340075D01*
X784226Y284115D01*
X782002Y278746D01*
X759908Y256653D01*
X759846Y256576D01*
X759775Y256505D01*
X759723Y256425D01*
X759663Y256350D01*
X759617Y256262D01*
X759562Y256179D01*
X759527Y256089D01*
X759483Y256004D01*
X759456Y255908D01*
X759420Y255816D01*
X759410Y255743D01*
X759378Y255629D01*
X759362Y255389D01*
X759351Y255306D01*
X759351Y252694D01*
X759361Y252595D01*
X759361Y252495D01*
X759381Y252401D01*
X759391Y252306D01*
X759421Y252211D01*
X759441Y252114D01*
X759480Y252026D01*
X759509Y251934D01*
X759558Y251848D01*
X759597Y251756D01*
X759642Y251698D01*
X759700Y251595D01*
X759823Y251453D01*
X759838Y251432D01*
X759865Y251404D01*
X759908Y251347D01*
X782002Y229254D01*
X784226Y223885D01*
X784226Y193325D01*
X784236Y193226D01*
X784236Y193126D01*
X784256Y193032D01*
X784266Y192937D01*
X784296Y192842D01*
X784316Y192745D01*
X784355Y192657D01*
X784384Y192565D01*
X784433Y192479D01*
X784472Y192387D01*
X784517Y192329D01*
X784575Y192226D01*
X784733Y192044D01*
X784783Y191978D01*
X786267Y190494D01*
X788201Y185826D01*
X788201Y169774D01*
X786267Y165106D01*
X783513Y162352D01*
X783451Y162275D01*
X783380Y162204D01*
X783328Y162124D01*
X783268Y162050D01*
X783222Y161961D01*
X783167Y161878D01*
X783132Y161788D01*
X783088Y161703D01*
X783061Y161608D01*
X783025Y161515D01*
X783015Y161442D01*
X782983Y161328D01*
X782967Y161088D01*
X782956Y161005D01*
X782956Y126591D01*
X782959Y126557D01*
X782957Y126524D01*
X782979Y126364D01*
X782996Y126203D01*
X783006Y126171D01*
X783010Y126138D01*
X783065Y125986D01*
X783114Y125831D01*
X783130Y125802D01*
X783141Y125771D01*
X783225Y125633D01*
X783305Y125492D01*
X783327Y125467D01*
X783344Y125438D01*
X783455Y125320D01*
X783561Y125198D01*
X783588Y125178D01*
X783610Y125154D01*
X783743Y125060D01*
X783872Y124963D01*
X783902Y124948D01*
X783929Y124929D01*
X784078Y124865D01*
X784224Y124796D01*
X784256Y124788D01*
X784287Y124775D01*
X784446Y124742D01*
X784603Y124704D01*
X784636Y124703D01*
X784669Y124696D01*
X784831Y124696D01*
X784993Y124691D01*
X785025Y124697D01*
X785059Y124697D01*
X785217Y124730D01*
X785377Y124758D01*
X785407Y124770D01*
X785440Y124777D01*
X785589Y124842D01*
X785739Y124901D01*
X785767Y124920D01*
X785797Y124933D01*
X785864Y124983D01*
X786064Y125116D01*
X786148Y125200D01*
X786206Y125244D01*
X803616Y142654D01*
X808751Y144781D01*
X813833Y144781D01*
X813866Y144784D01*
X813899Y144782D01*
X814059Y144804D01*
X814220Y144821D01*
X814252Y144831D01*
X814285Y144835D01*
X814438Y144890D01*
X814592Y144939D01*
X814621Y144955D01*
X814652Y144966D01*
X814790Y145050D01*
X814931Y145130D01*
X814957Y145152D01*
X814985Y145169D01*
X815103Y145280D01*
X815225Y145386D01*
X815245Y145413D01*
X815270Y145435D01*
X815363Y145568D01*
X815460Y145697D01*
X815475Y145727D01*
X815494Y145754D01*
X815558Y145903D01*
X815627Y146049D01*
X815635Y146081D01*
X815649Y146112D01*
X815681Y146271D01*
X815719Y146428D01*
X815720Y146461D01*
X815727Y146494D01*
X815727Y146656D01*
X815732Y146818D01*
X815726Y146850D01*
X815726Y146884D01*
X815693Y147042D01*
X815665Y147202D01*
X815653Y147232D01*
X815646Y147265D01*
X815581Y147414D01*
X815522Y147564D01*
X815504Y147592D01*
X815490Y147622D01*
X815440Y147689D01*
X815307Y147889D01*
X815223Y147973D01*
X815179Y148031D01*
X810403Y152807D01*
X807099Y160783D01*
X807099Y169417D01*
X810403Y177393D01*
X816507Y183497D01*
X822431Y185951D01*
X822490Y185982D01*
X822552Y186006D01*
X822661Y186075D01*
X822774Y186136D01*
X822825Y186179D01*
X822881Y186214D01*
X822974Y186304D01*
X823072Y186387D01*
X823113Y186439D01*
X823161Y186486D01*
X823233Y186592D01*
X823313Y186694D01*
X823342Y186753D01*
X823380Y186808D01*
X823429Y186928D01*
X823486Y187043D01*
X823503Y187107D01*
X823528Y187169D01*
X823552Y187295D01*
X823584Y187420D01*
X823588Y187487D01*
X823600Y187552D01*
X823598Y187680D01*
X823604Y187809D01*
X823594Y187875D01*
X823593Y187941D01*
X823570Y188026D01*
X823544Y188194D01*
X823484Y188354D01*
X823462Y188439D01*
X820999Y194383D01*
X820999Y203017D01*
X824303Y210993D01*
X830407Y217097D01*
X838383Y220401D01*
X847017Y220401D01*
X854993Y217097D01*
X861097Y210993D01*
X864401Y203017D01*
X864401Y194383D01*
X861097Y186407D01*
X857808Y183119D01*
X857746Y183042D01*
X857675Y182971D01*
X857623Y182891D01*
X857563Y182817D01*
X857517Y182728D01*
X857462Y182645D01*
X857427Y182556D01*
X857383Y182470D01*
X857356Y182375D01*
X857320Y182282D01*
X857310Y182210D01*
X857278Y182095D01*
X857262Y181855D01*
X857251Y181772D01*
X857251Y148427D01*
X857261Y148329D01*
X857261Y148229D01*
X857281Y148135D01*
X857291Y148040D01*
X857321Y147945D01*
X857341Y147847D01*
X857380Y147760D01*
X857409Y147668D01*
X857457Y147581D01*
X857497Y147490D01*
X857542Y147432D01*
X857600Y147329D01*
X857758Y147147D01*
X857808Y147081D01*
X861097Y143793D01*
X864401Y135817D01*
X864401Y127183D01*
X861097Y119207D01*
X854993Y113103D01*
X847017Y109799D01*
X838383Y109799D01*
X830407Y113103D01*
X827229Y116282D01*
X827152Y116344D01*
X827081Y116415D01*
X827001Y116467D01*
X826927Y116527D01*
X826838Y116573D01*
X826755Y116628D01*
X826666Y116663D01*
X826581Y116707D01*
X826485Y116734D01*
X826392Y116770D01*
X826320Y116780D01*
X826205Y116812D01*
X825965Y116828D01*
X825883Y116839D01*
X818106Y116839D01*
X818007Y116829D01*
X817907Y116829D01*
X817813Y116809D01*
X817718Y116799D01*
X817623Y116769D01*
X817526Y116749D01*
X817438Y116710D01*
X817346Y116681D01*
X817260Y116632D01*
X817168Y116593D01*
X817110Y116548D01*
X817007Y116490D01*
X816825Y116332D01*
X816759Y116282D01*
X747054Y46576D01*
X741919Y44449D01*
X472201Y44449D01*
X467066Y46576D01*
X459083Y54560D01*
X459006Y54622D01*
X458935Y54693D01*
X458855Y54745D01*
X458781Y54805D01*
X458692Y54851D01*
X458609Y54906D01*
X458519Y54941D01*
X458434Y54985D01*
X458339Y55012D01*
X458246Y55048D01*
X458173Y55058D01*
X458059Y55090D01*
X457819Y55106D01*
X457736Y55117D01*
X453006Y55117D01*
X449039Y56761D01*
X448991Y56775D01*
X448946Y56796D01*
X448805Y56831D01*
X448665Y56872D01*
X448616Y56877D01*
X448567Y56888D01*
X448422Y56893D01*
X448277Y56905D01*
X448227Y56899D01*
X448177Y56901D01*
X448034Y56876D01*
X447890Y56859D01*
X447843Y56843D01*
X447793Y56834D01*
X447659Y56781D01*
X447520Y56734D01*
X447477Y56709D01*
X447431Y56691D01*
X447310Y56611D01*
X447184Y56537D01*
X447147Y56504D01*
X447105Y56476D01*
X447003Y56373D01*
X446895Y56276D01*
X446866Y56236D01*
X446830Y56200D01*
X446751Y56078D01*
X446665Y55961D01*
X446645Y55916D01*
X446617Y55874D01*
X446564Y55738D01*
X446504Y55606D01*
X446493Y55557D01*
X446475Y55511D01*
X446463Y55422D01*
X446419Y55226D01*
X446417Y55082D01*
X446406Y55001D01*
X446406Y47895D01*
X444182Y42526D01*
X439806Y38150D01*
X417607Y15951D01*
X417586Y15926D01*
X417561Y15904D01*
X417463Y15775D01*
X417361Y15649D01*
X417346Y15620D01*
X417326Y15593D01*
X417256Y15447D01*
X417182Y15303D01*
X417173Y15271D01*
X417159Y15241D01*
X417121Y15084D01*
X417077Y14928D01*
X417075Y14894D01*
X417067Y14862D01*
X417061Y14700D01*
X417051Y14539D01*
X417055Y14506D01*
X417054Y14472D01*
X417082Y14313D01*
X417104Y14153D01*
X417115Y14121D01*
X417121Y14088D01*
X417180Y13938D01*
X417235Y13785D01*
X417252Y13757D01*
X417264Y13726D01*
X417353Y13591D01*
X417438Y13453D01*
X417460Y13428D01*
X417479Y13400D01*
X417594Y13286D01*
X417704Y13168D01*
X417731Y13149D01*
X417755Y13125D01*
X417891Y13037D01*
X418023Y12944D01*
X418053Y12931D01*
X418081Y12912D01*
X418232Y12853D01*
X418381Y12789D01*
X418413Y12782D01*
X418444Y12770D01*
X418527Y12759D01*
X418762Y12710D01*
X418881Y12711D01*
X418954Y12701D01*
X985395Y12701D01*
X985461Y12708D01*
X985528Y12705D01*
X985655Y12727D01*
X985783Y12741D01*
X985846Y12761D01*
X985912Y12772D01*
X986031Y12820D01*
X986154Y12859D01*
X986212Y12891D01*
X986274Y12916D01*
X986381Y12987D01*
X986494Y13050D01*
X986544Y13094D01*
X986600Y13130D01*
X986691Y13221D01*
X986788Y13306D01*
X986828Y13359D01*
X986875Y13406D01*
X986945Y13514D01*
X987023Y13617D01*
X987051Y13677D01*
X987088Y13733D01*
X987135Y13853D01*
X987190Y13969D01*
X987206Y14034D01*
X987230Y14096D01*
X987242Y14182D01*
X987282Y14348D01*
X987287Y14518D01*
X987299Y14605D01*
X987299Y785395D01*
X987292Y785461D01*
X987295Y785528D01*
X987273Y785655D01*
X987259Y785783D01*
X987239Y785846D01*
X987228Y785912D01*
X987180Y786031D01*
X987141Y786154D01*
X987109Y786212D01*
X987084Y786274D01*
X987013Y786381D01*
X986950Y786494D01*
X986906Y786544D01*
X986870Y786600D01*
X986779Y786691D01*
X986694Y786788D01*
X986641Y786828D01*
X986594Y786875D01*
X986486Y786945D01*
X986383Y787023D01*
X986323Y787051D01*
X986267Y787088D01*
X986147Y787135D01*
X986031Y787190D01*
X985966Y787206D01*
X985904Y787230D01*
X985818Y787242D01*
X985652Y787282D01*
X985482Y787287D01*
X985395Y787299D01*
X14605Y787299D01*
X14539Y787292D01*
X14472Y787295D01*
X14345Y787273D01*
X14217Y787259D01*
X14154Y787239D01*
X14088Y787228D01*
X13969Y787180D01*
X13846Y787141D01*
X13788Y787109D01*
X13726Y787084D01*
X13619Y787013D01*
X13506Y786950D01*
X13456Y786906D01*
X13400Y786870D01*
X13309Y786779D01*
X13212Y786694D01*
X13172Y786641D01*
X13125Y786594D01*
X13055Y786486D01*
X12977Y786383D01*
X12949Y786323D01*
X12912Y786267D01*
X12865Y786147D01*
X12810Y786031D01*
X12794Y785966D01*
X12770Y785904D01*
X12758Y785818D01*
X12718Y785652D01*
X12713Y785482D01*
X12701Y785395D01*
X12701Y14605D01*
X12708Y14539D01*
X12705Y14472D01*
X12727Y14345D01*
X12741Y14217D01*
X12761Y14154D01*
X12772Y14088D01*
X12820Y13969D01*
X12859Y13846D01*
X12891Y13788D01*
X12916Y13726D01*
X12987Y13619D01*
X13050Y13506D01*
X13094Y13456D01*
X13130Y13400D01*
X13221Y13309D01*
X13306Y13212D01*
X13359Y13172D01*
X13406Y13125D01*
X13514Y13055D01*
X13617Y12977D01*
X13677Y12949D01*
X13733Y12912D01*
X13853Y12865D01*
X13969Y12810D01*
X14034Y12794D01*
X14096Y12770D01*
X14182Y12758D01*
X14348Y12718D01*
X14518Y12713D01*
X14605Y12701D01*
X108508Y12701D01*
X108541Y12704D01*
G37*
G36*
X317632Y283537D02*
X317632Y283537D01*
X317699Y283537D01*
X317825Y283564D01*
X317952Y283581D01*
X318015Y283603D01*
X318080Y283617D01*
X318198Y283669D01*
X318320Y283712D01*
X318376Y283747D01*
X318437Y283773D01*
X318507Y283826D01*
X318652Y283915D01*
X318777Y284031D01*
X318846Y284084D01*
X321783Y287021D01*
X329974Y287021D01*
X330073Y287031D01*
X330173Y287031D01*
X330267Y287051D01*
X330362Y287061D01*
X330457Y287091D01*
X330554Y287111D01*
X330642Y287150D01*
X330734Y287179D01*
X330820Y287228D01*
X330912Y287267D01*
X330970Y287312D01*
X331073Y287370D01*
X331255Y287528D01*
X331321Y287578D01*
X333716Y289974D01*
X338851Y292101D01*
X388859Y292101D01*
X389796Y291712D01*
X389844Y291698D01*
X389889Y291677D01*
X390030Y291643D01*
X390170Y291601D01*
X390219Y291597D01*
X390268Y291585D01*
X390413Y291580D01*
X390558Y291568D01*
X390608Y291574D01*
X390658Y291572D01*
X390801Y291597D01*
X390945Y291614D01*
X390992Y291630D01*
X391042Y291639D01*
X391176Y291692D01*
X391315Y291739D01*
X391358Y291764D01*
X391404Y291783D01*
X391525Y291862D01*
X391651Y291936D01*
X391688Y291969D01*
X391730Y291997D01*
X391832Y292100D01*
X391940Y292197D01*
X391969Y292238D01*
X392005Y292273D01*
X392084Y292395D01*
X392170Y292512D01*
X392190Y292558D01*
X392218Y292599D01*
X392271Y292735D01*
X392331Y292867D01*
X392342Y292916D01*
X392360Y292962D01*
X392372Y293051D01*
X392416Y293248D01*
X392418Y293391D01*
X392429Y293472D01*
X392429Y319009D01*
X394556Y324144D01*
X498792Y428379D01*
X498829Y428425D01*
X498838Y428433D01*
X498859Y428461D01*
X498925Y428527D01*
X498977Y428607D01*
X499037Y428682D01*
X499062Y428730D01*
X499073Y428743D01*
X499091Y428782D01*
X499138Y428853D01*
X499173Y428943D01*
X499217Y429028D01*
X499230Y429074D01*
X499240Y429096D01*
X499252Y429145D01*
X499280Y429216D01*
X499290Y429289D01*
X499322Y429403D01*
X499325Y429444D01*
X499332Y429474D01*
X499337Y429625D01*
X499338Y429643D01*
X499349Y429726D01*
X499349Y433069D01*
X502310Y440218D01*
X507782Y445690D01*
X514931Y448651D01*
X518274Y448651D01*
X518373Y448661D01*
X518473Y448661D01*
X518567Y448681D01*
X518662Y448691D01*
X518757Y448721D01*
X518854Y448741D01*
X518942Y448780D01*
X519034Y448809D01*
X519120Y448858D01*
X519212Y448897D01*
X519270Y448942D01*
X519373Y449000D01*
X519555Y449158D01*
X519621Y449208D01*
X519916Y449504D01*
X519937Y449529D01*
X519962Y449551D01*
X520060Y449680D01*
X520162Y449806D01*
X520177Y449835D01*
X520197Y449862D01*
X520267Y450008D01*
X520341Y450152D01*
X520350Y450184D01*
X520364Y450214D01*
X520403Y450371D01*
X520446Y450527D01*
X520448Y450561D01*
X520456Y450593D01*
X520462Y450755D01*
X520473Y450916D01*
X520468Y450949D01*
X520469Y450983D01*
X520441Y451142D01*
X520419Y451302D01*
X520408Y451334D01*
X520402Y451367D01*
X520343Y451517D01*
X520288Y451670D01*
X520271Y451698D01*
X520259Y451729D01*
X520170Y451864D01*
X520085Y452002D01*
X520063Y452027D01*
X520044Y452055D01*
X519930Y452169D01*
X519819Y452287D01*
X519792Y452306D01*
X519768Y452330D01*
X519633Y452418D01*
X519500Y452511D01*
X519470Y452524D01*
X519442Y452543D01*
X519291Y452602D01*
X519142Y452666D01*
X519110Y452673D01*
X519079Y452685D01*
X518996Y452696D01*
X518761Y452745D01*
X518642Y452744D01*
X518569Y452754D01*
X373869Y452754D01*
X373770Y452744D01*
X373670Y452744D01*
X373576Y452724D01*
X373481Y452714D01*
X373386Y452684D01*
X373289Y452664D01*
X373201Y452625D01*
X373109Y452596D01*
X373023Y452547D01*
X372931Y452508D01*
X372873Y452463D01*
X372770Y452405D01*
X372588Y452247D01*
X372522Y452197D01*
X347268Y426943D01*
X347227Y426891D01*
X347178Y426846D01*
X347104Y426740D01*
X347022Y426640D01*
X346992Y426581D01*
X346954Y426527D01*
X346902Y426408D01*
X346843Y426294D01*
X346825Y426230D01*
X346799Y426169D01*
X346773Y426043D01*
X346738Y425919D01*
X346734Y425852D01*
X346720Y425787D01*
X346721Y425659D01*
X346712Y425530D01*
X346721Y425464D01*
X346721Y425398D01*
X346748Y425272D01*
X346765Y425144D01*
X346788Y425081D01*
X346801Y425016D01*
X346853Y424898D01*
X346896Y424777D01*
X346931Y424720D01*
X346957Y424659D01*
X347010Y424589D01*
X347099Y424444D01*
X347215Y424319D01*
X347268Y424250D01*
X347325Y424193D01*
X350401Y416768D01*
X350401Y408732D01*
X347325Y401307D01*
X344728Y398710D01*
X344695Y398669D01*
X344682Y398658D01*
X344657Y398624D01*
X344595Y398563D01*
X344543Y398482D01*
X344483Y398408D01*
X344460Y398364D01*
X344447Y398347D01*
X344427Y398304D01*
X344382Y398236D01*
X344347Y398147D01*
X344303Y398062D01*
X344291Y398019D01*
X344280Y397995D01*
X344267Y397943D01*
X344240Y397873D01*
X344230Y397801D01*
X344198Y397686D01*
X344196Y397647D01*
X344188Y397616D01*
X344183Y397463D01*
X344182Y397446D01*
X344171Y397364D01*
X344171Y357901D01*
X342044Y352766D01*
X279549Y290271D01*
X279528Y290246D01*
X279503Y290224D01*
X279405Y290095D01*
X279303Y289969D01*
X279288Y289940D01*
X279268Y289913D01*
X279198Y289767D01*
X279124Y289623D01*
X279115Y289591D01*
X279101Y289561D01*
X279062Y289404D01*
X279019Y289248D01*
X279017Y289214D01*
X279009Y289182D01*
X279003Y289020D01*
X278992Y288859D01*
X278997Y288826D01*
X278996Y288792D01*
X279024Y288633D01*
X279046Y288473D01*
X279057Y288441D01*
X279063Y288408D01*
X279122Y288258D01*
X279177Y288105D01*
X279194Y288077D01*
X279206Y288046D01*
X279295Y287911D01*
X279380Y287773D01*
X279402Y287748D01*
X279421Y287720D01*
X279535Y287606D01*
X279646Y287488D01*
X279673Y287469D01*
X279697Y287445D01*
X279832Y287357D01*
X279965Y287264D01*
X279995Y287251D01*
X280023Y287232D01*
X280174Y287173D01*
X280323Y287109D01*
X280355Y287102D01*
X280386Y287090D01*
X280469Y287079D01*
X280704Y287030D01*
X280823Y287031D01*
X280896Y287021D01*
X287817Y287021D01*
X290753Y284084D01*
X290805Y284042D01*
X290850Y283994D01*
X290956Y283920D01*
X291056Y283838D01*
X291115Y283808D01*
X291169Y283770D01*
X291287Y283718D01*
X291402Y283659D01*
X291466Y283641D01*
X291527Y283615D01*
X291653Y283589D01*
X291777Y283554D01*
X291844Y283550D01*
X291909Y283536D01*
X292038Y283536D01*
X292166Y283528D01*
X292232Y283537D01*
X292299Y283537D01*
X292425Y283564D01*
X292552Y283581D01*
X292615Y283603D01*
X292680Y283617D01*
X292798Y283669D01*
X292920Y283712D01*
X292976Y283747D01*
X293037Y283773D01*
X293107Y283826D01*
X293252Y283915D01*
X293377Y284031D01*
X293446Y284084D01*
X296383Y287021D01*
X313217Y287021D01*
X316153Y284084D01*
X316205Y284042D01*
X316250Y283994D01*
X316356Y283920D01*
X316456Y283838D01*
X316515Y283808D01*
X316569Y283770D01*
X316687Y283718D01*
X316802Y283659D01*
X316866Y283641D01*
X316927Y283615D01*
X317053Y283589D01*
X317177Y283554D01*
X317244Y283550D01*
X317309Y283536D01*
X317438Y283536D01*
X317566Y283528D01*
X317632Y283537D01*
G37*
G36*
X607005Y162592D02*
X607005Y162592D01*
X607054Y162593D01*
X607197Y162622D01*
X607340Y162645D01*
X607387Y162662D01*
X607436Y162673D01*
X607569Y162731D01*
X607705Y162782D01*
X607747Y162809D01*
X607793Y162829D01*
X607864Y162883D01*
X608034Y162991D01*
X608137Y163091D01*
X608202Y163140D01*
X687782Y242719D01*
X687844Y242796D01*
X687915Y242867D01*
X687967Y242947D01*
X688027Y243022D01*
X688073Y243110D01*
X688128Y243193D01*
X688163Y243283D01*
X688207Y243368D01*
X688234Y243464D01*
X688270Y243556D01*
X688280Y243629D01*
X688312Y243743D01*
X688328Y243983D01*
X688339Y244066D01*
X688339Y339090D01*
X688332Y339156D01*
X688335Y339223D01*
X688313Y339350D01*
X688299Y339478D01*
X688279Y339541D01*
X688268Y339607D01*
X688220Y339726D01*
X688181Y339849D01*
X688149Y339907D01*
X688124Y339969D01*
X688053Y340076D01*
X687990Y340189D01*
X687946Y340239D01*
X687910Y340295D01*
X687819Y340386D01*
X687734Y340483D01*
X687681Y340523D01*
X687634Y340570D01*
X687526Y340640D01*
X687423Y340718D01*
X687363Y340746D01*
X687307Y340783D01*
X687187Y340830D01*
X687071Y340885D01*
X687006Y340901D01*
X686944Y340925D01*
X686858Y340937D01*
X686692Y340977D01*
X686522Y340982D01*
X686435Y340994D01*
X681231Y340994D01*
X681116Y340982D01*
X681000Y340980D01*
X680939Y340964D01*
X680844Y340954D01*
X680563Y340865D01*
X680503Y340849D01*
X677548Y339625D01*
X671192Y339625D01*
X668944Y340556D01*
X668865Y340580D01*
X668789Y340613D01*
X668679Y340636D01*
X668571Y340668D01*
X668488Y340675D01*
X668407Y340692D01*
X668295Y340692D01*
X668183Y340701D01*
X668100Y340691D01*
X668017Y340691D01*
X667907Y340668D01*
X667796Y340654D01*
X667717Y340628D01*
X667636Y340611D01*
X667533Y340566D01*
X667426Y340530D01*
X667355Y340488D01*
X667278Y340455D01*
X667213Y340405D01*
X667090Y340333D01*
X666940Y340198D01*
X666869Y340144D01*
X558723Y231998D01*
X558661Y231921D01*
X558590Y231850D01*
X558538Y231770D01*
X558478Y231695D01*
X558432Y231607D01*
X558377Y231524D01*
X558342Y231434D01*
X558298Y231349D01*
X558271Y231253D01*
X558235Y231161D01*
X558225Y231088D01*
X558193Y230974D01*
X558177Y230734D01*
X558166Y230651D01*
X558166Y210605D01*
X558173Y210539D01*
X558170Y210472D01*
X558192Y210345D01*
X558206Y210217D01*
X558226Y210154D01*
X558237Y210088D01*
X558285Y209969D01*
X558324Y209846D01*
X558356Y209788D01*
X558381Y209726D01*
X558452Y209618D01*
X558515Y209506D01*
X558559Y209456D01*
X558595Y209400D01*
X558686Y209309D01*
X558771Y209212D01*
X558824Y209172D01*
X558871Y209125D01*
X558979Y209055D01*
X559082Y208977D01*
X559142Y208949D01*
X559198Y208912D01*
X559318Y208865D01*
X559434Y208810D01*
X559499Y208794D01*
X559561Y208770D01*
X559647Y208758D01*
X559813Y208718D01*
X559983Y208713D01*
X560070Y208701D01*
X570526Y208701D01*
X570771Y208599D01*
X570867Y208571D01*
X570959Y208533D01*
X571053Y208515D01*
X571145Y208488D01*
X571244Y208479D01*
X571342Y208461D01*
X571438Y208463D01*
X571533Y208455D01*
X571632Y208466D01*
X571732Y208468D01*
X571802Y208487D01*
X571920Y208501D01*
X572148Y208578D01*
X572229Y208599D01*
X572474Y208701D01*
X587526Y208701D01*
X592194Y206767D01*
X595767Y203194D01*
X597701Y198526D01*
X597701Y182474D01*
X595767Y177806D01*
X594918Y176957D01*
X594856Y176880D01*
X594785Y176809D01*
X594733Y176729D01*
X594673Y176655D01*
X594627Y176566D01*
X594572Y176483D01*
X594537Y176393D01*
X594493Y176308D01*
X594466Y176213D01*
X594430Y176120D01*
X594420Y176047D01*
X594388Y175933D01*
X594372Y175693D01*
X594361Y175610D01*
X594361Y175065D01*
X594369Y174982D01*
X594368Y174899D01*
X594389Y174789D01*
X594401Y174677D01*
X594426Y174598D01*
X594441Y174516D01*
X594485Y174413D01*
X594519Y174306D01*
X594559Y174233D01*
X594591Y174157D01*
X594655Y174064D01*
X594710Y173966D01*
X594765Y173903D01*
X594811Y173835D01*
X594892Y173757D01*
X594966Y173672D01*
X595032Y173622D01*
X595092Y173565D01*
X595163Y173523D01*
X595277Y173437D01*
X595459Y173351D01*
X595536Y173305D01*
X599776Y171549D01*
X603349Y167976D01*
X605097Y163758D01*
X605120Y163714D01*
X605137Y163667D01*
X605213Y163543D01*
X605282Y163415D01*
X605314Y163377D01*
X605340Y163334D01*
X605439Y163228D01*
X605533Y163117D01*
X605572Y163086D01*
X605606Y163049D01*
X605725Y162966D01*
X605840Y162876D01*
X605884Y162854D01*
X605925Y162825D01*
X606059Y162767D01*
X606189Y162703D01*
X606237Y162690D01*
X606283Y162670D01*
X606425Y162641D01*
X606566Y162604D01*
X606616Y162602D01*
X606665Y162592D01*
X606810Y162592D01*
X606955Y162585D01*
X607005Y162592D01*
G37*
G36*
X240027Y92710D02*
X240027Y92710D01*
X240094Y92710D01*
X240220Y92736D01*
X240348Y92754D01*
X240410Y92776D01*
X240475Y92790D01*
X240593Y92841D01*
X240715Y92885D01*
X240771Y92919D01*
X240832Y92946D01*
X240902Y92999D01*
X241047Y93088D01*
X241172Y93204D01*
X241242Y93257D01*
X242058Y94073D01*
X249806Y97283D01*
X258194Y97283D01*
X265971Y94061D01*
X266066Y94033D01*
X266159Y93995D01*
X266253Y93977D01*
X266345Y93950D01*
X266444Y93941D01*
X266542Y93923D01*
X266638Y93925D01*
X266733Y93916D01*
X266832Y93928D01*
X266932Y93930D01*
X267002Y93949D01*
X267120Y93963D01*
X267348Y94040D01*
X267429Y94061D01*
X275206Y97283D01*
X283594Y97283D01*
X291371Y94061D01*
X291466Y94033D01*
X291559Y93995D01*
X291653Y93977D01*
X291745Y93950D01*
X291844Y93941D01*
X291942Y93923D01*
X292038Y93925D01*
X292133Y93916D01*
X292232Y93928D01*
X292332Y93930D01*
X292402Y93949D01*
X292520Y93963D01*
X292748Y94040D01*
X292829Y94061D01*
X300606Y97283D01*
X308994Y97283D01*
X316771Y94061D01*
X316866Y94033D01*
X316959Y93995D01*
X317053Y93977D01*
X317145Y93950D01*
X317244Y93941D01*
X317342Y93923D01*
X317438Y93925D01*
X317533Y93916D01*
X317632Y93928D01*
X317732Y93930D01*
X317802Y93949D01*
X317920Y93963D01*
X318148Y94040D01*
X318229Y94061D01*
X326006Y97283D01*
X334394Y97283D01*
X342171Y94061D01*
X342266Y94033D01*
X342359Y93995D01*
X342453Y93977D01*
X342545Y93950D01*
X342644Y93941D01*
X342742Y93923D01*
X342838Y93925D01*
X342933Y93916D01*
X343032Y93928D01*
X343132Y93930D01*
X343202Y93949D01*
X343320Y93963D01*
X343548Y94040D01*
X343629Y94061D01*
X351406Y97283D01*
X359794Y97283D01*
X367571Y94061D01*
X367666Y94033D01*
X367759Y93995D01*
X367853Y93977D01*
X367945Y93950D01*
X368044Y93941D01*
X368142Y93923D01*
X368238Y93925D01*
X368333Y93916D01*
X368432Y93928D01*
X368532Y93930D01*
X368602Y93949D01*
X368720Y93963D01*
X368948Y94040D01*
X369029Y94061D01*
X371609Y95130D01*
X371653Y95154D01*
X371700Y95170D01*
X371824Y95246D01*
X371952Y95315D01*
X371990Y95347D01*
X372033Y95373D01*
X372139Y95473D01*
X372250Y95566D01*
X372281Y95605D01*
X372317Y95640D01*
X372401Y95759D01*
X372491Y95873D01*
X372513Y95918D01*
X372542Y95958D01*
X372599Y96092D01*
X372664Y96222D01*
X372676Y96270D01*
X372696Y96316D01*
X372726Y96459D01*
X372762Y96599D01*
X372765Y96649D01*
X372775Y96698D01*
X372775Y96843D01*
X372782Y96989D01*
X372774Y97038D01*
X372774Y97088D01*
X372744Y97230D01*
X372722Y97374D01*
X372704Y97420D01*
X372694Y97469D01*
X372636Y97602D01*
X372585Y97739D01*
X372558Y97781D01*
X372538Y97826D01*
X372484Y97897D01*
X372376Y98068D01*
X372276Y98171D01*
X372227Y98236D01*
X338653Y131809D01*
X338589Y131862D01*
X338531Y131921D01*
X338438Y131984D01*
X338351Y132055D01*
X338277Y132093D01*
X338208Y132140D01*
X338104Y132183D01*
X338005Y132234D01*
X337925Y132257D01*
X337848Y132288D01*
X337737Y132309D01*
X337629Y132339D01*
X337546Y132345D01*
X337465Y132360D01*
X337353Y132358D01*
X337240Y132366D01*
X337158Y132354D01*
X337075Y132353D01*
X336996Y132332D01*
X336854Y132312D01*
X336664Y132245D01*
X336578Y132222D01*
X334394Y131317D01*
X326006Y131317D01*
X318229Y134539D01*
X318134Y134567D01*
X318041Y134605D01*
X317947Y134623D01*
X317855Y134650D01*
X317756Y134659D01*
X317658Y134677D01*
X317562Y134675D01*
X317467Y134684D01*
X317368Y134672D01*
X317268Y134670D01*
X317198Y134651D01*
X317080Y134637D01*
X316852Y134560D01*
X316771Y134539D01*
X308994Y131317D01*
X300606Y131317D01*
X292829Y134539D01*
X292734Y134567D01*
X292641Y134605D01*
X292547Y134623D01*
X292455Y134650D01*
X292356Y134659D01*
X292258Y134677D01*
X292162Y134675D01*
X292067Y134684D01*
X291968Y134672D01*
X291868Y134670D01*
X291798Y134651D01*
X291680Y134637D01*
X291452Y134560D01*
X291371Y134539D01*
X283594Y131317D01*
X275206Y131317D01*
X267429Y134539D01*
X267334Y134567D01*
X267241Y134605D01*
X267147Y134623D01*
X267055Y134650D01*
X266956Y134659D01*
X266858Y134677D01*
X266762Y134675D01*
X266667Y134684D01*
X266568Y134672D01*
X266468Y134670D01*
X266398Y134651D01*
X266280Y134637D01*
X266052Y134560D01*
X265971Y134539D01*
X258194Y131317D01*
X249806Y131317D01*
X242058Y134527D01*
X236127Y140458D01*
X232917Y148206D01*
X232917Y156594D01*
X236127Y164342D01*
X242058Y170273D01*
X249806Y173483D01*
X258194Y173483D01*
X265971Y170261D01*
X266066Y170233D01*
X266159Y170195D01*
X266253Y170177D01*
X266345Y170150D01*
X266444Y170141D01*
X266542Y170123D01*
X266638Y170125D01*
X266733Y170116D01*
X266832Y170128D01*
X266932Y170130D01*
X267002Y170149D01*
X267120Y170163D01*
X267348Y170240D01*
X267429Y170261D01*
X275206Y173483D01*
X283594Y173483D01*
X291371Y170261D01*
X291466Y170233D01*
X291559Y170195D01*
X291653Y170177D01*
X291745Y170150D01*
X291844Y170141D01*
X291942Y170123D01*
X292038Y170125D01*
X292133Y170116D01*
X292232Y170128D01*
X292332Y170130D01*
X292402Y170149D01*
X292520Y170163D01*
X292748Y170240D01*
X292829Y170261D01*
X300606Y173483D01*
X302542Y173483D01*
X302576Y173486D01*
X302609Y173484D01*
X302769Y173506D01*
X302930Y173523D01*
X302962Y173533D01*
X302995Y173537D01*
X303147Y173592D01*
X303302Y173641D01*
X303331Y173657D01*
X303362Y173668D01*
X303500Y173752D01*
X303641Y173832D01*
X303666Y173854D01*
X303695Y173871D01*
X303813Y173982D01*
X303935Y174088D01*
X303955Y174115D01*
X303979Y174137D01*
X304073Y174270D01*
X304170Y174399D01*
X304185Y174429D01*
X304204Y174456D01*
X304268Y174605D01*
X304337Y174751D01*
X304345Y174783D01*
X304358Y174814D01*
X304391Y174973D01*
X304429Y175130D01*
X304430Y175163D01*
X304437Y175196D01*
X304437Y175358D01*
X304442Y175520D01*
X304436Y175552D01*
X304436Y175586D01*
X304403Y175744D01*
X304375Y175904D01*
X304363Y175934D01*
X304356Y175967D01*
X304291Y176116D01*
X304232Y176266D01*
X304213Y176294D01*
X304200Y176324D01*
X304150Y176391D01*
X304017Y176591D01*
X303933Y176675D01*
X303889Y176733D01*
X267556Y213066D01*
X265429Y218201D01*
X265429Y225744D01*
X265419Y225843D01*
X265419Y225943D01*
X265399Y226037D01*
X265389Y226132D01*
X265359Y226227D01*
X265339Y226324D01*
X265300Y226412D01*
X265271Y226503D01*
X265222Y226590D01*
X265183Y226681D01*
X265139Y226739D01*
X265080Y226843D01*
X264922Y227024D01*
X264872Y227091D01*
X259096Y232866D01*
X259057Y232898D01*
X259024Y232935D01*
X258906Y233020D01*
X258794Y233112D01*
X258749Y233135D01*
X258709Y233165D01*
X258577Y233224D01*
X258447Y233291D01*
X258399Y233305D01*
X258354Y233325D01*
X258212Y233357D01*
X258072Y233396D01*
X258022Y233400D01*
X257974Y233411D01*
X257828Y233413D01*
X257683Y233423D01*
X257634Y233416D01*
X257584Y233417D01*
X257441Y233389D01*
X257297Y233369D01*
X257250Y233353D01*
X257201Y233343D01*
X257067Y233287D01*
X256930Y233239D01*
X256887Y233213D01*
X256841Y233193D01*
X256721Y233111D01*
X256597Y233036D01*
X256561Y233002D01*
X256519Y232973D01*
X256419Y232869D01*
X256312Y232769D01*
X256284Y232728D01*
X256249Y232693D01*
X256204Y232615D01*
X256088Y232450D01*
X256031Y232319D01*
X255990Y232248D01*
X253682Y226676D01*
X249306Y222300D01*
X236407Y209402D01*
X236376Y209363D01*
X236339Y209329D01*
X236253Y209212D01*
X236161Y209099D01*
X236138Y209055D01*
X236109Y209015D01*
X236049Y208882D01*
X235982Y208753D01*
X235969Y208705D01*
X235948Y208660D01*
X235916Y208517D01*
X235877Y208378D01*
X235874Y208328D01*
X235863Y208279D01*
X235861Y208134D01*
X235851Y207989D01*
X235858Y207939D01*
X235857Y207890D01*
X235884Y207747D01*
X235904Y207603D01*
X235921Y207556D01*
X235930Y207507D01*
X235986Y207372D01*
X236035Y207236D01*
X236061Y207193D01*
X236080Y207147D01*
X236162Y207027D01*
X236238Y206903D01*
X236272Y206866D01*
X236300Y206825D01*
X236405Y206724D01*
X236504Y206618D01*
X236545Y206589D01*
X236581Y206555D01*
X236658Y206510D01*
X236823Y206394D01*
X236955Y206337D01*
X237025Y206296D01*
X237094Y206267D01*
X240667Y202694D01*
X242601Y198026D01*
X242601Y182974D01*
X240667Y178306D01*
X237094Y174733D01*
X232426Y172799D01*
X228534Y172799D01*
X228435Y172789D01*
X228335Y172789D01*
X228241Y172769D01*
X228146Y172759D01*
X228051Y172729D01*
X227954Y172709D01*
X227866Y172670D01*
X227774Y172641D01*
X227688Y172592D01*
X227596Y172553D01*
X227538Y172508D01*
X227435Y172450D01*
X227253Y172292D01*
X227187Y172242D01*
X215823Y160878D01*
X215761Y160801D01*
X215690Y160730D01*
X215638Y160650D01*
X215578Y160575D01*
X215532Y160487D01*
X215477Y160404D01*
X215442Y160314D01*
X215398Y160229D01*
X215371Y160133D01*
X215335Y160041D01*
X215325Y159968D01*
X215293Y159854D01*
X215277Y159614D01*
X215266Y159531D01*
X215266Y117329D01*
X215276Y117230D01*
X215276Y117130D01*
X215296Y117036D01*
X215306Y116941D01*
X215336Y116846D01*
X215356Y116749D01*
X215395Y116661D01*
X215424Y116569D01*
X215473Y116483D01*
X215512Y116391D01*
X215557Y116333D01*
X215615Y116230D01*
X215773Y116048D01*
X215823Y115982D01*
X238549Y93257D01*
X238600Y93215D01*
X238646Y93167D01*
X238751Y93092D01*
X238851Y93011D01*
X238910Y92981D01*
X238964Y92942D01*
X239083Y92891D01*
X239197Y92832D01*
X239261Y92814D01*
X239322Y92788D01*
X239448Y92762D01*
X239572Y92727D01*
X239639Y92722D01*
X239704Y92709D01*
X239833Y92709D01*
X239961Y92700D01*
X240027Y92710D01*
G37*
G36*
X384990Y12704D02*
X384990Y12704D01*
X385023Y12702D01*
X385183Y12724D01*
X385344Y12741D01*
X385376Y12751D01*
X385409Y12755D01*
X385561Y12810D01*
X385716Y12859D01*
X385745Y12875D01*
X385776Y12886D01*
X385914Y12970D01*
X386055Y13050D01*
X386080Y13072D01*
X386109Y13089D01*
X386227Y13200D01*
X386349Y13306D01*
X386369Y13333D01*
X386393Y13355D01*
X386487Y13488D01*
X386584Y13617D01*
X386599Y13647D01*
X386618Y13674D01*
X386682Y13823D01*
X386751Y13969D01*
X386759Y14001D01*
X386772Y14032D01*
X386805Y14191D01*
X386843Y14348D01*
X386844Y14381D01*
X386851Y14414D01*
X386851Y14576D01*
X386856Y14738D01*
X386850Y14770D01*
X386850Y14804D01*
X386817Y14962D01*
X386789Y15122D01*
X386777Y15152D01*
X386770Y15185D01*
X386705Y15334D01*
X386646Y15484D01*
X386627Y15512D01*
X386614Y15542D01*
X386564Y15609D01*
X386431Y15809D01*
X386347Y15893D01*
X386303Y15951D01*
X382413Y19842D01*
X382336Y19904D01*
X382265Y19975D01*
X382185Y20027D01*
X382110Y20087D01*
X382022Y20133D01*
X381939Y20188D01*
X381849Y20223D01*
X381764Y20267D01*
X381668Y20294D01*
X381576Y20330D01*
X381503Y20340D01*
X381389Y20372D01*
X381149Y20388D01*
X381066Y20399D01*
X377174Y20399D01*
X372506Y22333D01*
X371902Y22936D01*
X371825Y22999D01*
X371754Y23070D01*
X371674Y23122D01*
X371600Y23182D01*
X371511Y23228D01*
X371428Y23283D01*
X371339Y23318D01*
X371253Y23362D01*
X371157Y23389D01*
X371065Y23425D01*
X370993Y23435D01*
X370878Y23467D01*
X370638Y23483D01*
X370555Y23494D01*
X270145Y23494D01*
X264776Y25718D01*
X207086Y83408D01*
X207061Y83429D01*
X207039Y83454D01*
X206910Y83552D01*
X206784Y83654D01*
X206755Y83669D01*
X206728Y83689D01*
X206582Y83759D01*
X206438Y83833D01*
X206406Y83842D01*
X206376Y83856D01*
X206219Y83894D01*
X206063Y83938D01*
X206029Y83940D01*
X205997Y83948D01*
X205835Y83954D01*
X205674Y83964D01*
X205641Y83960D01*
X205607Y83961D01*
X205448Y83933D01*
X205288Y83911D01*
X205256Y83900D01*
X205223Y83894D01*
X205073Y83835D01*
X204920Y83780D01*
X204892Y83763D01*
X204861Y83751D01*
X204726Y83662D01*
X204588Y83577D01*
X204563Y83555D01*
X204535Y83536D01*
X204421Y83421D01*
X204303Y83311D01*
X204284Y83284D01*
X204260Y83260D01*
X204172Y83124D01*
X204079Y82992D01*
X204066Y82962D01*
X204047Y82934D01*
X203988Y82783D01*
X203924Y82634D01*
X203917Y82602D01*
X203905Y82571D01*
X203894Y82488D01*
X203845Y82253D01*
X203846Y82134D01*
X203836Y82061D01*
X203836Y75835D01*
X201612Y70466D01*
X180994Y49848D01*
X175625Y47624D01*
X168595Y47624D01*
X168529Y47617D01*
X168462Y47620D01*
X168335Y47598D01*
X168207Y47584D01*
X168144Y47564D01*
X168078Y47553D01*
X167959Y47505D01*
X167836Y47466D01*
X167778Y47434D01*
X167716Y47409D01*
X167609Y47338D01*
X167496Y47275D01*
X167446Y47231D01*
X167390Y47195D01*
X167299Y47104D01*
X167202Y47019D01*
X167162Y46966D01*
X167115Y46919D01*
X167045Y46811D01*
X166967Y46708D01*
X166939Y46648D01*
X166902Y46592D01*
X166855Y46472D01*
X166800Y46356D01*
X166784Y46291D01*
X166760Y46229D01*
X166748Y46143D01*
X166708Y45977D01*
X166703Y45807D01*
X166691Y45720D01*
X166691Y37386D01*
X164354Y28664D01*
X159839Y20845D01*
X154946Y15951D01*
X154925Y15926D01*
X154900Y15904D01*
X154802Y15775D01*
X154700Y15649D01*
X154685Y15620D01*
X154665Y15593D01*
X154595Y15447D01*
X154521Y15303D01*
X154512Y15271D01*
X154497Y15241D01*
X154459Y15084D01*
X154416Y14928D01*
X154413Y14894D01*
X154406Y14862D01*
X154400Y14700D01*
X154389Y14539D01*
X154394Y14506D01*
X154393Y14472D01*
X154420Y14313D01*
X154443Y14153D01*
X154454Y14121D01*
X154460Y14088D01*
X154519Y13938D01*
X154574Y13785D01*
X154591Y13757D01*
X154603Y13726D01*
X154692Y13591D01*
X154776Y13453D01*
X154799Y13428D01*
X154817Y13400D01*
X154932Y13286D01*
X155043Y13168D01*
X155070Y13149D01*
X155094Y13125D01*
X155229Y13037D01*
X155362Y12944D01*
X155392Y12931D01*
X155420Y12912D01*
X155571Y12853D01*
X155719Y12789D01*
X155752Y12782D01*
X155783Y12770D01*
X155865Y12759D01*
X156101Y12710D01*
X156220Y12711D01*
X156292Y12701D01*
X384956Y12701D01*
X384990Y12704D01*
G37*
G36*
X470077Y283492D02*
X470077Y283492D01*
X470144Y283492D01*
X470270Y283518D01*
X470398Y283536D01*
X470460Y283558D01*
X470525Y283572D01*
X470643Y283624D01*
X470765Y283667D01*
X470821Y283701D01*
X470882Y283728D01*
X470952Y283781D01*
X471098Y283870D01*
X471222Y283986D01*
X471292Y284039D01*
X501942Y314689D01*
X502004Y314766D01*
X502075Y314837D01*
X502127Y314917D01*
X502187Y314992D01*
X502233Y315080D01*
X502288Y315163D01*
X502323Y315253D01*
X502367Y315338D01*
X502394Y315434D01*
X502430Y315526D01*
X502440Y315599D01*
X502472Y315713D01*
X502488Y315953D01*
X502499Y316036D01*
X502499Y329226D01*
X502601Y329471D01*
X502629Y329567D01*
X502667Y329659D01*
X502685Y329753D01*
X502712Y329845D01*
X502721Y329944D01*
X502739Y330042D01*
X502737Y330138D01*
X502745Y330233D01*
X502733Y330332D01*
X502732Y330431D01*
X502713Y330502D01*
X502699Y330620D01*
X502622Y330848D01*
X502601Y330929D01*
X502499Y331174D01*
X502499Y346226D01*
X504433Y350894D01*
X506172Y352633D01*
X506234Y352710D01*
X506305Y352781D01*
X506357Y352861D01*
X506417Y352935D01*
X506463Y353024D01*
X506518Y353107D01*
X506553Y353197D01*
X506597Y353282D01*
X506624Y353377D01*
X506660Y353470D01*
X506670Y353543D01*
X506702Y353657D01*
X506718Y353897D01*
X506729Y353980D01*
X506729Y357220D01*
X506719Y357319D01*
X506719Y357419D01*
X506699Y357513D01*
X506689Y357608D01*
X506659Y357703D01*
X506639Y357801D01*
X506600Y357888D01*
X506571Y357980D01*
X506523Y358066D01*
X506483Y358158D01*
X506438Y358216D01*
X506380Y358319D01*
X506222Y358500D01*
X506172Y358567D01*
X504433Y360306D01*
X502499Y364974D01*
X502499Y380026D01*
X502601Y380271D01*
X502629Y380367D01*
X502667Y380459D01*
X502685Y380553D01*
X502712Y380645D01*
X502721Y380744D01*
X502739Y380842D01*
X502737Y380938D01*
X502745Y381033D01*
X502734Y381132D01*
X502732Y381232D01*
X502713Y381302D01*
X502699Y381420D01*
X502622Y381648D01*
X502601Y381729D01*
X502499Y381974D01*
X502499Y387974D01*
X502496Y388008D01*
X502498Y388041D01*
X502476Y388201D01*
X502459Y388362D01*
X502449Y388394D01*
X502445Y388427D01*
X502390Y388579D01*
X502341Y388734D01*
X502325Y388763D01*
X502314Y388794D01*
X502230Y388932D01*
X502150Y389073D01*
X502128Y389098D01*
X502111Y389127D01*
X502000Y389245D01*
X501894Y389367D01*
X501867Y389387D01*
X501845Y389411D01*
X501712Y389505D01*
X501583Y389602D01*
X501553Y389617D01*
X501526Y389636D01*
X501377Y389700D01*
X501231Y389769D01*
X501199Y389777D01*
X501168Y389790D01*
X501009Y389823D01*
X500852Y389861D01*
X500819Y389862D01*
X500786Y389869D01*
X500624Y389869D01*
X500462Y389874D01*
X500430Y389868D01*
X500396Y389868D01*
X500238Y389835D01*
X500078Y389807D01*
X500048Y389795D01*
X500015Y389788D01*
X499866Y389723D01*
X499716Y389664D01*
X499688Y389645D01*
X499658Y389632D01*
X499591Y389582D01*
X499391Y389449D01*
X499307Y389365D01*
X499249Y389321D01*
X420928Y311001D01*
X420866Y310924D01*
X420795Y310853D01*
X420743Y310773D01*
X420683Y310698D01*
X420637Y310610D01*
X420582Y310527D01*
X420547Y310437D01*
X420503Y310352D01*
X420476Y310256D01*
X420440Y310164D01*
X420430Y310091D01*
X420398Y309977D01*
X420382Y309737D01*
X420371Y309654D01*
X420371Y288606D01*
X420374Y288573D01*
X420372Y288539D01*
X420394Y288379D01*
X420411Y288218D01*
X420421Y288186D01*
X420425Y288153D01*
X420480Y288001D01*
X420529Y287847D01*
X420545Y287818D01*
X420556Y287786D01*
X420640Y287648D01*
X420720Y287507D01*
X420742Y287482D01*
X420759Y287453D01*
X420870Y287335D01*
X420976Y287213D01*
X421003Y287193D01*
X421026Y287169D01*
X421158Y287075D01*
X421287Y286978D01*
X421317Y286964D01*
X421344Y286944D01*
X421493Y286880D01*
X421639Y286811D01*
X421671Y286803D01*
X421702Y286790D01*
X421861Y286757D01*
X422018Y286719D01*
X422051Y286718D01*
X422084Y286711D01*
X422246Y286712D01*
X422408Y286706D01*
X422440Y286712D01*
X422474Y286712D01*
X422632Y286745D01*
X422792Y286773D01*
X422823Y286785D01*
X422855Y286792D01*
X423004Y286857D01*
X423154Y286917D01*
X423182Y286935D01*
X423212Y286948D01*
X423279Y286999D01*
X423312Y287021D01*
X440217Y287021D01*
X443153Y284084D01*
X443205Y284042D01*
X443250Y283994D01*
X443356Y283920D01*
X443456Y283838D01*
X443515Y283808D01*
X443569Y283770D01*
X443687Y283718D01*
X443802Y283659D01*
X443866Y283641D01*
X443927Y283615D01*
X444053Y283589D01*
X444177Y283554D01*
X444244Y283550D01*
X444309Y283536D01*
X444438Y283536D01*
X444566Y283528D01*
X444632Y283537D01*
X444699Y283537D01*
X444825Y283564D01*
X444952Y283581D01*
X445015Y283603D01*
X445080Y283617D01*
X445198Y283669D01*
X445320Y283712D01*
X445376Y283747D01*
X445437Y283773D01*
X445507Y283826D01*
X445652Y283915D01*
X445777Y284031D01*
X445846Y284084D01*
X448783Y287021D01*
X465617Y287021D01*
X468599Y284039D01*
X468650Y283997D01*
X468696Y283949D01*
X468801Y283874D01*
X468901Y283793D01*
X468960Y283763D01*
X469014Y283724D01*
X469133Y283673D01*
X469247Y283614D01*
X469311Y283596D01*
X469372Y283570D01*
X469498Y283544D01*
X469623Y283509D01*
X469689Y283505D01*
X469754Y283491D01*
X469883Y283491D01*
X470011Y283483D01*
X470077Y283492D01*
G37*
G36*
X712011Y72398D02*
X712011Y72398D01*
X712078Y72395D01*
X712205Y72417D01*
X712333Y72431D01*
X712396Y72451D01*
X712462Y72462D01*
X712581Y72510D01*
X712704Y72549D01*
X712762Y72581D01*
X712824Y72606D01*
X712931Y72677D01*
X713044Y72740D01*
X713094Y72784D01*
X713150Y72820D01*
X713241Y72911D01*
X713338Y72996D01*
X713378Y73049D01*
X713425Y73096D01*
X713495Y73204D01*
X713573Y73307D01*
X713601Y73367D01*
X713638Y73423D01*
X713685Y73543D01*
X713740Y73659D01*
X713756Y73724D01*
X713780Y73786D01*
X713792Y73872D01*
X713832Y74038D01*
X713837Y74208D01*
X713849Y74295D01*
X713849Y80725D01*
X716933Y88171D01*
X716945Y88209D01*
X716957Y88235D01*
X716969Y88283D01*
X717000Y88359D01*
X717018Y88453D01*
X717045Y88545D01*
X717053Y88644D01*
X717072Y88742D01*
X717070Y88838D01*
X717078Y88933D01*
X717066Y89032D01*
X717064Y89132D01*
X717046Y89202D01*
X717031Y89320D01*
X716955Y89548D01*
X716933Y89629D01*
X713849Y97075D01*
X713849Y106125D01*
X715266Y109546D01*
X715294Y109641D01*
X715332Y109733D01*
X715350Y109828D01*
X715378Y109919D01*
X715386Y110018D01*
X715404Y110116D01*
X715403Y110212D01*
X715411Y110308D01*
X715399Y110407D01*
X715397Y110506D01*
X715378Y110577D01*
X715364Y110695D01*
X715287Y110923D01*
X715266Y111003D01*
X713849Y114424D01*
X713849Y139576D01*
X715783Y144244D01*
X719356Y147817D01*
X721454Y148686D01*
X721527Y148726D01*
X721604Y148756D01*
X721698Y148818D01*
X721797Y148871D01*
X721860Y148925D01*
X721930Y148971D01*
X722009Y149050D01*
X722095Y149123D01*
X722146Y149188D01*
X722205Y149247D01*
X722266Y149341D01*
X722335Y149429D01*
X722372Y149504D01*
X722418Y149573D01*
X722459Y149678D01*
X722509Y149778D01*
X722530Y149859D01*
X722560Y149936D01*
X722571Y150017D01*
X722607Y150156D01*
X722617Y150357D01*
X722629Y150446D01*
X722629Y157695D01*
X722622Y157761D01*
X722625Y157828D01*
X722603Y157955D01*
X722589Y158083D01*
X722569Y158146D01*
X722558Y158212D01*
X722510Y158331D01*
X722471Y158454D01*
X722439Y158512D01*
X722414Y158574D01*
X722343Y158681D01*
X722280Y158794D01*
X722236Y158844D01*
X722200Y158900D01*
X722109Y158991D01*
X722024Y159088D01*
X721971Y159128D01*
X721924Y159175D01*
X721816Y159245D01*
X721713Y159323D01*
X721653Y159351D01*
X721597Y159388D01*
X721477Y159435D01*
X721361Y159490D01*
X721296Y159506D01*
X721234Y159530D01*
X721148Y159542D01*
X720982Y159582D01*
X720812Y159587D01*
X720725Y159599D01*
X712174Y159599D01*
X711929Y159701D01*
X711833Y159729D01*
X711741Y159767D01*
X711647Y159785D01*
X711555Y159812D01*
X711456Y159821D01*
X711358Y159839D01*
X711262Y159837D01*
X711167Y159845D01*
X711068Y159834D01*
X710968Y159832D01*
X710898Y159813D01*
X710780Y159799D01*
X710552Y159722D01*
X710471Y159701D01*
X710226Y159599D01*
X704656Y159599D01*
X704557Y159589D01*
X704457Y159589D01*
X704363Y159569D01*
X704268Y159559D01*
X704173Y159529D01*
X704076Y159509D01*
X703988Y159470D01*
X703896Y159441D01*
X703810Y159392D01*
X703718Y159353D01*
X703660Y159308D01*
X703557Y159250D01*
X703375Y159092D01*
X703309Y159042D01*
X619909Y75641D01*
X619888Y75616D01*
X619863Y75594D01*
X619765Y75465D01*
X619663Y75339D01*
X619648Y75310D01*
X619628Y75283D01*
X619558Y75137D01*
X619484Y74993D01*
X619475Y74961D01*
X619461Y74931D01*
X619422Y74774D01*
X619379Y74618D01*
X619377Y74584D01*
X619369Y74552D01*
X619363Y74390D01*
X619352Y74229D01*
X619357Y74196D01*
X619356Y74162D01*
X619384Y74003D01*
X619406Y73843D01*
X619417Y73811D01*
X619423Y73778D01*
X619482Y73628D01*
X619537Y73475D01*
X619554Y73447D01*
X619566Y73416D01*
X619655Y73281D01*
X619740Y73143D01*
X619762Y73118D01*
X619781Y73090D01*
X619895Y72976D01*
X620006Y72858D01*
X620033Y72839D01*
X620057Y72815D01*
X620192Y72727D01*
X620325Y72634D01*
X620355Y72621D01*
X620383Y72602D01*
X620534Y72543D01*
X620683Y72479D01*
X620715Y72472D01*
X620746Y72460D01*
X620829Y72449D01*
X621064Y72400D01*
X621183Y72401D01*
X621256Y72391D01*
X711945Y72391D01*
X712011Y72398D01*
G37*
G36*
X510413Y243851D02*
X510413Y243851D01*
X510513Y243851D01*
X510607Y243871D01*
X510702Y243881D01*
X510797Y243911D01*
X510894Y243931D01*
X510982Y243970D01*
X511074Y243999D01*
X511160Y244048D01*
X511252Y244087D01*
X511310Y244132D01*
X511413Y244190D01*
X511595Y244348D01*
X511661Y244398D01*
X596861Y329599D01*
X596882Y329624D01*
X596907Y329646D01*
X597005Y329775D01*
X597107Y329901D01*
X597122Y329930D01*
X597142Y329957D01*
X597212Y330103D01*
X597286Y330247D01*
X597295Y330279D01*
X597309Y330309D01*
X597348Y330466D01*
X597391Y330622D01*
X597393Y330656D01*
X597401Y330688D01*
X597407Y330850D01*
X597418Y331011D01*
X597413Y331044D01*
X597414Y331078D01*
X597386Y331237D01*
X597364Y331397D01*
X597353Y331429D01*
X597347Y331462D01*
X597288Y331612D01*
X597233Y331765D01*
X597216Y331793D01*
X597204Y331824D01*
X597115Y331959D01*
X597030Y332097D01*
X597008Y332122D01*
X596989Y332150D01*
X596875Y332264D01*
X596764Y332382D01*
X596737Y332401D01*
X596713Y332425D01*
X596578Y332513D01*
X596445Y332606D01*
X596415Y332619D01*
X596387Y332638D01*
X596236Y332697D01*
X596087Y332761D01*
X596055Y332768D01*
X596024Y332780D01*
X595941Y332791D01*
X595706Y332840D01*
X595587Y332839D01*
X595514Y332849D01*
X592375Y332849D01*
X588954Y334266D01*
X588859Y334294D01*
X588767Y334332D01*
X588672Y334350D01*
X588581Y334378D01*
X588482Y334386D01*
X588384Y334404D01*
X588288Y334403D01*
X588192Y334411D01*
X588093Y334399D01*
X587994Y334397D01*
X587923Y334378D01*
X587805Y334364D01*
X587577Y334287D01*
X587497Y334266D01*
X584076Y332849D01*
X558924Y332849D01*
X554256Y334783D01*
X550683Y338356D01*
X549814Y340454D01*
X549774Y340527D01*
X549744Y340604D01*
X549682Y340698D01*
X549629Y340797D01*
X549575Y340860D01*
X549529Y340930D01*
X549450Y341009D01*
X549377Y341095D01*
X549312Y341146D01*
X549253Y341205D01*
X549159Y341266D01*
X549071Y341335D01*
X548996Y341372D01*
X548927Y341418D01*
X548822Y341459D01*
X548722Y341509D01*
X548641Y341530D01*
X548564Y341560D01*
X548483Y341571D01*
X548344Y341607D01*
X548143Y341617D01*
X548054Y341629D01*
X540805Y341629D01*
X540739Y341622D01*
X540672Y341625D01*
X540545Y341603D01*
X540417Y341589D01*
X540354Y341569D01*
X540288Y341558D01*
X540169Y341510D01*
X540046Y341471D01*
X539988Y341439D01*
X539926Y341414D01*
X539819Y341343D01*
X539706Y341280D01*
X539656Y341236D01*
X539600Y341200D01*
X539509Y341109D01*
X539412Y341024D01*
X539372Y340971D01*
X539325Y340924D01*
X539255Y340816D01*
X539177Y340713D01*
X539149Y340653D01*
X539112Y340597D01*
X539065Y340477D01*
X539010Y340361D01*
X538994Y340296D01*
X538970Y340234D01*
X538958Y340148D01*
X538918Y339982D01*
X538913Y339812D01*
X538901Y339725D01*
X538901Y331174D01*
X538799Y330929D01*
X538771Y330833D01*
X538733Y330741D01*
X538715Y330647D01*
X538688Y330555D01*
X538679Y330456D01*
X538661Y330358D01*
X538663Y330262D01*
X538655Y330167D01*
X538667Y330068D01*
X538668Y329968D01*
X538687Y329898D01*
X538701Y329780D01*
X538778Y329552D01*
X538799Y329471D01*
X538901Y329226D01*
X538901Y314174D01*
X536967Y309506D01*
X533394Y305933D01*
X532560Y305587D01*
X532458Y305532D01*
X532351Y305485D01*
X532301Y305448D01*
X532217Y305402D01*
X531991Y305212D01*
X531942Y305174D01*
X478078Y251311D01*
X478016Y251234D01*
X477945Y251163D01*
X477893Y251083D01*
X477833Y251008D01*
X477787Y250920D01*
X477732Y250837D01*
X477697Y250747D01*
X477653Y250662D01*
X477626Y250566D01*
X477590Y250474D01*
X477580Y250401D01*
X477548Y250287D01*
X477532Y250047D01*
X477521Y249964D01*
X477521Y245745D01*
X477528Y245679D01*
X477525Y245612D01*
X477547Y245485D01*
X477561Y245357D01*
X477581Y245294D01*
X477592Y245228D01*
X477640Y245109D01*
X477679Y244986D01*
X477711Y244928D01*
X477736Y244866D01*
X477807Y244759D01*
X477870Y244646D01*
X477914Y244596D01*
X477950Y244540D01*
X478041Y244449D01*
X478126Y244352D01*
X478179Y244312D01*
X478226Y244265D01*
X478334Y244195D01*
X478437Y244117D01*
X478497Y244089D01*
X478553Y244052D01*
X478673Y244005D01*
X478789Y243950D01*
X478854Y243934D01*
X478916Y243910D01*
X479002Y243898D01*
X479168Y243858D01*
X479338Y243853D01*
X479425Y243841D01*
X510314Y243841D01*
X510413Y243851D01*
G37*
G36*
X597616Y93531D02*
X597616Y93531D01*
X597683Y93531D01*
X597809Y93557D01*
X597936Y93575D01*
X597999Y93597D01*
X598064Y93611D01*
X598182Y93662D01*
X598303Y93706D01*
X598360Y93740D01*
X598421Y93767D01*
X598491Y93820D01*
X598636Y93909D01*
X598761Y94025D01*
X598830Y94078D01*
X684442Y179689D01*
X684504Y179766D01*
X684575Y179837D01*
X684627Y179917D01*
X684687Y179991D01*
X684733Y180080D01*
X684788Y180163D01*
X684823Y180253D01*
X684867Y180338D01*
X684894Y180433D01*
X684930Y180526D01*
X684940Y180599D01*
X684972Y180713D01*
X684988Y180953D01*
X684999Y181036D01*
X684999Y185826D01*
X686933Y190494D01*
X690506Y194067D01*
X695174Y196001D01*
X710226Y196001D01*
X710471Y195899D01*
X710567Y195871D01*
X710659Y195833D01*
X710753Y195815D01*
X710845Y195788D01*
X710944Y195779D01*
X711042Y195761D01*
X711138Y195763D01*
X711233Y195755D01*
X711332Y195766D01*
X711432Y195768D01*
X711502Y195787D01*
X711620Y195801D01*
X711848Y195878D01*
X711929Y195899D01*
X712174Y196001D01*
X727226Y196001D01*
X731894Y194067D01*
X733633Y192328D01*
X733710Y192266D01*
X733781Y192195D01*
X733861Y192143D01*
X733935Y192083D01*
X734024Y192037D01*
X734107Y191982D01*
X734197Y191947D01*
X734282Y191903D01*
X734377Y191876D01*
X734470Y191840D01*
X734543Y191830D01*
X734657Y191798D01*
X734897Y191782D01*
X734980Y191771D01*
X738220Y191771D01*
X738319Y191781D01*
X738419Y191781D01*
X738513Y191801D01*
X738608Y191811D01*
X738703Y191841D01*
X738800Y191861D01*
X738888Y191900D01*
X738980Y191929D01*
X739066Y191978D01*
X739158Y192017D01*
X739216Y192062D01*
X739319Y192120D01*
X739501Y192278D01*
X739567Y192328D01*
X741306Y194067D01*
X745974Y196001D01*
X753110Y196001D01*
X753176Y196008D01*
X753243Y196005D01*
X753370Y196027D01*
X753498Y196041D01*
X753561Y196061D01*
X753627Y196072D01*
X753746Y196120D01*
X753869Y196159D01*
X753927Y196191D01*
X753989Y196216D01*
X754096Y196287D01*
X754209Y196350D01*
X754259Y196394D01*
X754315Y196430D01*
X754406Y196521D01*
X754503Y196606D01*
X754543Y196659D01*
X754590Y196706D01*
X754660Y196814D01*
X754738Y196917D01*
X754766Y196977D01*
X754803Y197033D01*
X754850Y197153D01*
X754905Y197269D01*
X754921Y197334D01*
X754945Y197396D01*
X754957Y197482D01*
X754997Y197648D01*
X755002Y197818D01*
X755014Y197905D01*
X755014Y214141D01*
X755004Y214240D01*
X755004Y214340D01*
X754984Y214434D01*
X754974Y214529D01*
X754944Y214624D01*
X754924Y214721D01*
X754885Y214809D01*
X754856Y214901D01*
X754807Y214987D01*
X754768Y215079D01*
X754723Y215137D01*
X754665Y215240D01*
X754507Y215422D01*
X754457Y215488D01*
X739253Y230692D01*
X739176Y230754D01*
X739105Y230825D01*
X739025Y230877D01*
X738950Y230937D01*
X738862Y230983D01*
X738779Y231038D01*
X738689Y231073D01*
X738604Y231117D01*
X738508Y231144D01*
X738416Y231180D01*
X738343Y231190D01*
X738229Y231222D01*
X737989Y231238D01*
X737906Y231249D01*
X732075Y231249D01*
X723713Y234713D01*
X719531Y238894D01*
X719506Y238915D01*
X719484Y238940D01*
X719355Y239038D01*
X719229Y239140D01*
X719200Y239155D01*
X719173Y239176D01*
X719027Y239245D01*
X718883Y239319D01*
X718851Y239328D01*
X718821Y239343D01*
X718664Y239381D01*
X718508Y239424D01*
X718474Y239427D01*
X718442Y239434D01*
X718280Y239440D01*
X718119Y239451D01*
X718086Y239446D01*
X718052Y239447D01*
X717893Y239420D01*
X717733Y239397D01*
X717701Y239386D01*
X717668Y239380D01*
X717518Y239321D01*
X717365Y239266D01*
X717337Y239249D01*
X717306Y239237D01*
X717171Y239148D01*
X717033Y239064D01*
X717008Y239041D01*
X716980Y239023D01*
X716866Y238908D01*
X716748Y238797D01*
X716729Y238770D01*
X716705Y238746D01*
X716617Y238611D01*
X716524Y238478D01*
X716511Y238448D01*
X716492Y238420D01*
X716433Y238269D01*
X716369Y238121D01*
X716362Y238088D01*
X716350Y238057D01*
X716339Y237975D01*
X716290Y237739D01*
X716291Y237620D01*
X716281Y237548D01*
X716281Y234711D01*
X714154Y229576D01*
X585111Y100533D01*
X585090Y100508D01*
X585065Y100486D01*
X584967Y100357D01*
X584865Y100231D01*
X584850Y100202D01*
X584830Y100175D01*
X584760Y100029D01*
X584686Y99885D01*
X584677Y99853D01*
X584663Y99823D01*
X584624Y99666D01*
X584581Y99510D01*
X584579Y99476D01*
X584571Y99444D01*
X584565Y99282D01*
X584554Y99121D01*
X584559Y99088D01*
X584558Y99054D01*
X584586Y98895D01*
X584608Y98735D01*
X584619Y98703D01*
X584625Y98670D01*
X584684Y98520D01*
X584739Y98367D01*
X584756Y98339D01*
X584768Y98308D01*
X584857Y98173D01*
X584942Y98035D01*
X584964Y98010D01*
X584983Y97982D01*
X585097Y97868D01*
X585208Y97750D01*
X585235Y97731D01*
X585259Y97707D01*
X585394Y97619D01*
X585527Y97526D01*
X585557Y97513D01*
X585585Y97494D01*
X585736Y97435D01*
X585885Y97371D01*
X585917Y97364D01*
X585948Y97352D01*
X586031Y97341D01*
X586266Y97292D01*
X586385Y97293D01*
X586458Y97283D01*
X588394Y97283D01*
X596145Y94072D01*
X596189Y94036D01*
X596234Y93988D01*
X596340Y93913D01*
X596440Y93832D01*
X596499Y93802D01*
X596553Y93763D01*
X596671Y93712D01*
X596786Y93653D01*
X596850Y93635D01*
X596911Y93609D01*
X597037Y93583D01*
X597161Y93548D01*
X597228Y93543D01*
X597293Y93530D01*
X597422Y93530D01*
X597550Y93521D01*
X597616Y93531D01*
G37*
G36*
X520832Y93928D02*
X520832Y93928D01*
X520932Y93930D01*
X521002Y93949D01*
X521120Y93963D01*
X521348Y94040D01*
X521429Y94061D01*
X524009Y95130D01*
X524053Y95154D01*
X524100Y95170D01*
X524224Y95246D01*
X524352Y95315D01*
X524390Y95347D01*
X524433Y95373D01*
X524539Y95472D01*
X524650Y95566D01*
X524681Y95606D01*
X524717Y95640D01*
X524801Y95759D01*
X524891Y95873D01*
X524913Y95918D01*
X524942Y95958D01*
X524999Y96092D01*
X525064Y96222D01*
X525076Y96270D01*
X525096Y96316D01*
X525126Y96459D01*
X525162Y96599D01*
X525165Y96649D01*
X525175Y96698D01*
X525175Y96843D01*
X525182Y96989D01*
X525174Y97038D01*
X525174Y97088D01*
X525144Y97230D01*
X525122Y97374D01*
X525104Y97420D01*
X525094Y97469D01*
X525036Y97603D01*
X524985Y97739D01*
X524958Y97781D01*
X524938Y97826D01*
X524884Y97898D01*
X524776Y98068D01*
X524676Y98171D01*
X524627Y98236D01*
X491053Y131809D01*
X490989Y131862D01*
X490931Y131921D01*
X490838Y131984D01*
X490751Y132055D01*
X490677Y132093D01*
X490608Y132140D01*
X490504Y132183D01*
X490405Y132234D01*
X490325Y132257D01*
X490248Y132288D01*
X490137Y132309D01*
X490029Y132339D01*
X489946Y132345D01*
X489865Y132360D01*
X489753Y132358D01*
X489640Y132366D01*
X489558Y132354D01*
X489475Y132353D01*
X489396Y132332D01*
X489254Y132312D01*
X489064Y132245D01*
X488978Y132222D01*
X486794Y131317D01*
X478406Y131317D01*
X470629Y134539D01*
X470534Y134567D01*
X470441Y134605D01*
X470347Y134623D01*
X470255Y134650D01*
X470156Y134659D01*
X470058Y134677D01*
X469962Y134675D01*
X469867Y134684D01*
X469768Y134672D01*
X469668Y134670D01*
X469598Y134651D01*
X469480Y134637D01*
X469252Y134560D01*
X469171Y134539D01*
X461394Y131317D01*
X453006Y131317D01*
X445229Y134539D01*
X445134Y134567D01*
X445041Y134605D01*
X444947Y134623D01*
X444855Y134650D01*
X444756Y134659D01*
X444658Y134677D01*
X444562Y134675D01*
X444467Y134684D01*
X444368Y134672D01*
X444268Y134670D01*
X444198Y134651D01*
X444080Y134637D01*
X443852Y134560D01*
X443771Y134539D01*
X435994Y131317D01*
X427606Y131317D01*
X419829Y134539D01*
X419734Y134567D01*
X419641Y134605D01*
X419547Y134623D01*
X419455Y134650D01*
X419356Y134659D01*
X419258Y134677D01*
X419162Y134675D01*
X419067Y134684D01*
X418968Y134672D01*
X418868Y134670D01*
X418798Y134651D01*
X418680Y134637D01*
X418452Y134560D01*
X418371Y134539D01*
X410594Y131317D01*
X402206Y131317D01*
X394429Y134539D01*
X394334Y134567D01*
X394241Y134605D01*
X394147Y134623D01*
X394055Y134650D01*
X393956Y134659D01*
X393858Y134677D01*
X393762Y134675D01*
X393667Y134684D01*
X393568Y134672D01*
X393468Y134670D01*
X393398Y134651D01*
X393280Y134637D01*
X393052Y134560D01*
X392971Y134539D01*
X385194Y131317D01*
X383258Y131317D01*
X383224Y131314D01*
X383191Y131316D01*
X383031Y131294D01*
X382870Y131277D01*
X382838Y131267D01*
X382805Y131263D01*
X382653Y131208D01*
X382498Y131159D01*
X382469Y131143D01*
X382438Y131132D01*
X382300Y131048D01*
X382159Y130968D01*
X382134Y130946D01*
X382105Y130929D01*
X381987Y130818D01*
X381865Y130712D01*
X381845Y130685D01*
X381821Y130663D01*
X381727Y130530D01*
X381630Y130401D01*
X381615Y130371D01*
X381596Y130344D01*
X381532Y130195D01*
X381463Y130049D01*
X381455Y130017D01*
X381442Y129986D01*
X381409Y129827D01*
X381371Y129670D01*
X381370Y129637D01*
X381363Y129604D01*
X381363Y129442D01*
X381358Y129280D01*
X381364Y129248D01*
X381364Y129214D01*
X381397Y129056D01*
X381425Y128896D01*
X381437Y128866D01*
X381444Y128833D01*
X381509Y128684D01*
X381568Y128534D01*
X381587Y128506D01*
X381600Y128476D01*
X381650Y128409D01*
X381783Y128209D01*
X381867Y128125D01*
X381911Y128067D01*
X406549Y103428D01*
X406626Y103366D01*
X406697Y103295D01*
X406777Y103243D01*
X406852Y103183D01*
X406940Y103137D01*
X407023Y103082D01*
X407113Y103047D01*
X407198Y103003D01*
X407294Y102976D01*
X407386Y102940D01*
X407459Y102930D01*
X407573Y102898D01*
X407813Y102882D01*
X407896Y102871D01*
X447279Y102871D01*
X452414Y100744D01*
X455317Y97840D01*
X455394Y97778D01*
X455465Y97707D01*
X455545Y97655D01*
X455619Y97595D01*
X455708Y97549D01*
X455791Y97494D01*
X455880Y97459D01*
X455966Y97415D01*
X456062Y97388D01*
X456154Y97352D01*
X456227Y97342D01*
X456341Y97310D01*
X456581Y97294D01*
X456664Y97283D01*
X461394Y97283D01*
X469171Y94061D01*
X469266Y94033D01*
X469359Y93995D01*
X469453Y93977D01*
X469545Y93950D01*
X469644Y93941D01*
X469742Y93923D01*
X469838Y93925D01*
X469933Y93916D01*
X470032Y93928D01*
X470132Y93930D01*
X470202Y93949D01*
X470320Y93963D01*
X470548Y94040D01*
X470629Y94061D01*
X478406Y97283D01*
X486794Y97283D01*
X494571Y94061D01*
X494666Y94033D01*
X494759Y93995D01*
X494853Y93977D01*
X494945Y93950D01*
X495044Y93941D01*
X495142Y93923D01*
X495238Y93925D01*
X495333Y93916D01*
X495432Y93928D01*
X495532Y93930D01*
X495602Y93949D01*
X495720Y93963D01*
X495948Y94040D01*
X496029Y94061D01*
X503806Y97283D01*
X512194Y97283D01*
X519971Y94061D01*
X520067Y94033D01*
X520159Y93995D01*
X520253Y93977D01*
X520345Y93950D01*
X520444Y93941D01*
X520542Y93923D01*
X520638Y93925D01*
X520733Y93916D01*
X520832Y93928D01*
G37*
G36*
X652310Y367530D02*
X652310Y367530D01*
X652344Y367530D01*
X652502Y367563D01*
X652662Y367591D01*
X652692Y367603D01*
X652725Y367610D01*
X652874Y367675D01*
X653024Y367734D01*
X653052Y367753D01*
X653082Y367766D01*
X653149Y367816D01*
X653349Y367949D01*
X653433Y368033D01*
X653491Y368077D01*
X665530Y380116D01*
X669906Y384492D01*
X675275Y386716D01*
X742950Y386716D01*
X743016Y386723D01*
X743083Y386720D01*
X743210Y386742D01*
X743338Y386756D01*
X743401Y386776D01*
X743467Y386787D01*
X743586Y386835D01*
X743709Y386874D01*
X743767Y386906D01*
X743829Y386931D01*
X743936Y387002D01*
X744049Y387065D01*
X744099Y387109D01*
X744155Y387145D01*
X744246Y387236D01*
X744343Y387321D01*
X744383Y387374D01*
X744430Y387421D01*
X744500Y387529D01*
X744578Y387632D01*
X744606Y387692D01*
X744643Y387748D01*
X744690Y387868D01*
X744745Y387984D01*
X744761Y388049D01*
X744785Y388111D01*
X744797Y388197D01*
X744837Y388363D01*
X744842Y388533D01*
X744854Y388620D01*
X744854Y407887D01*
X744846Y407970D01*
X744847Y408053D01*
X744826Y408163D01*
X744814Y408275D01*
X744789Y408354D01*
X744774Y408436D01*
X744730Y408539D01*
X744696Y408647D01*
X744656Y408719D01*
X744624Y408796D01*
X744560Y408888D01*
X744505Y408986D01*
X744450Y409049D01*
X744404Y409117D01*
X744323Y409195D01*
X744249Y409280D01*
X744183Y409330D01*
X744123Y409388D01*
X744052Y409429D01*
X743938Y409515D01*
X743756Y409602D01*
X743679Y409647D01*
X740849Y410819D01*
X740769Y410843D01*
X740693Y410876D01*
X740583Y410898D01*
X740475Y410930D01*
X740393Y410937D01*
X740311Y410954D01*
X740199Y410954D01*
X740087Y410963D01*
X740005Y410954D01*
X739922Y410953D01*
X739811Y410930D01*
X739700Y410917D01*
X739621Y410890D01*
X739540Y410873D01*
X739437Y410828D01*
X739331Y410792D01*
X739259Y410750D01*
X739183Y410717D01*
X739118Y410668D01*
X738994Y410595D01*
X738845Y410460D01*
X738774Y410406D01*
X729274Y400906D01*
X724139Y398779D01*
X652145Y398779D01*
X652079Y398772D01*
X652012Y398775D01*
X651885Y398753D01*
X651757Y398739D01*
X651694Y398719D01*
X651628Y398708D01*
X651509Y398660D01*
X651386Y398621D01*
X651328Y398589D01*
X651266Y398564D01*
X651159Y398493D01*
X651046Y398430D01*
X650996Y398386D01*
X650940Y398350D01*
X650849Y398259D01*
X650752Y398174D01*
X650712Y398121D01*
X650665Y398074D01*
X650595Y397966D01*
X650517Y397863D01*
X650489Y397803D01*
X650452Y397747D01*
X650405Y397627D01*
X650350Y397511D01*
X650334Y397446D01*
X650310Y397384D01*
X650298Y397297D01*
X650258Y397132D01*
X650253Y396962D01*
X650241Y396875D01*
X650241Y369424D01*
X650244Y369390D01*
X650242Y369357D01*
X650264Y369197D01*
X650281Y369036D01*
X650291Y369004D01*
X650295Y368971D01*
X650350Y368819D01*
X650399Y368664D01*
X650415Y368635D01*
X650426Y368604D01*
X650510Y368466D01*
X650590Y368325D01*
X650612Y368300D01*
X650629Y368271D01*
X650740Y368153D01*
X650846Y368031D01*
X650873Y368011D01*
X650895Y367987D01*
X651028Y367893D01*
X651157Y367796D01*
X651187Y367781D01*
X651214Y367762D01*
X651363Y367698D01*
X651509Y367629D01*
X651541Y367621D01*
X651572Y367608D01*
X651731Y367575D01*
X651888Y367537D01*
X651921Y367536D01*
X651954Y367529D01*
X652116Y367529D01*
X652278Y367524D01*
X652310Y367530D01*
G37*
G36*
X139832Y283537D02*
X139832Y283537D01*
X139899Y283537D01*
X140025Y283564D01*
X140152Y283581D01*
X140215Y283603D01*
X140280Y283617D01*
X140398Y283669D01*
X140520Y283712D01*
X140576Y283747D01*
X140637Y283773D01*
X140707Y283826D01*
X140852Y283915D01*
X140977Y284031D01*
X141047Y284084D01*
X143983Y287021D01*
X152174Y287021D01*
X152273Y287031D01*
X152373Y287031D01*
X152467Y287051D01*
X152562Y287061D01*
X152657Y287091D01*
X152754Y287111D01*
X152842Y287150D01*
X152934Y287179D01*
X153020Y287228D01*
X153112Y287267D01*
X153170Y287312D01*
X153273Y287370D01*
X153455Y287528D01*
X153521Y287578D01*
X177506Y311564D01*
X182641Y313691D01*
X183095Y313691D01*
X183161Y313698D01*
X183228Y313695D01*
X183355Y313717D01*
X183483Y313731D01*
X183546Y313751D01*
X183612Y313762D01*
X183731Y313810D01*
X183854Y313849D01*
X183912Y313881D01*
X183974Y313906D01*
X184081Y313977D01*
X184194Y314040D01*
X184244Y314084D01*
X184300Y314120D01*
X184391Y314211D01*
X184488Y314296D01*
X184528Y314349D01*
X184575Y314396D01*
X184645Y314504D01*
X184723Y314607D01*
X184751Y314667D01*
X184788Y314723D01*
X184835Y314843D01*
X184890Y314959D01*
X184906Y315024D01*
X184930Y315086D01*
X184942Y315172D01*
X184982Y315338D01*
X184987Y315508D01*
X184999Y315595D01*
X184999Y316526D01*
X185101Y316771D01*
X185129Y316867D01*
X185167Y316959D01*
X185185Y317053D01*
X185212Y317145D01*
X185221Y317244D01*
X185239Y317342D01*
X185237Y317438D01*
X185245Y317533D01*
X185234Y317632D01*
X185232Y317732D01*
X185213Y317802D01*
X185199Y317920D01*
X185122Y318148D01*
X185101Y318229D01*
X184999Y318474D01*
X184999Y333736D01*
X184996Y333770D01*
X184998Y333803D01*
X184976Y333963D01*
X184959Y334124D01*
X184949Y334156D01*
X184945Y334189D01*
X184890Y334341D01*
X184841Y334496D01*
X184825Y334525D01*
X184814Y334556D01*
X184730Y334694D01*
X184650Y334835D01*
X184628Y334860D01*
X184611Y334889D01*
X184500Y335007D01*
X184394Y335129D01*
X184367Y335149D01*
X184345Y335173D01*
X184212Y335267D01*
X184083Y335364D01*
X184053Y335379D01*
X184026Y335398D01*
X183877Y335462D01*
X183731Y335531D01*
X183699Y335539D01*
X183668Y335552D01*
X183509Y335585D01*
X183352Y335623D01*
X183319Y335624D01*
X183286Y335631D01*
X183124Y335631D01*
X182962Y335636D01*
X182930Y335630D01*
X182896Y335630D01*
X182738Y335597D01*
X182578Y335569D01*
X182548Y335557D01*
X182515Y335550D01*
X182366Y335485D01*
X182216Y335426D01*
X182188Y335407D01*
X182158Y335394D01*
X182091Y335344D01*
X181891Y335211D01*
X181807Y335127D01*
X181749Y335083D01*
X135898Y289233D01*
X135856Y289181D01*
X135808Y289136D01*
X135733Y289030D01*
X135652Y288930D01*
X135622Y288871D01*
X135583Y288817D01*
X135532Y288699D01*
X135473Y288584D01*
X135455Y288520D01*
X135429Y288459D01*
X135403Y288333D01*
X135368Y288209D01*
X135364Y288142D01*
X135350Y288077D01*
X135350Y287948D01*
X135342Y287820D01*
X135351Y287754D01*
X135351Y287687D01*
X135377Y287561D01*
X135395Y287434D01*
X135417Y287371D01*
X135431Y287306D01*
X135483Y287188D01*
X135526Y287067D01*
X135560Y287010D01*
X135587Y286949D01*
X135640Y286879D01*
X135729Y286734D01*
X135845Y286609D01*
X135898Y286540D01*
X138354Y284084D01*
X138405Y284042D01*
X138450Y283994D01*
X138556Y283920D01*
X138656Y283838D01*
X138715Y283808D01*
X138769Y283770D01*
X138888Y283718D01*
X139002Y283659D01*
X139066Y283641D01*
X139127Y283615D01*
X139253Y283589D01*
X139377Y283554D01*
X139444Y283550D01*
X139509Y283536D01*
X139638Y283536D01*
X139766Y283528D01*
X139832Y283537D01*
G37*
G36*
X342364Y178667D02*
X342364Y178667D01*
X342398Y178666D01*
X342557Y178694D01*
X342717Y178716D01*
X342749Y178727D01*
X342782Y178733D01*
X342932Y178792D01*
X343085Y178847D01*
X343113Y178864D01*
X343144Y178876D01*
X343279Y178965D01*
X343417Y179050D01*
X343442Y179072D01*
X343470Y179091D01*
X343584Y179205D01*
X343702Y179316D01*
X343721Y179343D01*
X343745Y179367D01*
X343833Y179502D01*
X343926Y179635D01*
X343939Y179665D01*
X343958Y179693D01*
X344017Y179844D01*
X344081Y179993D01*
X344088Y180025D01*
X344100Y180056D01*
X344111Y180139D01*
X344160Y180374D01*
X344159Y180493D01*
X344169Y180566D01*
X344169Y193279D01*
X344454Y193967D01*
X344488Y194078D01*
X344530Y194186D01*
X344538Y194248D01*
X344566Y194341D01*
X344591Y194635D01*
X344599Y194696D01*
X344599Y199106D01*
X344589Y199205D01*
X344589Y199305D01*
X344569Y199399D01*
X344559Y199494D01*
X344529Y199589D01*
X344509Y199686D01*
X344470Y199774D01*
X344441Y199866D01*
X344392Y199952D01*
X344353Y200044D01*
X344308Y200102D01*
X344250Y200205D01*
X344092Y200387D01*
X344042Y200453D01*
X331058Y213437D01*
X330981Y213499D01*
X330910Y213570D01*
X330830Y213622D01*
X330755Y213682D01*
X330667Y213728D01*
X330584Y213783D01*
X330494Y213818D01*
X330409Y213862D01*
X330313Y213889D01*
X330221Y213925D01*
X330148Y213935D01*
X330034Y213967D01*
X329794Y213983D01*
X329711Y213994D01*
X310741Y213994D01*
X310707Y213991D01*
X310674Y213993D01*
X310514Y213971D01*
X310353Y213954D01*
X310321Y213944D01*
X310288Y213940D01*
X310136Y213885D01*
X309981Y213836D01*
X309952Y213820D01*
X309921Y213809D01*
X309783Y213725D01*
X309642Y213645D01*
X309617Y213623D01*
X309588Y213606D01*
X309470Y213495D01*
X309348Y213389D01*
X309328Y213362D01*
X309304Y213340D01*
X309210Y213207D01*
X309113Y213078D01*
X309098Y213048D01*
X309079Y213021D01*
X309015Y212872D01*
X308946Y212726D01*
X308938Y212694D01*
X308925Y212663D01*
X308892Y212504D01*
X308854Y212347D01*
X308853Y212314D01*
X308846Y212281D01*
X308846Y212119D01*
X308841Y211957D01*
X308847Y211925D01*
X308847Y211891D01*
X308880Y211733D01*
X308908Y211573D01*
X308920Y211543D01*
X308927Y211510D01*
X308992Y211361D01*
X309051Y211211D01*
X309070Y211183D01*
X309083Y211153D01*
X309133Y211086D01*
X309266Y210886D01*
X309350Y210802D01*
X309394Y210744D01*
X340919Y179219D01*
X340944Y179198D01*
X340966Y179173D01*
X341095Y179075D01*
X341221Y178973D01*
X341250Y178958D01*
X341277Y178938D01*
X341423Y178868D01*
X341567Y178794D01*
X341599Y178785D01*
X341629Y178771D01*
X341786Y178732D01*
X341942Y178689D01*
X341976Y178687D01*
X342008Y178679D01*
X342170Y178673D01*
X342331Y178662D01*
X342364Y178667D01*
G37*
G36*
X553429Y109898D02*
X553429Y109898D01*
X553512Y109900D01*
X553591Y109921D01*
X553733Y109940D01*
X553923Y110008D01*
X554009Y110031D01*
X555509Y110652D01*
X555611Y110707D01*
X555718Y110753D01*
X555768Y110791D01*
X555852Y110837D01*
X556078Y111027D01*
X556127Y111065D01*
X573460Y128398D01*
X573491Y128436D01*
X573529Y128470D01*
X573614Y128587D01*
X573706Y128700D01*
X573729Y128744D01*
X573758Y128785D01*
X573819Y128917D01*
X573885Y129046D01*
X573899Y129094D01*
X573919Y129140D01*
X573951Y129282D01*
X573990Y129422D01*
X573994Y129471D01*
X574005Y129520D01*
X574007Y129665D01*
X574017Y129810D01*
X574010Y129860D01*
X574011Y129910D01*
X573983Y130052D01*
X573963Y130197D01*
X573947Y130244D01*
X573937Y130293D01*
X573881Y130427D01*
X573832Y130564D01*
X573806Y130606D01*
X573787Y130652D01*
X573705Y130772D01*
X573629Y130897D01*
X573595Y130933D01*
X573567Y130974D01*
X573463Y131075D01*
X573363Y131181D01*
X573322Y131210D01*
X573286Y131244D01*
X573209Y131289D01*
X573044Y131405D01*
X572913Y131462D01*
X572842Y131503D01*
X568871Y133148D01*
X568776Y133177D01*
X568684Y133215D01*
X568590Y133232D01*
X568498Y133260D01*
X568399Y133268D01*
X568301Y133287D01*
X568205Y133285D01*
X568109Y133293D01*
X568011Y133281D01*
X567911Y133279D01*
X567840Y133260D01*
X567722Y133246D01*
X567494Y133169D01*
X567414Y133148D01*
X562994Y131317D01*
X554606Y131317D01*
X546829Y134539D01*
X546734Y134567D01*
X546641Y134605D01*
X546547Y134623D01*
X546455Y134650D01*
X546356Y134659D01*
X546258Y134677D01*
X546162Y134675D01*
X546067Y134684D01*
X545968Y134672D01*
X545868Y134670D01*
X545798Y134651D01*
X545680Y134637D01*
X545452Y134560D01*
X545371Y134539D01*
X537594Y131317D01*
X535658Y131317D01*
X535624Y131314D01*
X535591Y131316D01*
X535431Y131294D01*
X535270Y131277D01*
X535238Y131267D01*
X535205Y131263D01*
X535053Y131208D01*
X534898Y131159D01*
X534869Y131143D01*
X534838Y131132D01*
X534700Y131048D01*
X534559Y130968D01*
X534534Y130946D01*
X534505Y130929D01*
X534387Y130818D01*
X534265Y130712D01*
X534245Y130685D01*
X534221Y130663D01*
X534127Y130530D01*
X534030Y130401D01*
X534015Y130371D01*
X533996Y130344D01*
X533932Y130195D01*
X533863Y130049D01*
X533855Y130017D01*
X533842Y129986D01*
X533809Y129827D01*
X533771Y129670D01*
X533770Y129637D01*
X533763Y129604D01*
X533763Y129442D01*
X533758Y129280D01*
X533764Y129248D01*
X533764Y129214D01*
X533797Y129056D01*
X533825Y128896D01*
X533837Y128866D01*
X533844Y128833D01*
X533909Y128684D01*
X533968Y128534D01*
X533987Y128506D01*
X534000Y128476D01*
X534050Y128409D01*
X534183Y128209D01*
X534267Y128125D01*
X534311Y128067D01*
X551934Y110443D01*
X551999Y110391D01*
X552056Y110331D01*
X552149Y110268D01*
X552237Y110197D01*
X552310Y110159D01*
X552379Y110113D01*
X552483Y110070D01*
X552583Y110018D01*
X552663Y109996D01*
X552739Y109964D01*
X552850Y109943D01*
X552958Y109913D01*
X553041Y109908D01*
X553123Y109892D01*
X553235Y109894D01*
X553347Y109887D01*
X553429Y109898D01*
G37*
G36*
X230637Y369579D02*
X230637Y369579D01*
X230720Y369578D01*
X230830Y369599D01*
X230942Y369611D01*
X231021Y369636D01*
X231103Y369651D01*
X231206Y369695D01*
X231314Y369729D01*
X231386Y369769D01*
X231463Y369801D01*
X231555Y369865D01*
X231653Y369920D01*
X231716Y369975D01*
X231784Y370021D01*
X231862Y370102D01*
X231947Y370176D01*
X231997Y370242D01*
X232055Y370302D01*
X232096Y370373D01*
X232182Y370487D01*
X232269Y370669D01*
X232314Y370746D01*
X233183Y372844D01*
X236756Y376417D01*
X241424Y378351D01*
X263525Y378351D01*
X263591Y378358D01*
X263658Y378355D01*
X263785Y378377D01*
X263913Y378391D01*
X263976Y378411D01*
X264042Y378422D01*
X264161Y378470D01*
X264284Y378509D01*
X264342Y378541D01*
X264404Y378566D01*
X264511Y378637D01*
X264624Y378700D01*
X264674Y378744D01*
X264730Y378780D01*
X264821Y378871D01*
X264918Y378956D01*
X264958Y379009D01*
X265005Y379056D01*
X265075Y379164D01*
X265153Y379267D01*
X265181Y379327D01*
X265218Y379383D01*
X265265Y379503D01*
X265320Y379619D01*
X265336Y379684D01*
X265360Y379746D01*
X265372Y379832D01*
X265412Y379998D01*
X265417Y380168D01*
X265429Y380255D01*
X265429Y384021D01*
X265424Y384071D01*
X265427Y384120D01*
X265404Y384264D01*
X265389Y384409D01*
X265374Y384456D01*
X265367Y384506D01*
X265315Y384642D01*
X265271Y384780D01*
X265247Y384824D01*
X265229Y384870D01*
X265151Y384993D01*
X265080Y385120D01*
X265047Y385157D01*
X265021Y385200D01*
X264919Y385304D01*
X264824Y385413D01*
X264784Y385444D01*
X264749Y385479D01*
X264629Y385561D01*
X264513Y385649D01*
X264468Y385670D01*
X264427Y385698D01*
X264292Y385754D01*
X264161Y385816D01*
X264112Y385828D01*
X264066Y385847D01*
X263923Y385873D01*
X263782Y385908D01*
X263732Y385909D01*
X263683Y385919D01*
X263538Y385916D01*
X263392Y385921D01*
X263343Y385912D01*
X263293Y385911D01*
X263207Y385888D01*
X263008Y385854D01*
X262875Y385801D01*
X262796Y385780D01*
X261985Y385444D01*
X223305Y385444D01*
X223239Y385437D01*
X223172Y385440D01*
X223045Y385418D01*
X222917Y385404D01*
X222854Y385384D01*
X222788Y385373D01*
X222669Y385325D01*
X222546Y385286D01*
X222488Y385254D01*
X222426Y385229D01*
X222319Y385158D01*
X222206Y385095D01*
X222156Y385051D01*
X222100Y385015D01*
X222009Y384924D01*
X221912Y384839D01*
X221872Y384786D01*
X221825Y384739D01*
X221755Y384631D01*
X221677Y384528D01*
X221649Y384468D01*
X221612Y384412D01*
X221565Y384292D01*
X221510Y384176D01*
X221494Y384111D01*
X221470Y384049D01*
X221458Y383963D01*
X221418Y383797D01*
X221413Y383627D01*
X221401Y383540D01*
X221401Y371475D01*
X221408Y371409D01*
X221405Y371342D01*
X221427Y371215D01*
X221441Y371087D01*
X221461Y371024D01*
X221472Y370958D01*
X221520Y370839D01*
X221559Y370716D01*
X221591Y370658D01*
X221616Y370596D01*
X221687Y370489D01*
X221750Y370376D01*
X221794Y370326D01*
X221830Y370270D01*
X221921Y370179D01*
X222006Y370082D01*
X222059Y370042D01*
X222106Y369995D01*
X222214Y369925D01*
X222317Y369847D01*
X222377Y369819D01*
X222433Y369782D01*
X222553Y369735D01*
X222669Y369680D01*
X222734Y369664D01*
X222796Y369640D01*
X222882Y369628D01*
X223048Y369588D01*
X223218Y369583D01*
X223305Y369571D01*
X230554Y369571D01*
X230637Y369579D01*
G37*
G36*
X468711Y204776D02*
X468711Y204776D01*
X468794Y204778D01*
X468873Y204799D01*
X469015Y204818D01*
X469205Y204886D01*
X469291Y204909D01*
X473072Y206475D01*
X479428Y206475D01*
X482383Y205251D01*
X482494Y205217D01*
X482602Y205175D01*
X482664Y205167D01*
X482756Y205139D01*
X483050Y205114D01*
X483111Y205106D01*
X488555Y205106D01*
X488654Y205116D01*
X488754Y205116D01*
X488848Y205136D01*
X488943Y205146D01*
X489038Y205176D01*
X489135Y205196D01*
X489223Y205235D01*
X489315Y205264D01*
X489401Y205313D01*
X489493Y205352D01*
X489551Y205397D01*
X489654Y205455D01*
X489836Y205613D01*
X489902Y205663D01*
X492506Y208267D01*
X497174Y210201D01*
X504986Y210201D01*
X505085Y210211D01*
X505185Y210211D01*
X505279Y210231D01*
X505374Y210241D01*
X505469Y210271D01*
X505566Y210291D01*
X505654Y210330D01*
X505746Y210359D01*
X505832Y210407D01*
X505924Y210447D01*
X505982Y210492D01*
X506085Y210550D01*
X506266Y210708D01*
X506333Y210758D01*
X508223Y212648D01*
X508244Y212674D01*
X508269Y212696D01*
X508367Y212825D01*
X508469Y212951D01*
X508484Y212980D01*
X508504Y213007D01*
X508574Y213153D01*
X508648Y213297D01*
X508657Y213329D01*
X508671Y213359D01*
X508709Y213516D01*
X508753Y213672D01*
X508755Y213706D01*
X508763Y213738D01*
X508769Y213900D01*
X508779Y214061D01*
X508775Y214094D01*
X508776Y214128D01*
X508748Y214287D01*
X508726Y214447D01*
X508715Y214479D01*
X508709Y214512D01*
X508650Y214662D01*
X508595Y214815D01*
X508578Y214843D01*
X508566Y214874D01*
X508477Y215009D01*
X508392Y215147D01*
X508370Y215172D01*
X508351Y215200D01*
X508236Y215314D01*
X508126Y215432D01*
X508099Y215451D01*
X508075Y215475D01*
X507939Y215563D01*
X507807Y215656D01*
X507777Y215670D01*
X507749Y215688D01*
X507598Y215747D01*
X507449Y215811D01*
X507417Y215818D01*
X507386Y215830D01*
X507303Y215841D01*
X507068Y215890D01*
X506949Y215889D01*
X506876Y215899D01*
X461236Y215899D01*
X461202Y215896D01*
X461169Y215898D01*
X461009Y215876D01*
X460848Y215859D01*
X460816Y215849D01*
X460783Y215845D01*
X460631Y215790D01*
X460476Y215741D01*
X460447Y215725D01*
X460416Y215714D01*
X460278Y215630D01*
X460137Y215550D01*
X460112Y215528D01*
X460083Y215511D01*
X459965Y215400D01*
X459843Y215294D01*
X459823Y215267D01*
X459799Y215245D01*
X459705Y215112D01*
X459608Y214983D01*
X459593Y214953D01*
X459574Y214926D01*
X459510Y214777D01*
X459441Y214631D01*
X459433Y214599D01*
X459420Y214568D01*
X459387Y214409D01*
X459349Y214252D01*
X459348Y214219D01*
X459341Y214186D01*
X459341Y214024D01*
X459336Y213862D01*
X459342Y213830D01*
X459342Y213796D01*
X459375Y213638D01*
X459403Y213478D01*
X459415Y213448D01*
X459422Y213415D01*
X459487Y213266D01*
X459546Y213116D01*
X459565Y213088D01*
X459578Y213058D01*
X459628Y212991D01*
X459761Y212791D01*
X459845Y212707D01*
X459889Y212649D01*
X467216Y205321D01*
X467281Y205269D01*
X467338Y205209D01*
X467431Y205146D01*
X467519Y205075D01*
X467592Y205037D01*
X467661Y204991D01*
X467765Y204948D01*
X467865Y204896D01*
X467944Y204874D01*
X468021Y204842D01*
X468132Y204821D01*
X468240Y204791D01*
X468323Y204786D01*
X468405Y204770D01*
X468517Y204772D01*
X468629Y204765D01*
X468711Y204776D01*
G37*
G36*
X314408Y376443D02*
X314408Y376443D01*
X314458Y376441D01*
X314601Y376466D01*
X314745Y376484D01*
X314792Y376500D01*
X314842Y376508D01*
X314976Y376562D01*
X315115Y376608D01*
X315158Y376633D01*
X315204Y376652D01*
X315325Y376732D01*
X315451Y376805D01*
X315488Y376839D01*
X315530Y376866D01*
X315632Y376969D01*
X315740Y377067D01*
X315769Y377107D01*
X315805Y377142D01*
X315884Y377264D01*
X315970Y377381D01*
X315990Y377427D01*
X316018Y377469D01*
X316071Y377604D01*
X316131Y377736D01*
X316142Y377785D01*
X316160Y377832D01*
X316172Y377920D01*
X316216Y378117D01*
X316218Y378260D01*
X316229Y378341D01*
X316229Y392769D01*
X316224Y392819D01*
X316227Y392869D01*
X316204Y393012D01*
X316189Y393157D01*
X316174Y393204D01*
X316167Y393254D01*
X316115Y393390D01*
X316071Y393528D01*
X316047Y393572D01*
X316029Y393619D01*
X315951Y393741D01*
X315880Y393868D01*
X315847Y393906D01*
X315821Y393948D01*
X315719Y394052D01*
X315624Y394162D01*
X315584Y394192D01*
X315549Y394228D01*
X315429Y394309D01*
X315313Y394397D01*
X315268Y394418D01*
X315227Y394446D01*
X315092Y394502D01*
X314961Y394564D01*
X314913Y394576D01*
X314866Y394595D01*
X314723Y394622D01*
X314582Y394656D01*
X314532Y394658D01*
X314483Y394667D01*
X314338Y394664D01*
X314192Y394669D01*
X314143Y394660D01*
X314093Y394659D01*
X314007Y394637D01*
X313808Y394602D01*
X313675Y394549D01*
X313596Y394528D01*
X308818Y392549D01*
X300782Y392549D01*
X296004Y394528D01*
X295956Y394543D01*
X295911Y394564D01*
X295769Y394598D01*
X295630Y394640D01*
X295581Y394644D01*
X295532Y394656D01*
X295387Y394661D01*
X295242Y394673D01*
X295192Y394667D01*
X295142Y394669D01*
X294999Y394644D01*
X294855Y394626D01*
X294808Y394611D01*
X294758Y394602D01*
X294623Y394548D01*
X294485Y394502D01*
X294442Y394477D01*
X294396Y394458D01*
X294275Y394378D01*
X294149Y394305D01*
X294112Y394271D01*
X294070Y394244D01*
X293968Y394141D01*
X293860Y394044D01*
X293831Y394003D01*
X293795Y393968D01*
X293716Y393846D01*
X293630Y393729D01*
X293610Y393683D01*
X293582Y393641D01*
X293529Y393506D01*
X293469Y393374D01*
X293458Y393325D01*
X293440Y393279D01*
X293428Y393190D01*
X293384Y392993D01*
X293382Y392850D01*
X293371Y392769D01*
X293371Y378341D01*
X293376Y378291D01*
X293373Y378242D01*
X293396Y378098D01*
X293411Y377953D01*
X293426Y377906D01*
X293433Y377856D01*
X293485Y377720D01*
X293529Y377582D01*
X293553Y377538D01*
X293571Y377492D01*
X293649Y377369D01*
X293720Y377242D01*
X293753Y377204D01*
X293779Y377162D01*
X293881Y377058D01*
X293976Y376948D01*
X294016Y376918D01*
X294051Y376882D01*
X294171Y376801D01*
X294287Y376713D01*
X294332Y376692D01*
X294373Y376664D01*
X294508Y376608D01*
X294639Y376546D01*
X294687Y376534D01*
X294734Y376515D01*
X294877Y376488D01*
X295018Y376454D01*
X295068Y376452D01*
X295117Y376443D01*
X295262Y376446D01*
X295408Y376441D01*
X295457Y376450D01*
X295507Y376451D01*
X295593Y376474D01*
X295792Y376508D01*
X295925Y376561D01*
X296004Y376582D01*
X300275Y378351D01*
X309325Y378351D01*
X313596Y376582D01*
X313644Y376567D01*
X313689Y376546D01*
X313830Y376512D01*
X313970Y376470D01*
X314019Y376466D01*
X314068Y376454D01*
X314213Y376449D01*
X314358Y376437D01*
X314408Y376443D01*
G37*
G36*
X423092Y171707D02*
X423092Y171707D01*
X423142Y171708D01*
X423228Y171731D01*
X423427Y171766D01*
X423560Y171818D01*
X423639Y171839D01*
X427606Y173483D01*
X435994Y173483D01*
X436992Y173069D01*
X437008Y173064D01*
X437023Y173057D01*
X437194Y173009D01*
X437366Y172958D01*
X437382Y172956D01*
X437398Y172952D01*
X437576Y172940D01*
X437754Y172924D01*
X437771Y172926D01*
X437787Y172925D01*
X437963Y172950D01*
X438141Y172971D01*
X438157Y172976D01*
X438173Y172979D01*
X438341Y173038D01*
X438511Y173095D01*
X438525Y173104D01*
X438541Y173109D01*
X438692Y173202D01*
X438847Y173293D01*
X438859Y173304D01*
X438873Y173312D01*
X439003Y173434D01*
X439136Y173554D01*
X439146Y173567D01*
X439158Y173579D01*
X439261Y173725D01*
X439366Y173869D01*
X439373Y173884D01*
X439382Y173898D01*
X439453Y174060D01*
X439527Y174224D01*
X439530Y174240D01*
X439537Y174255D01*
X439573Y174429D01*
X439612Y174604D01*
X439612Y174621D01*
X439616Y174637D01*
X439615Y174816D01*
X439618Y174994D01*
X439615Y175010D01*
X439615Y175027D01*
X439578Y175202D01*
X439545Y175377D01*
X439538Y175392D01*
X439535Y175408D01*
X439463Y175572D01*
X439395Y175737D01*
X439385Y175750D01*
X439379Y175766D01*
X439341Y175815D01*
X439175Y176058D01*
X439105Y176125D01*
X439068Y176175D01*
X420221Y195022D01*
X420144Y195084D01*
X420073Y195155D01*
X419993Y195207D01*
X419918Y195267D01*
X419830Y195313D01*
X419747Y195368D01*
X419657Y195403D01*
X419572Y195447D01*
X419476Y195474D01*
X419384Y195510D01*
X419311Y195520D01*
X419197Y195552D01*
X418957Y195568D01*
X418874Y195579D01*
X413874Y195579D01*
X413840Y195576D01*
X413807Y195578D01*
X413647Y195556D01*
X413486Y195539D01*
X413454Y195529D01*
X413421Y195525D01*
X413269Y195470D01*
X413114Y195421D01*
X413085Y195405D01*
X413054Y195394D01*
X412916Y195309D01*
X412775Y195230D01*
X412750Y195208D01*
X412721Y195191D01*
X412603Y195080D01*
X412481Y194974D01*
X412461Y194947D01*
X412437Y194925D01*
X412343Y194792D01*
X412246Y194663D01*
X412231Y194633D01*
X412212Y194606D01*
X412148Y194457D01*
X412079Y194311D01*
X412071Y194279D01*
X412058Y194248D01*
X412025Y194089D01*
X411987Y193932D01*
X411986Y193899D01*
X411979Y193866D01*
X411979Y193704D01*
X411974Y193542D01*
X411980Y193510D01*
X411980Y193476D01*
X412013Y193318D01*
X412041Y193158D01*
X412053Y193128D01*
X412060Y193095D01*
X412125Y192946D01*
X412184Y192796D01*
X412203Y192768D01*
X412216Y192738D01*
X412267Y192671D01*
X412399Y192471D01*
X412469Y192401D01*
X412469Y192400D01*
X412484Y192386D01*
X412527Y192328D01*
X414406Y190450D01*
X418782Y186074D01*
X421006Y180705D01*
X421006Y173599D01*
X421011Y173549D01*
X421008Y173499D01*
X421031Y173355D01*
X421046Y173211D01*
X421061Y173163D01*
X421068Y173114D01*
X421120Y172978D01*
X421164Y172839D01*
X421188Y172796D01*
X421206Y172749D01*
X421284Y172626D01*
X421355Y172500D01*
X421388Y172462D01*
X421414Y172420D01*
X421516Y172315D01*
X421611Y172206D01*
X421651Y172176D01*
X421686Y172140D01*
X421806Y172058D01*
X421922Y171971D01*
X421967Y171949D01*
X422008Y171921D01*
X422143Y171866D01*
X422274Y171804D01*
X422322Y171792D01*
X422369Y171773D01*
X422512Y171746D01*
X422653Y171712D01*
X422703Y171710D01*
X422752Y171701D01*
X422897Y171704D01*
X423043Y171699D01*
X423092Y171707D01*
G37*
G36*
X620494Y378955D02*
X620494Y378955D01*
X620528Y378954D01*
X620687Y378982D01*
X620847Y379004D01*
X620879Y379015D01*
X620912Y379021D01*
X621062Y379080D01*
X621215Y379135D01*
X621243Y379152D01*
X621274Y379164D01*
X621409Y379253D01*
X621547Y379338D01*
X621572Y379360D01*
X621600Y379379D01*
X621714Y379494D01*
X621832Y379604D01*
X621851Y379631D01*
X621875Y379655D01*
X621963Y379791D01*
X622056Y379923D01*
X622069Y379953D01*
X622088Y379981D01*
X622147Y380132D01*
X622211Y380281D01*
X622218Y380313D01*
X622230Y380344D01*
X622241Y380427D01*
X622290Y380662D01*
X622289Y380781D01*
X622299Y380854D01*
X622299Y396875D01*
X622292Y396941D01*
X622295Y397008D01*
X622273Y397135D01*
X622259Y397263D01*
X622239Y397326D01*
X622228Y397392D01*
X622180Y397511D01*
X622141Y397634D01*
X622109Y397692D01*
X622084Y397754D01*
X622013Y397861D01*
X621950Y397974D01*
X621906Y398024D01*
X621870Y398080D01*
X621779Y398171D01*
X621694Y398268D01*
X621641Y398308D01*
X621594Y398355D01*
X621486Y398425D01*
X621383Y398503D01*
X621323Y398531D01*
X621267Y398568D01*
X621147Y398615D01*
X621031Y398670D01*
X620966Y398686D01*
X620904Y398710D01*
X620818Y398722D01*
X620652Y398762D01*
X620482Y398767D01*
X620395Y398779D01*
X604374Y398779D01*
X604340Y398776D01*
X604307Y398778D01*
X604147Y398756D01*
X603986Y398739D01*
X603954Y398729D01*
X603921Y398725D01*
X603769Y398670D01*
X603614Y398621D01*
X603585Y398605D01*
X603554Y398594D01*
X603416Y398510D01*
X603275Y398430D01*
X603250Y398408D01*
X603221Y398391D01*
X603103Y398280D01*
X602981Y398174D01*
X602961Y398147D01*
X602937Y398125D01*
X602843Y397992D01*
X602746Y397863D01*
X602731Y397833D01*
X602712Y397806D01*
X602648Y397657D01*
X602579Y397511D01*
X602571Y397479D01*
X602558Y397448D01*
X602525Y397289D01*
X602487Y397132D01*
X602486Y397099D01*
X602479Y397066D01*
X602479Y396904D01*
X602474Y396742D01*
X602480Y396710D01*
X602480Y396676D01*
X602513Y396518D01*
X602541Y396358D01*
X602553Y396328D01*
X602560Y396295D01*
X602625Y396146D01*
X602684Y395996D01*
X602703Y395968D01*
X602716Y395938D01*
X602766Y395871D01*
X602899Y395671D01*
X602983Y395587D01*
X603027Y395529D01*
X619049Y379507D01*
X619074Y379486D01*
X619096Y379461D01*
X619225Y379363D01*
X619351Y379261D01*
X619380Y379246D01*
X619407Y379226D01*
X619553Y379156D01*
X619697Y379082D01*
X619729Y379073D01*
X619759Y379059D01*
X619916Y379021D01*
X620072Y378977D01*
X620106Y378975D01*
X620138Y378967D01*
X620300Y378961D01*
X620461Y378951D01*
X620494Y378955D01*
G37*
G36*
X149695Y121063D02*
X149695Y121063D01*
X149744Y121060D01*
X150130Y121113D01*
X150153Y121121D01*
X150171Y121124D01*
X157886Y123191D01*
X160166Y123191D01*
X160200Y123194D01*
X160233Y123192D01*
X160393Y123214D01*
X160554Y123231D01*
X160586Y123241D01*
X160619Y123245D01*
X160771Y123300D01*
X160926Y123349D01*
X160955Y123365D01*
X160986Y123376D01*
X161124Y123460D01*
X161265Y123540D01*
X161290Y123562D01*
X161319Y123579D01*
X161437Y123690D01*
X161559Y123796D01*
X161579Y123823D01*
X161603Y123845D01*
X161697Y123978D01*
X161794Y124107D01*
X161809Y124137D01*
X161828Y124164D01*
X161892Y124313D01*
X161961Y124459D01*
X161969Y124491D01*
X161982Y124522D01*
X162015Y124681D01*
X162053Y124838D01*
X162054Y124871D01*
X162061Y124904D01*
X162061Y125066D01*
X162066Y125228D01*
X162060Y125260D01*
X162060Y125294D01*
X162027Y125452D01*
X161999Y125612D01*
X161987Y125642D01*
X161980Y125675D01*
X161915Y125824D01*
X161856Y125974D01*
X161837Y126002D01*
X161824Y126032D01*
X161774Y126099D01*
X161641Y126299D01*
X161557Y126383D01*
X161513Y126441D01*
X150571Y137383D01*
X150546Y137404D01*
X150524Y137429D01*
X150395Y137527D01*
X150269Y137629D01*
X150240Y137644D01*
X150213Y137664D01*
X150067Y137734D01*
X149923Y137808D01*
X149891Y137817D01*
X149861Y137831D01*
X149704Y137869D01*
X149548Y137913D01*
X149514Y137915D01*
X149482Y137923D01*
X149320Y137929D01*
X149159Y137939D01*
X149126Y137935D01*
X149092Y137936D01*
X148933Y137908D01*
X148773Y137886D01*
X148741Y137875D01*
X148708Y137869D01*
X148558Y137810D01*
X148405Y137755D01*
X148377Y137738D01*
X148346Y137726D01*
X148211Y137637D01*
X148073Y137552D01*
X148048Y137530D01*
X148020Y137511D01*
X147906Y137396D01*
X147788Y137286D01*
X147769Y137259D01*
X147745Y137235D01*
X147657Y137099D01*
X147564Y136967D01*
X147551Y136937D01*
X147532Y136909D01*
X147473Y136758D01*
X147409Y136609D01*
X147402Y136577D01*
X147390Y136546D01*
X147379Y136463D01*
X147330Y136228D01*
X147331Y136109D01*
X147321Y136036D01*
X147321Y123416D01*
X147331Y123317D01*
X147331Y123217D01*
X147351Y123123D01*
X147361Y123028D01*
X147391Y122933D01*
X147411Y122836D01*
X147450Y122748D01*
X147479Y122656D01*
X147528Y122570D01*
X147567Y122478D01*
X147612Y122420D01*
X147670Y122317D01*
X147828Y122135D01*
X147878Y122069D01*
X148331Y121616D01*
X148450Y121520D01*
X148565Y121418D01*
X148601Y121397D01*
X148634Y121370D01*
X148770Y121300D01*
X148903Y121223D01*
X148943Y121210D01*
X148980Y121191D01*
X149127Y121150D01*
X149273Y121102D01*
X149315Y121097D01*
X149355Y121086D01*
X149508Y121076D01*
X149661Y121059D01*
X149695Y121063D01*
G37*
G36*
X545273Y403229D02*
X545273Y403229D01*
X545306Y403227D01*
X545466Y403249D01*
X545627Y403266D01*
X545659Y403276D01*
X545692Y403280D01*
X545844Y403335D01*
X545999Y403384D01*
X546028Y403400D01*
X546059Y403411D01*
X546197Y403495D01*
X546338Y403575D01*
X546363Y403597D01*
X546392Y403614D01*
X546510Y403725D01*
X546632Y403831D01*
X546652Y403858D01*
X546676Y403880D01*
X546770Y404013D01*
X546867Y404142D01*
X546882Y404172D01*
X546901Y404199D01*
X546965Y404348D01*
X547034Y404494D01*
X547042Y404526D01*
X547055Y404557D01*
X547088Y404716D01*
X547126Y404873D01*
X547127Y404906D01*
X547134Y404939D01*
X547134Y405101D01*
X547139Y405263D01*
X547133Y405295D01*
X547133Y405329D01*
X547100Y405487D01*
X547072Y405647D01*
X547060Y405677D01*
X547053Y405710D01*
X546988Y405859D01*
X546929Y406009D01*
X546910Y406037D01*
X546897Y406067D01*
X546847Y406134D01*
X546714Y406334D01*
X546630Y406418D01*
X546586Y406477D01*
X543871Y409192D01*
X543794Y409254D01*
X543723Y409325D01*
X543643Y409377D01*
X543568Y409437D01*
X543480Y409483D01*
X543397Y409538D01*
X543307Y409573D01*
X543222Y409617D01*
X543126Y409644D01*
X543034Y409680D01*
X542961Y409690D01*
X542847Y409722D01*
X542607Y409738D01*
X542524Y409749D01*
X539931Y409749D01*
X532782Y412710D01*
X532647Y412846D01*
X532595Y412888D01*
X532550Y412936D01*
X532444Y413011D01*
X532344Y413092D01*
X532285Y413123D01*
X532231Y413161D01*
X532113Y413212D01*
X531998Y413271D01*
X531934Y413289D01*
X531873Y413315D01*
X531747Y413341D01*
X531623Y413376D01*
X531556Y413381D01*
X531491Y413394D01*
X531362Y413394D01*
X531234Y413403D01*
X531168Y413393D01*
X531101Y413393D01*
X530975Y413367D01*
X530848Y413349D01*
X530785Y413327D01*
X530720Y413313D01*
X530602Y413262D01*
X530480Y413218D01*
X530424Y413184D01*
X530363Y413157D01*
X530293Y413104D01*
X530148Y413015D01*
X530023Y412899D01*
X529954Y412846D01*
X529818Y412710D01*
X525361Y410864D01*
X525346Y410856D01*
X525330Y410851D01*
X525175Y410764D01*
X525018Y410679D01*
X525005Y410668D01*
X524991Y410660D01*
X524857Y410543D01*
X524720Y410428D01*
X524709Y410415D01*
X524697Y410404D01*
X524590Y410262D01*
X524479Y410121D01*
X524472Y410106D01*
X524462Y410093D01*
X524385Y409932D01*
X524306Y409772D01*
X524302Y409756D01*
X524295Y409741D01*
X524253Y409568D01*
X524208Y409395D01*
X524207Y409378D01*
X524203Y409362D01*
X524197Y409184D01*
X524188Y409006D01*
X524190Y408989D01*
X524190Y408972D01*
X524220Y408797D01*
X524248Y408620D01*
X524254Y408605D01*
X524257Y408588D01*
X524322Y408423D01*
X524385Y408256D01*
X524394Y408241D01*
X524400Y408226D01*
X524498Y408077D01*
X524594Y407926D01*
X524605Y407914D01*
X524615Y407900D01*
X524741Y407774D01*
X524865Y407646D01*
X524879Y407637D01*
X524891Y407625D01*
X525040Y407528D01*
X525188Y407428D01*
X525203Y407421D01*
X525217Y407412D01*
X525383Y407347D01*
X525548Y407279D01*
X525565Y407276D01*
X525580Y407270D01*
X525642Y407262D01*
X525931Y407207D01*
X526028Y407209D01*
X526090Y407201D01*
X528726Y407201D01*
X533394Y405267D01*
X534878Y403783D01*
X534955Y403721D01*
X535026Y403650D01*
X535106Y403598D01*
X535180Y403538D01*
X535269Y403492D01*
X535352Y403437D01*
X535441Y403402D01*
X535527Y403358D01*
X535623Y403331D01*
X535715Y403295D01*
X535787Y403285D01*
X535902Y403253D01*
X536142Y403237D01*
X536225Y403226D01*
X545239Y403226D01*
X545273Y403229D01*
G37*
G36*
X718350Y325246D02*
X718350Y325246D01*
X718384Y325246D01*
X718543Y325279D01*
X718702Y325307D01*
X718733Y325319D01*
X718765Y325326D01*
X718914Y325391D01*
X719064Y325450D01*
X719092Y325469D01*
X719123Y325482D01*
X719189Y325533D01*
X719252Y325574D01*
X721454Y326486D01*
X721527Y326526D01*
X721604Y326556D01*
X721698Y326618D01*
X721797Y326671D01*
X721860Y326725D01*
X721930Y326771D01*
X722009Y326850D01*
X722095Y326923D01*
X722146Y326988D01*
X722205Y327047D01*
X722266Y327141D01*
X722335Y327229D01*
X722372Y327304D01*
X722418Y327373D01*
X722459Y327478D01*
X722509Y327578D01*
X722530Y327659D01*
X722560Y327736D01*
X722571Y327817D01*
X722607Y327956D01*
X722617Y328157D01*
X722629Y328246D01*
X722629Y335495D01*
X722622Y335561D01*
X722625Y335628D01*
X722603Y335755D01*
X722589Y335883D01*
X722569Y335946D01*
X722558Y336012D01*
X722510Y336131D01*
X722471Y336254D01*
X722439Y336312D01*
X722414Y336374D01*
X722343Y336481D01*
X722280Y336594D01*
X722236Y336644D01*
X722200Y336700D01*
X722109Y336791D01*
X722024Y336888D01*
X721971Y336928D01*
X721924Y336975D01*
X721816Y337045D01*
X721713Y337123D01*
X721653Y337151D01*
X721597Y337188D01*
X721477Y337235D01*
X721361Y337290D01*
X721296Y337306D01*
X721234Y337330D01*
X721148Y337342D01*
X720982Y337382D01*
X720812Y337387D01*
X720725Y337399D01*
X718185Y337399D01*
X718119Y337392D01*
X718052Y337395D01*
X717925Y337373D01*
X717797Y337359D01*
X717734Y337339D01*
X717668Y337328D01*
X717549Y337280D01*
X717426Y337241D01*
X717368Y337209D01*
X717306Y337184D01*
X717199Y337113D01*
X717086Y337050D01*
X717036Y337006D01*
X716980Y336970D01*
X716889Y336879D01*
X716792Y336794D01*
X716752Y336741D01*
X716705Y336694D01*
X716635Y336586D01*
X716557Y336483D01*
X716529Y336423D01*
X716492Y336367D01*
X716445Y336247D01*
X716390Y336131D01*
X716374Y336066D01*
X716350Y336004D01*
X716338Y335918D01*
X716298Y335752D01*
X716293Y335582D01*
X716281Y335495D01*
X716281Y327140D01*
X716284Y327106D01*
X716282Y327073D01*
X716304Y326912D01*
X716321Y326752D01*
X716331Y326720D01*
X716335Y326687D01*
X716390Y326534D01*
X716439Y326380D01*
X716455Y326351D01*
X716466Y326320D01*
X716551Y326182D01*
X716630Y326041D01*
X716652Y326015D01*
X716669Y325987D01*
X716780Y325869D01*
X716886Y325747D01*
X716913Y325727D01*
X716936Y325702D01*
X717068Y325609D01*
X717197Y325512D01*
X717227Y325497D01*
X717255Y325478D01*
X717403Y325414D01*
X717549Y325345D01*
X717582Y325337D01*
X717612Y325323D01*
X717771Y325291D01*
X717928Y325253D01*
X717961Y325252D01*
X717994Y325245D01*
X718156Y325245D01*
X718318Y325240D01*
X718350Y325246D01*
G37*
G36*
X322272Y52707D02*
X322272Y52707D01*
X322288Y52706D01*
X322466Y52727D01*
X322643Y52746D01*
X322659Y52751D01*
X322675Y52753D01*
X322844Y52810D01*
X323014Y52864D01*
X323029Y52872D01*
X323045Y52877D01*
X323198Y52967D01*
X323354Y53055D01*
X323367Y53066D01*
X323381Y53074D01*
X323513Y53194D01*
X323648Y53311D01*
X323658Y53324D01*
X323670Y53336D01*
X323775Y53479D01*
X323883Y53622D01*
X323890Y53637D01*
X323900Y53650D01*
X323973Y53813D01*
X324050Y53974D01*
X324054Y53990D01*
X324061Y54005D01*
X324100Y54180D01*
X324142Y54353D01*
X324142Y54370D01*
X324146Y54386D01*
X324149Y54564D01*
X324155Y54743D01*
X324152Y54759D01*
X324152Y54776D01*
X324118Y54951D01*
X324088Y55127D01*
X324082Y55142D01*
X324079Y55158D01*
X324010Y55324D01*
X323944Y55489D01*
X323935Y55503D01*
X323929Y55518D01*
X323828Y55666D01*
X323730Y55814D01*
X323718Y55826D01*
X323709Y55840D01*
X323580Y55964D01*
X323454Y56090D01*
X323440Y56099D01*
X323428Y56110D01*
X323375Y56141D01*
X323127Y56303D01*
X323038Y56338D01*
X322984Y56369D01*
X318229Y58339D01*
X318134Y58367D01*
X318041Y58405D01*
X317947Y58423D01*
X317855Y58450D01*
X317756Y58459D01*
X317658Y58477D01*
X317562Y58475D01*
X317467Y58484D01*
X317368Y58472D01*
X317268Y58470D01*
X317198Y58451D01*
X317080Y58437D01*
X316852Y58360D01*
X316771Y58339D01*
X312016Y56369D01*
X312002Y56361D01*
X311986Y56356D01*
X311830Y56269D01*
X311673Y56184D01*
X311661Y56173D01*
X311646Y56165D01*
X311512Y56048D01*
X311375Y55933D01*
X311365Y55920D01*
X311352Y55909D01*
X311244Y55766D01*
X311135Y55626D01*
X311127Y55611D01*
X311117Y55598D01*
X311040Y55436D01*
X310961Y55277D01*
X310957Y55261D01*
X310950Y55246D01*
X310908Y55072D01*
X310863Y54900D01*
X310862Y54883D01*
X310858Y54867D01*
X310852Y54689D01*
X310843Y54511D01*
X310846Y54494D01*
X310845Y54477D01*
X310876Y54302D01*
X310903Y54125D01*
X310909Y54110D01*
X310912Y54093D01*
X310978Y53928D01*
X311041Y53761D01*
X311050Y53746D01*
X311056Y53731D01*
X311153Y53583D01*
X311249Y53431D01*
X311261Y53419D01*
X311270Y53405D01*
X311396Y53280D01*
X311521Y53151D01*
X311534Y53142D01*
X311546Y53130D01*
X311696Y53033D01*
X311843Y52933D01*
X311859Y52926D01*
X311873Y52917D01*
X312038Y52852D01*
X312204Y52784D01*
X312220Y52781D01*
X312236Y52775D01*
X312297Y52767D01*
X312587Y52712D01*
X312683Y52714D01*
X312745Y52706D01*
X322255Y52706D01*
X322272Y52707D01*
G37*
G36*
X296872Y52707D02*
X296872Y52707D01*
X296888Y52706D01*
X297066Y52727D01*
X297243Y52746D01*
X297259Y52751D01*
X297275Y52753D01*
X297444Y52810D01*
X297614Y52864D01*
X297629Y52872D01*
X297645Y52877D01*
X297798Y52967D01*
X297954Y53055D01*
X297967Y53066D01*
X297981Y53074D01*
X298113Y53194D01*
X298248Y53311D01*
X298258Y53324D01*
X298270Y53336D01*
X298375Y53479D01*
X298483Y53622D01*
X298490Y53637D01*
X298500Y53650D01*
X298573Y53813D01*
X298650Y53974D01*
X298654Y53990D01*
X298661Y54005D01*
X298700Y54180D01*
X298742Y54353D01*
X298742Y54370D01*
X298746Y54386D01*
X298749Y54564D01*
X298755Y54743D01*
X298752Y54759D01*
X298752Y54776D01*
X298718Y54951D01*
X298688Y55127D01*
X298682Y55142D01*
X298679Y55158D01*
X298610Y55324D01*
X298544Y55489D01*
X298535Y55503D01*
X298529Y55518D01*
X298428Y55666D01*
X298330Y55814D01*
X298318Y55826D01*
X298309Y55840D01*
X298180Y55964D01*
X298054Y56090D01*
X298040Y56099D01*
X298028Y56110D01*
X297975Y56141D01*
X297727Y56303D01*
X297638Y56338D01*
X297584Y56369D01*
X292829Y58339D01*
X292734Y58367D01*
X292641Y58405D01*
X292547Y58423D01*
X292455Y58450D01*
X292356Y58459D01*
X292258Y58477D01*
X292162Y58475D01*
X292067Y58484D01*
X291968Y58472D01*
X291868Y58470D01*
X291798Y58451D01*
X291680Y58437D01*
X291452Y58360D01*
X291371Y58339D01*
X286616Y56369D01*
X286602Y56361D01*
X286586Y56356D01*
X286430Y56269D01*
X286273Y56184D01*
X286261Y56173D01*
X286246Y56165D01*
X286112Y56048D01*
X285975Y55933D01*
X285965Y55920D01*
X285952Y55909D01*
X285844Y55766D01*
X285735Y55626D01*
X285727Y55611D01*
X285717Y55598D01*
X285640Y55436D01*
X285561Y55277D01*
X285557Y55261D01*
X285550Y55246D01*
X285508Y55072D01*
X285463Y54900D01*
X285462Y54883D01*
X285458Y54867D01*
X285452Y54689D01*
X285443Y54511D01*
X285446Y54494D01*
X285445Y54477D01*
X285476Y54302D01*
X285503Y54125D01*
X285509Y54110D01*
X285512Y54093D01*
X285578Y53928D01*
X285641Y53761D01*
X285650Y53746D01*
X285656Y53731D01*
X285753Y53583D01*
X285849Y53431D01*
X285861Y53419D01*
X285870Y53405D01*
X285996Y53280D01*
X286121Y53151D01*
X286134Y53142D01*
X286146Y53130D01*
X286296Y53033D01*
X286443Y52933D01*
X286459Y52926D01*
X286473Y52917D01*
X286638Y52852D01*
X286804Y52784D01*
X286820Y52781D01*
X286836Y52775D01*
X286897Y52767D01*
X287187Y52712D01*
X287283Y52714D01*
X287345Y52706D01*
X296855Y52706D01*
X296872Y52707D01*
G37*
G36*
X347672Y52707D02*
X347672Y52707D01*
X347688Y52706D01*
X347866Y52727D01*
X348043Y52746D01*
X348059Y52751D01*
X348075Y52753D01*
X348244Y52810D01*
X348414Y52864D01*
X348429Y52872D01*
X348445Y52877D01*
X348598Y52967D01*
X348754Y53055D01*
X348767Y53066D01*
X348781Y53074D01*
X348913Y53194D01*
X349048Y53311D01*
X349058Y53324D01*
X349070Y53336D01*
X349175Y53479D01*
X349283Y53622D01*
X349290Y53637D01*
X349300Y53650D01*
X349373Y53813D01*
X349450Y53974D01*
X349454Y53990D01*
X349461Y54005D01*
X349500Y54180D01*
X349542Y54353D01*
X349542Y54370D01*
X349546Y54386D01*
X349549Y54564D01*
X349555Y54743D01*
X349552Y54759D01*
X349552Y54776D01*
X349518Y54951D01*
X349488Y55127D01*
X349482Y55142D01*
X349479Y55158D01*
X349410Y55324D01*
X349344Y55489D01*
X349335Y55503D01*
X349329Y55518D01*
X349228Y55666D01*
X349130Y55814D01*
X349118Y55826D01*
X349109Y55840D01*
X348980Y55964D01*
X348854Y56090D01*
X348840Y56099D01*
X348828Y56110D01*
X348775Y56141D01*
X348527Y56303D01*
X348438Y56338D01*
X348384Y56369D01*
X343629Y58339D01*
X343534Y58367D01*
X343441Y58405D01*
X343347Y58423D01*
X343255Y58450D01*
X343156Y58459D01*
X343058Y58477D01*
X342962Y58475D01*
X342867Y58484D01*
X342768Y58472D01*
X342668Y58470D01*
X342598Y58451D01*
X342480Y58437D01*
X342252Y58360D01*
X342171Y58339D01*
X337416Y56369D01*
X337402Y56361D01*
X337386Y56356D01*
X337230Y56269D01*
X337073Y56184D01*
X337061Y56173D01*
X337046Y56165D01*
X336912Y56048D01*
X336775Y55933D01*
X336765Y55920D01*
X336752Y55909D01*
X336644Y55766D01*
X336535Y55626D01*
X336527Y55611D01*
X336517Y55598D01*
X336440Y55436D01*
X336361Y55277D01*
X336357Y55261D01*
X336350Y55246D01*
X336308Y55072D01*
X336263Y54900D01*
X336262Y54883D01*
X336258Y54867D01*
X336252Y54689D01*
X336243Y54511D01*
X336246Y54494D01*
X336245Y54477D01*
X336276Y54302D01*
X336303Y54125D01*
X336309Y54110D01*
X336312Y54093D01*
X336378Y53928D01*
X336441Y53761D01*
X336450Y53746D01*
X336456Y53731D01*
X336553Y53583D01*
X336649Y53431D01*
X336661Y53419D01*
X336670Y53405D01*
X336796Y53280D01*
X336921Y53151D01*
X336934Y53142D01*
X336946Y53130D01*
X337096Y53033D01*
X337243Y52933D01*
X337259Y52926D01*
X337273Y52917D01*
X337438Y52852D01*
X337604Y52784D01*
X337620Y52781D01*
X337636Y52775D01*
X337697Y52767D01*
X337987Y52712D01*
X338083Y52714D01*
X338145Y52706D01*
X347655Y52706D01*
X347672Y52707D01*
G37*
G36*
X370654Y52716D02*
X370654Y52716D01*
X370754Y52716D01*
X370848Y52736D01*
X370943Y52746D01*
X371038Y52776D01*
X371135Y52796D01*
X371223Y52835D01*
X371315Y52864D01*
X371401Y52913D01*
X371493Y52952D01*
X371551Y52997D01*
X371654Y53055D01*
X371836Y53213D01*
X371902Y53263D01*
X372634Y53996D01*
X372665Y54034D01*
X372703Y54068D01*
X372788Y54185D01*
X372880Y54298D01*
X372903Y54342D01*
X372932Y54383D01*
X372992Y54515D01*
X373059Y54644D01*
X373073Y54692D01*
X373093Y54738D01*
X373125Y54880D01*
X373164Y55020D01*
X373168Y55069D01*
X373179Y55118D01*
X373181Y55263D01*
X373191Y55408D01*
X373184Y55458D01*
X373185Y55508D01*
X373157Y55650D01*
X373137Y55795D01*
X373121Y55842D01*
X373111Y55891D01*
X373055Y56025D01*
X373006Y56162D01*
X372980Y56204D01*
X372961Y56250D01*
X372879Y56371D01*
X372803Y56495D01*
X372769Y56531D01*
X372741Y56572D01*
X372636Y56673D01*
X372537Y56779D01*
X372496Y56808D01*
X372460Y56842D01*
X372383Y56887D01*
X372218Y57003D01*
X372087Y57060D01*
X372016Y57101D01*
X369029Y58339D01*
X368934Y58367D01*
X368841Y58405D01*
X368747Y58423D01*
X368655Y58450D01*
X368556Y58459D01*
X368458Y58477D01*
X368362Y58475D01*
X368267Y58484D01*
X368168Y58472D01*
X368068Y58470D01*
X367998Y58451D01*
X367880Y58437D01*
X367652Y58360D01*
X367571Y58339D01*
X362816Y56369D01*
X362802Y56361D01*
X362786Y56356D01*
X362630Y56269D01*
X362473Y56184D01*
X362461Y56173D01*
X362446Y56165D01*
X362312Y56048D01*
X362175Y55933D01*
X362165Y55920D01*
X362152Y55909D01*
X362044Y55766D01*
X361935Y55626D01*
X361927Y55611D01*
X361917Y55598D01*
X361840Y55436D01*
X361761Y55277D01*
X361757Y55261D01*
X361750Y55246D01*
X361708Y55072D01*
X361663Y54900D01*
X361662Y54883D01*
X361658Y54867D01*
X361652Y54689D01*
X361643Y54511D01*
X361646Y54494D01*
X361645Y54477D01*
X361676Y54302D01*
X361703Y54125D01*
X361709Y54110D01*
X361712Y54093D01*
X361778Y53928D01*
X361841Y53761D01*
X361850Y53746D01*
X361856Y53731D01*
X361953Y53583D01*
X362049Y53431D01*
X362061Y53419D01*
X362070Y53405D01*
X362196Y53280D01*
X362321Y53151D01*
X362334Y53142D01*
X362346Y53130D01*
X362496Y53033D01*
X362643Y52933D01*
X362659Y52926D01*
X362673Y52917D01*
X362838Y52852D01*
X363004Y52784D01*
X363020Y52781D01*
X363036Y52775D01*
X363097Y52767D01*
X363387Y52712D01*
X363483Y52714D01*
X363545Y52706D01*
X370555Y52706D01*
X370654Y52716D01*
G37*
G36*
X548137Y369579D02*
X548137Y369579D01*
X548220Y369578D01*
X548330Y369599D01*
X548442Y369611D01*
X548521Y369636D01*
X548603Y369651D01*
X548707Y369695D01*
X548814Y369729D01*
X548886Y369769D01*
X548963Y369801D01*
X549055Y369865D01*
X549153Y369920D01*
X549216Y369974D01*
X549285Y370021D01*
X549362Y370102D01*
X549447Y370176D01*
X549497Y370242D01*
X549555Y370302D01*
X549596Y370373D01*
X549682Y370487D01*
X549769Y370669D01*
X549814Y370746D01*
X550077Y371381D01*
X550091Y371429D01*
X550112Y371474D01*
X550147Y371615D01*
X550188Y371755D01*
X550193Y371804D01*
X550204Y371853D01*
X550209Y371998D01*
X550221Y372143D01*
X550216Y372193D01*
X550217Y372243D01*
X550192Y372386D01*
X550175Y372530D01*
X550159Y372577D01*
X550150Y372627D01*
X550097Y372762D01*
X550050Y372900D01*
X550025Y372943D01*
X550007Y372989D01*
X549927Y373110D01*
X549853Y373236D01*
X549820Y373273D01*
X549792Y373315D01*
X549689Y373417D01*
X549592Y373525D01*
X549552Y373554D01*
X549516Y373590D01*
X549395Y373669D01*
X549277Y373755D01*
X549232Y373775D01*
X549190Y373803D01*
X549055Y373856D01*
X548922Y373916D01*
X548873Y373927D01*
X548827Y373945D01*
X548738Y373957D01*
X548542Y374001D01*
X548399Y374003D01*
X548318Y374014D01*
X540805Y374014D01*
X540739Y374007D01*
X540672Y374010D01*
X540545Y373988D01*
X540417Y373974D01*
X540354Y373954D01*
X540288Y373943D01*
X540169Y373895D01*
X540046Y373856D01*
X539988Y373824D01*
X539926Y373799D01*
X539819Y373728D01*
X539706Y373665D01*
X539656Y373621D01*
X539600Y373585D01*
X539509Y373494D01*
X539412Y373409D01*
X539372Y373356D01*
X539325Y373309D01*
X539255Y373201D01*
X539177Y373098D01*
X539149Y373038D01*
X539112Y372982D01*
X539065Y372862D01*
X539010Y372746D01*
X538994Y372681D01*
X538970Y372619D01*
X538958Y372533D01*
X538918Y372367D01*
X538913Y372197D01*
X538901Y372110D01*
X538901Y371475D01*
X538908Y371409D01*
X538905Y371342D01*
X538927Y371215D01*
X538941Y371087D01*
X538961Y371024D01*
X538972Y370958D01*
X539020Y370839D01*
X539059Y370716D01*
X539091Y370658D01*
X539116Y370596D01*
X539187Y370489D01*
X539250Y370376D01*
X539294Y370326D01*
X539330Y370270D01*
X539421Y370179D01*
X539506Y370082D01*
X539559Y370042D01*
X539606Y369995D01*
X539714Y369925D01*
X539817Y369847D01*
X539877Y369819D01*
X539933Y369782D01*
X540053Y369735D01*
X540169Y369680D01*
X540234Y369664D01*
X540296Y369640D01*
X540382Y369628D01*
X540548Y369588D01*
X540718Y369583D01*
X540805Y369571D01*
X548054Y369571D01*
X548137Y369579D01*
G37*
G36*
X753193Y326084D02*
X753193Y326084D01*
X753243Y326083D01*
X753386Y326108D01*
X753530Y326125D01*
X753577Y326141D01*
X753627Y326150D01*
X753762Y326203D01*
X753900Y326250D01*
X753943Y326275D01*
X753989Y326293D01*
X754110Y326373D01*
X754236Y326447D01*
X754273Y326480D01*
X754315Y326508D01*
X754417Y326611D01*
X754525Y326708D01*
X754554Y326748D01*
X754590Y326784D01*
X754669Y326905D01*
X754755Y327023D01*
X754775Y327068D01*
X754803Y327110D01*
X754856Y327245D01*
X754916Y327378D01*
X754927Y327427D01*
X754945Y327473D01*
X754957Y327562D01*
X755001Y327758D01*
X755003Y327901D01*
X755014Y327982D01*
X755014Y335495D01*
X755007Y335561D01*
X755010Y335628D01*
X754988Y335755D01*
X754974Y335883D01*
X754954Y335946D01*
X754943Y336012D01*
X754895Y336131D01*
X754856Y336254D01*
X754824Y336312D01*
X754799Y336374D01*
X754728Y336481D01*
X754665Y336594D01*
X754621Y336644D01*
X754585Y336700D01*
X754494Y336791D01*
X754409Y336888D01*
X754356Y336928D01*
X754309Y336975D01*
X754201Y337045D01*
X754098Y337123D01*
X754038Y337151D01*
X753982Y337188D01*
X753862Y337235D01*
X753746Y337290D01*
X753681Y337306D01*
X753619Y337330D01*
X753533Y337342D01*
X753367Y337382D01*
X753197Y337387D01*
X753110Y337399D01*
X752475Y337399D01*
X752409Y337392D01*
X752342Y337395D01*
X752215Y337373D01*
X752087Y337359D01*
X752024Y337339D01*
X751958Y337328D01*
X751839Y337280D01*
X751716Y337241D01*
X751658Y337209D01*
X751596Y337184D01*
X751489Y337113D01*
X751376Y337050D01*
X751326Y337006D01*
X751270Y336970D01*
X751179Y336879D01*
X751082Y336794D01*
X751042Y336741D01*
X750995Y336694D01*
X750925Y336586D01*
X750847Y336483D01*
X750819Y336423D01*
X750782Y336367D01*
X750735Y336247D01*
X750680Y336131D01*
X750664Y336066D01*
X750640Y336004D01*
X750628Y335918D01*
X750588Y335752D01*
X750583Y335582D01*
X750571Y335495D01*
X750571Y328246D01*
X750579Y328163D01*
X750578Y328080D01*
X750599Y327970D01*
X750611Y327858D01*
X750636Y327779D01*
X750651Y327697D01*
X750695Y327593D01*
X750729Y327486D01*
X750769Y327414D01*
X750801Y327337D01*
X750865Y327245D01*
X750920Y327147D01*
X750974Y327084D01*
X751021Y327015D01*
X751102Y326938D01*
X751176Y326853D01*
X751242Y326803D01*
X751302Y326745D01*
X751373Y326704D01*
X751487Y326618D01*
X751669Y326531D01*
X751746Y326486D01*
X752381Y326223D01*
X752429Y326209D01*
X752474Y326188D01*
X752615Y326153D01*
X752755Y326112D01*
X752804Y326107D01*
X752853Y326096D01*
X752998Y326091D01*
X753143Y326079D01*
X753193Y326084D01*
G37*
G36*
X184249Y145910D02*
X184249Y145910D01*
X184283Y145909D01*
X184442Y145937D01*
X184602Y145959D01*
X184634Y145970D01*
X184667Y145976D01*
X184817Y146035D01*
X184970Y146090D01*
X184998Y146107D01*
X185029Y146119D01*
X185164Y146208D01*
X185302Y146293D01*
X185327Y146315D01*
X185355Y146334D01*
X185469Y146449D01*
X185587Y146559D01*
X185606Y146586D01*
X185630Y146610D01*
X185718Y146746D01*
X185811Y146878D01*
X185824Y146908D01*
X185843Y146936D01*
X185902Y147087D01*
X185966Y147236D01*
X185973Y147268D01*
X185985Y147299D01*
X185996Y147382D01*
X186045Y147617D01*
X186044Y147736D01*
X186054Y147809D01*
X186054Y148590D01*
X186047Y148656D01*
X186050Y148723D01*
X186028Y148850D01*
X186014Y148978D01*
X185994Y149041D01*
X185983Y149107D01*
X185935Y149226D01*
X185896Y149349D01*
X185864Y149407D01*
X185839Y149469D01*
X185768Y149576D01*
X185705Y149689D01*
X185661Y149739D01*
X185625Y149795D01*
X185534Y149886D01*
X185449Y149983D01*
X185396Y150023D01*
X185349Y150070D01*
X185241Y150140D01*
X185138Y150218D01*
X185078Y150246D01*
X185022Y150283D01*
X184902Y150330D01*
X184786Y150385D01*
X184721Y150401D01*
X184659Y150425D01*
X184573Y150437D01*
X184407Y150477D01*
X184237Y150482D01*
X184150Y150494D01*
X183369Y150494D01*
X183335Y150491D01*
X183302Y150493D01*
X183142Y150471D01*
X182981Y150454D01*
X182949Y150444D01*
X182916Y150440D01*
X182764Y150385D01*
X182609Y150336D01*
X182580Y150320D01*
X182549Y150309D01*
X182411Y150225D01*
X182270Y150145D01*
X182245Y150123D01*
X182216Y150106D01*
X182098Y149995D01*
X181976Y149889D01*
X181956Y149862D01*
X181932Y149840D01*
X181838Y149707D01*
X181741Y149578D01*
X181726Y149548D01*
X181707Y149521D01*
X181643Y149372D01*
X181574Y149226D01*
X181566Y149194D01*
X181553Y149163D01*
X181520Y149004D01*
X181482Y148847D01*
X181481Y148814D01*
X181474Y148781D01*
X181474Y148619D01*
X181469Y148457D01*
X181475Y148425D01*
X181475Y148391D01*
X181508Y148233D01*
X181536Y148073D01*
X181548Y148043D01*
X181555Y148010D01*
X181620Y147861D01*
X181679Y147711D01*
X181698Y147683D01*
X181711Y147653D01*
X181761Y147586D01*
X181894Y147386D01*
X181978Y147302D01*
X182022Y147244D01*
X182804Y146462D01*
X182829Y146441D01*
X182851Y146416D01*
X182980Y146318D01*
X183106Y146216D01*
X183135Y146201D01*
X183162Y146181D01*
X183308Y146111D01*
X183452Y146037D01*
X183484Y146028D01*
X183514Y146014D01*
X183671Y145976D01*
X183827Y145932D01*
X183861Y145930D01*
X183893Y145922D01*
X184055Y145916D01*
X184216Y145906D01*
X184249Y145910D01*
G37*
D10*
X402200Y38100D03*
X385200Y38100D03*
X207400Y190500D03*
X224400Y190500D03*
X143900Y203200D03*
X160900Y203200D03*
X143900Y165100D03*
X160900Y165100D03*
D11*
X535700Y190500D03*
X505700Y190500D03*
D12*
X162400Y88900D03*
X102400Y88900D03*
X132400Y41900D03*
D13*
X279400Y241300D03*
X279400Y266700D03*
X304800Y241300D03*
X304800Y266700D03*
X330200Y241300D03*
X330200Y266700D03*
X355600Y241300D03*
X355600Y266700D03*
X381000Y241300D03*
X381000Y266700D03*
X406400Y241300D03*
X406400Y266700D03*
X431800Y241300D03*
X431800Y266700D03*
X457200Y241300D03*
X457200Y266700D03*
D14*
X228600Y266700D03*
X228600Y241300D03*
X203200Y266700D03*
X203200Y241300D03*
X177800Y266700D03*
X177800Y241300D03*
X152400Y266700D03*
X152400Y241300D03*
X127000Y266700D03*
X127000Y241300D03*
X101600Y266700D03*
X101600Y241300D03*
X76200Y266700D03*
X76200Y241300D03*
X50800Y266700D03*
X50800Y241300D03*
D15*
X736600Y127000D03*
D16*
X736600Y101600D03*
X736600Y76200D03*
D15*
X736600Y304800D03*
D16*
X736600Y279400D03*
X736600Y254000D03*
D15*
X571500Y355600D03*
D16*
X596900Y355600D03*
X622300Y355600D03*
D15*
X254000Y355600D03*
D16*
X279400Y355600D03*
X304800Y355600D03*
D17*
X580000Y190500D03*
X563000Y190500D03*
X702700Y177800D03*
X719700Y177800D03*
X770500Y177800D03*
X753500Y177800D03*
X702700Y355600D03*
X719700Y355600D03*
X770500Y355600D03*
X753500Y355600D03*
D10*
X520700Y321700D03*
X520700Y338700D03*
X520700Y389500D03*
X520700Y372500D03*
X203200Y309000D03*
X203200Y326000D03*
X203200Y376800D03*
X203200Y359800D03*
D18*
X851500Y330200D03*
X876500Y330200D03*
X901500Y330200D03*
X926500Y330200D03*
D19*
X543800Y455700D03*
X569300Y455700D03*
X594800Y455700D03*
X619800Y455700D03*
X645300Y455700D03*
X670800Y455700D03*
X696300Y455700D03*
X721800Y455700D03*
X747300Y455700D03*
X747300Y429200D03*
X721800Y429200D03*
X696300Y429200D03*
X670800Y429200D03*
X645300Y429200D03*
X619800Y429200D03*
X594800Y429200D03*
X569300Y429200D03*
X543800Y429200D03*
X518800Y429200D03*
D20*
X228600Y412750D03*
D21*
X203200Y412750D03*
D20*
X254000Y412750D03*
X279400Y412750D03*
X304800Y412750D03*
X330200Y412750D03*
D22*
X842700Y198700D03*
X842700Y131500D03*
X909900Y131500D03*
X909900Y198700D03*
X828800Y165100D03*
X923800Y165100D03*
D23*
X107188Y154686D03*
X107188Y177800D03*
X107188Y200914D03*
D24*
X45210Y177800D03*
D25*
X584200Y152400D03*
D26*
X558800Y152400D03*
X533400Y152400D03*
X508000Y152400D03*
X482600Y152400D03*
X457200Y152400D03*
X431800Y152400D03*
X406400Y152400D03*
X381000Y152400D03*
X355600Y152400D03*
X330200Y152400D03*
X304800Y152400D03*
X279400Y152400D03*
X254000Y152400D03*
X254000Y76200D03*
X279400Y76200D03*
X304800Y76200D03*
X330200Y76200D03*
X355600Y76200D03*
X381000Y76200D03*
X406400Y76200D03*
X431800Y76200D03*
X457200Y76200D03*
X482600Y76200D03*
X508000Y76200D03*
X533400Y76200D03*
X558800Y76200D03*
X584200Y76200D03*
D27*
X377800Y190500D03*
X368300Y190500D03*
X358800Y190500D03*
D28*
X519430Y429260D02*
X544830Y454660D01*
X519430Y429260D02*
X518800Y429200D01*
X544830Y454660D02*
X543800Y455700D01*
X711200Y454660D02*
X721360Y454660D01*
X711200Y454660D02*
X697230Y440690D01*
X641350Y440690D01*
X631190Y430530D01*
X631190Y424180D01*
X624840Y417830D01*
X565150Y417830D01*
X554990Y427990D01*
X554990Y435610D01*
X541020Y449580D01*
X721360Y454660D02*
X721800Y455700D01*
X543800Y455700D02*
X541020Y449580D01*
X406400Y316230D02*
X406400Y266700D01*
X406400Y316230D02*
X518160Y427990D01*
X518800Y429200D01*
X736600Y427990D02*
X746760Y427990D01*
X736600Y427990D02*
X721360Y412750D01*
X636270Y412750D02*
X560070Y412750D01*
X636270Y412750D02*
X721360Y412750D01*
X560070Y412750D02*
X544830Y427990D01*
X746760Y427990D02*
X747300Y429200D01*
X544830Y427990D02*
X543800Y429200D01*
X415290Y241300D02*
X406400Y241300D01*
X415290Y241300D02*
X426720Y229870D01*
X516890Y229870D01*
X636270Y349250D01*
X636270Y412750D01*
D29*
X589280Y388620D02*
X520700Y388620D01*
X589280Y388620D02*
X622300Y355600D01*
X520700Y388620D02*
X520700Y389500D01*
X769620Y220980D02*
X769620Y177800D01*
X769620Y220980D02*
X736600Y254000D01*
X769620Y177800D02*
X770500Y177800D01*
X769620Y287020D02*
X769620Y355600D01*
X769620Y287020D02*
X736600Y254000D01*
X769620Y355600D02*
X770500Y355600D01*
X736600Y80010D02*
X736600Y76200D01*
X736600Y80010D02*
X768350Y111760D01*
X768350Y176530D01*
X770500Y177800D01*
X685800Y355600D02*
X674370Y355600D01*
X685800Y355600D02*
X695960Y365760D01*
X760730Y365760D01*
X769620Y356870D01*
X770500Y355600D01*
X391160Y33020D02*
X386080Y38100D01*
X391160Y33020D02*
X391160Y31750D01*
X394970Y27940D01*
X408940Y27940D01*
X431800Y50800D01*
X431800Y76200D01*
X386080Y38100D02*
X385200Y38100D01*
X368300Y190500D02*
X368300Y196850D01*
X374650Y203200D01*
X381000Y203200D01*
X406400Y177800D01*
X406400Y152400D01*
X199390Y165100D02*
X160900Y165100D01*
X199390Y165100D02*
X224790Y190500D01*
X224400Y190500D01*
X189230Y203200D02*
X160900Y203200D01*
X189230Y203200D02*
X196850Y210820D01*
X204470Y210820D01*
X210820Y204470D02*
X223520Y191770D01*
X210820Y204470D02*
X204470Y210820D01*
X223520Y191770D02*
X224400Y190500D01*
X196850Y369570D02*
X203200Y375920D01*
X196850Y369570D02*
X195580Y369570D01*
X114300Y288290D01*
X114300Y236220D01*
X115570Y234950D02*
X121920Y228600D01*
X115570Y234950D02*
X114300Y236220D01*
X121920Y228600D02*
X165100Y228600D01*
X177800Y241300D01*
X203200Y375920D02*
X203200Y376800D01*
X123190Y170180D02*
X107950Y154940D01*
X123190Y170180D02*
X123190Y185420D01*
X119380Y189230D01*
X95250Y189230D01*
X91440Y193040D01*
X91440Y210820D01*
X115570Y234950D01*
X107950Y154940D02*
X107188Y154686D01*
X210820Y204470D02*
X241300Y234950D01*
X241300Y246380D01*
X233680Y254000D01*
X190500Y254000D01*
X177800Y241300D01*
X336550Y228600D02*
X367030Y198120D01*
X336550Y228600D02*
X299720Y228600D01*
X292100Y236220D01*
X292100Y246380D01*
X284480Y254000D01*
X248920Y254000D01*
X241300Y246380D01*
X367030Y198120D02*
X368300Y190500D01*
X385200Y38100D02*
X273050Y38100D01*
X200660Y110490D01*
X200660Y163830D01*
X199390Y165100D01*
D30*
X674370Y355600D03*
D28*
X330200Y360680D02*
X330200Y412750D01*
X330200Y360680D02*
X247650Y278130D01*
X172720Y278130D01*
X163830Y269240D01*
X163830Y261620D01*
X157480Y255270D01*
X138430Y255270D01*
X127000Y266700D01*
X330200Y241300D02*
X339090Y241300D01*
X370840Y209550D01*
X425450Y209550D01*
X482600Y152400D01*
X279400Y355600D02*
X279400Y412750D01*
X185420Y299720D02*
X152400Y266700D01*
X185420Y299720D02*
X224790Y299720D01*
X279400Y354330D01*
X279400Y355600D01*
X596900Y72390D02*
X702310Y177800D01*
X596900Y72390D02*
X596900Y71120D01*
X589280Y63500D01*
X495300Y63500D01*
X482600Y76200D01*
X702310Y177800D02*
X702700Y177800D01*
X133350Y203200D02*
X109220Y203200D01*
X133350Y203200D02*
X143900Y203200D01*
X109220Y203200D02*
X107950Y201930D01*
X107188Y200914D01*
X219710Y241300D02*
X228600Y241300D01*
X219710Y241300D02*
X195580Y217170D01*
X158750Y217170D01*
X144780Y203200D01*
X143900Y203200D01*
X133350Y203200D02*
X133350Y116840D01*
X161290Y88900D01*
X162400Y88900D01*
X843280Y132080D02*
X843280Y198120D01*
X843280Y132080D02*
X842700Y131500D01*
X843280Y198120D02*
X842700Y198700D01*
X279400Y220980D02*
X279400Y241300D01*
X279400Y220980D02*
X342900Y157480D01*
X342900Y147320D01*
X401320Y88900D01*
X444500Y88900D01*
X457200Y76200D01*
X811530Y130810D02*
X842010Y130810D01*
X811530Y130810D02*
X739140Y58420D01*
X474980Y58420D01*
X457200Y76200D01*
X842010Y130810D02*
X842700Y131500D01*
X753500Y177800D02*
X736600Y177800D01*
X719700Y177800D01*
X736600Y177800D02*
X736600Y127000D01*
X736600Y355600D02*
X753500Y355600D01*
X736600Y355600D02*
X719700Y355600D01*
X736600Y355600D02*
X736600Y304800D01*
X520700Y355600D02*
X520700Y372500D01*
X520700Y355600D02*
X520700Y338700D01*
X520700Y355600D02*
X571500Y355600D01*
X702310Y355600D02*
X702310Y237490D01*
X560070Y95250D01*
X702310Y355600D02*
X702700Y355600D01*
D30*
X560070Y95250D03*
D28*
X520700Y313690D02*
X520700Y321700D01*
X520700Y313690D02*
X462280Y255270D01*
X401320Y255270D01*
X392430Y264160D01*
X392430Y271780D01*
X386080Y278130D01*
X341630Y278130D01*
X330200Y266700D01*
X203200Y355600D02*
X203200Y359800D01*
X203200Y355600D02*
X203200Y326000D01*
X203200Y355600D02*
X254000Y355600D01*
X203200Y359410D02*
X203200Y359800D01*
X237490Y344170D02*
X203200Y309880D01*
X203200Y309000D01*
X558800Y83820D02*
X558800Y76200D01*
X558800Y83820D02*
X495300Y147320D01*
X495300Y157480D01*
X427990Y224790D01*
X406400Y224790D01*
X392430Y238760D01*
X392430Y246380D01*
X383540Y255270D01*
X367030Y255270D01*
X355600Y266700D01*
D30*
X237490Y344170D03*
D29*
X85090Y177800D02*
X45210Y177800D01*
X85090Y177800D02*
X91440Y177800D01*
X107188Y177800D01*
X144780Y165100D02*
X149860Y170180D01*
X149860Y171450D01*
X168910Y190500D01*
X200660Y190500D02*
X207400Y190500D01*
X200660Y190500D02*
X168910Y190500D01*
X144780Y165100D02*
X143900Y165100D01*
X200660Y190500D02*
X200660Y201930D01*
X91440Y177800D02*
X91440Y137160D01*
X135890Y92710D01*
X135890Y77470D01*
X151130Y62230D01*
X172720Y62230D01*
X189230Y78740D01*
X189230Y119380D01*
X144780Y163830D01*
X143900Y165100D01*
X570230Y429260D02*
X595630Y454660D01*
X570230Y429260D02*
X569300Y429200D01*
X595630Y454660D02*
X594800Y455700D01*
X595630Y453390D02*
X619760Y429260D01*
X619800Y429200D01*
X595630Y453390D02*
X594800Y455700D01*
X312420Y412750D02*
X304800Y412750D01*
X312420Y412750D02*
X367030Y467360D01*
X548640Y467360D01*
X557530Y458470D01*
X557530Y449580D01*
X572770Y434340D01*
X569300Y429200D01*
X563000Y190500D02*
X554990Y190500D01*
X542290Y203200D01*
X519430Y203200D01*
X506730Y190500D01*
X505700Y190500D01*
X476250Y190500D01*
X910590Y152400D02*
X910590Y132080D01*
X910590Y152400D02*
X923290Y165100D01*
X910590Y132080D02*
X909900Y131500D01*
X923290Y165100D02*
X923800Y165100D01*
X852170Y256540D02*
X852170Y330200D01*
X852170Y256540D02*
X909320Y199390D01*
X852170Y330200D02*
X851500Y330200D01*
X909320Y199390D02*
X909900Y198700D01*
X922020Y185420D02*
X922020Y166370D01*
X922020Y185420D02*
X910590Y196850D01*
X922020Y166370D02*
X923800Y165100D01*
X910590Y196850D02*
X909900Y198700D01*
X543560Y204470D02*
X543560Y237490D01*
X678180Y372110D01*
X759460Y372110D02*
X807720Y372110D01*
X759460Y372110D02*
X678180Y372110D01*
X807720Y372110D02*
X849630Y330200D01*
X543560Y204470D02*
X542290Y203200D01*
X849630Y330200D02*
X851500Y330200D01*
X633730Y450850D02*
X617220Y434340D01*
X633730Y450850D02*
X633730Y461010D01*
X640080Y467360D01*
X726440Y467360D01*
X735330Y458470D01*
X735330Y450850D01*
X745490Y440690D01*
X753110Y440690D01*
X759460Y434340D01*
X759460Y372110D01*
X619800Y429200D02*
X617220Y434340D01*
X85090Y232410D02*
X85090Y177800D01*
X85090Y232410D02*
X88900Y236220D01*
X88900Y279400D01*
X209550Y400050D01*
X259080Y400050D01*
X266700Y407670D01*
X266700Y417830D01*
X274320Y425450D01*
X292100Y425450D01*
X304800Y412750D01*
D30*
X200660Y201930D03*
X476250Y190500D03*
D28*
X402590Y72390D02*
X402590Y38100D01*
X402590Y72390D02*
X406400Y76200D01*
X402590Y38100D02*
X402200Y38100D01*
X378460Y154940D02*
X378460Y190500D01*
X378460Y154940D02*
X381000Y152400D01*
X378460Y190500D02*
X377800Y190500D01*
X358140Y190500D02*
X358140Y154940D01*
X355600Y152400D01*
X358140Y190500D02*
X358800Y190500D01*
X580390Y180340D02*
X580390Y156210D01*
X580390Y180340D02*
X580390Y190500D01*
X580390Y156210D02*
X584200Y152400D01*
X580390Y190500D02*
X580000Y190500D01*
X546100Y190500D02*
X535700Y190500D01*
X546100Y190500D02*
X556260Y180340D01*
X580390Y180340D01*
M02*
