M48
;GenerationSoftware,Autodesk,EAGLE,8.6.3*%
;CreationDate,2018-03-15T20:24:31Z*%
FMAT,2
ICI,OFF
METRIC,TZ,000.000
T9C0.350
T8C0.800
T7C0.900
T6C1.000
T5C1.016
T4C1.118
T3C1.200
T2C1.340
T1C2.997
%
G90
M71
T1
X10240Y8890
X16240Y8890
X13240Y4190
T2
X27940Y35560
X30480Y35560
X73660Y12700
X73660Y7620
X73660Y27940
X73660Y25400
X73660Y10160
X57150Y35560
X59690Y35560
X62230Y35560
X25400Y35560
X73660Y30480
T3
X90990Y13150
X84270Y13150
X84270Y19870
X90990Y19870
X92380Y16510
X82880Y16510
T4
X50800Y15240
X53340Y15240
X55880Y15240
X58420Y15240
X25400Y15240
X48260Y15240
X45720Y15240
X43180Y15240
X40640Y15240
X38100Y15240
X35560Y15240
X33020Y15240
X30480Y15240
X27940Y15240
X25400Y7620
X27940Y7620
X30480Y7620
X33020Y7620
X35560Y7620
X38100Y7620
X40640Y7620
X43180Y7620
X45720Y7620
X48260Y7620
X50800Y7620
X53340Y7620
X55880Y7620
X58420Y7620
T5
X12700Y26670
X12700Y24130
X10160Y26670
X10160Y24130
X7620Y26670
X7620Y24130
X5080Y26670
X5080Y24130
X17780Y26670
X35560Y24130
X27940Y24130
X27940Y26670
X30480Y24130
X30480Y26670
X33020Y24130
X33020Y26670
X35560Y26670
X38100Y24130
X38100Y26670
X40640Y24130
X40640Y26670
X43180Y24130
X43180Y26670
X45720Y24130
X45720Y26670
X22860Y26670
X22860Y24130
X20320Y26670
X20320Y24130
X17780Y24130
X15240Y26670
X15240Y24130
T6
X33020Y41275
X27940Y41275
X25400Y41275
X20320Y41275
X22860Y41275
X30480Y41275
T7
X56930Y42920
X54380Y42920
X51880Y42920
X74730Y42920
X59480Y45570
X61980Y45570
X64530Y45570
X67080Y45570
X69630Y45570
X72180Y45570
X74730Y45570
X54380Y45570
X72180Y42920
X56930Y45570
X69630Y42920
X67080Y42920
X64530Y42920
X61980Y42920
X59480Y42920
T8
X92650Y33020
X90150Y33020
X87650Y33020
X85150Y33020
T9
X23749Y34417
X20066Y20193
X47625Y19050
X67437Y35560
X56007Y9525
M30