G04 EAGLE Gerber X2 export*
%TF.Part,Single*%
%TF.FileFunction,Legend,Top,1*%
%TF.FilePolarity,Positive*%
%TF.GenerationSoftware,Autodesk,EAGLE,8.6.3*%
%TF.CreationDate,2018-03-15T12:54:08Z*%
G75*
%MOMM*%
%FSLAX34Y34*%
%LPD*%
%AMOC8*
5,1,8,0,0,1.08239X$1,22.5*%
G01*
%ADD10C,0.101600*%
%ADD11C,0.203200*%
%ADD12C,0.127000*%
%ADD13C,0.152400*%
%ADD14C,0.200000*%
%ADD15C,0.076200*%
%ADD16C,0.050800*%
%ADD17C,0.254000*%


D10*
X388686Y19558D02*
X386089Y19558D01*
X385990Y19560D01*
X385890Y19566D01*
X385791Y19575D01*
X385693Y19588D01*
X385595Y19605D01*
X385497Y19626D01*
X385401Y19651D01*
X385306Y19679D01*
X385212Y19711D01*
X385119Y19746D01*
X385027Y19785D01*
X384937Y19828D01*
X384849Y19873D01*
X384762Y19923D01*
X384678Y19975D01*
X384595Y20031D01*
X384515Y20089D01*
X384437Y20151D01*
X384362Y20216D01*
X384289Y20284D01*
X384219Y20354D01*
X384151Y20427D01*
X384086Y20502D01*
X384024Y20580D01*
X383966Y20660D01*
X383910Y20743D01*
X383858Y20827D01*
X383808Y20914D01*
X383763Y21002D01*
X383720Y21092D01*
X383681Y21184D01*
X383646Y21277D01*
X383614Y21371D01*
X383586Y21466D01*
X383561Y21562D01*
X383540Y21660D01*
X383523Y21758D01*
X383510Y21856D01*
X383501Y21955D01*
X383495Y22055D01*
X383493Y22154D01*
X383493Y28646D01*
X383495Y28745D01*
X383501Y28845D01*
X383510Y28944D01*
X383523Y29042D01*
X383540Y29140D01*
X383561Y29238D01*
X383586Y29334D01*
X383614Y29429D01*
X383646Y29523D01*
X383681Y29616D01*
X383720Y29708D01*
X383763Y29798D01*
X383808Y29886D01*
X383858Y29973D01*
X383910Y30057D01*
X383966Y30140D01*
X384024Y30220D01*
X384086Y30298D01*
X384151Y30373D01*
X384219Y30446D01*
X384289Y30516D01*
X384362Y30584D01*
X384437Y30649D01*
X384515Y30711D01*
X384595Y30769D01*
X384678Y30825D01*
X384762Y30877D01*
X384849Y30927D01*
X384937Y30972D01*
X385027Y31015D01*
X385119Y31054D01*
X385211Y31089D01*
X385306Y31121D01*
X385401Y31149D01*
X385497Y31174D01*
X385595Y31195D01*
X385693Y31212D01*
X385791Y31225D01*
X385890Y31234D01*
X385990Y31240D01*
X386089Y31242D01*
X388686Y31242D01*
X393051Y28646D02*
X396296Y31242D01*
X396296Y19558D01*
X393051Y19558D02*
X399542Y19558D01*
X215251Y197358D02*
X212654Y197358D01*
X212555Y197360D01*
X212455Y197366D01*
X212356Y197375D01*
X212258Y197388D01*
X212160Y197405D01*
X212062Y197426D01*
X211966Y197451D01*
X211871Y197479D01*
X211777Y197511D01*
X211684Y197546D01*
X211592Y197585D01*
X211502Y197628D01*
X211414Y197673D01*
X211327Y197723D01*
X211243Y197775D01*
X211160Y197831D01*
X211080Y197889D01*
X211002Y197951D01*
X210927Y198016D01*
X210854Y198084D01*
X210784Y198154D01*
X210716Y198227D01*
X210651Y198302D01*
X210589Y198380D01*
X210531Y198460D01*
X210475Y198543D01*
X210423Y198627D01*
X210373Y198714D01*
X210328Y198802D01*
X210285Y198892D01*
X210246Y198984D01*
X210211Y199077D01*
X210179Y199171D01*
X210151Y199266D01*
X210126Y199362D01*
X210105Y199460D01*
X210088Y199558D01*
X210075Y199656D01*
X210066Y199755D01*
X210060Y199855D01*
X210058Y199954D01*
X210058Y206446D01*
X210060Y206545D01*
X210066Y206645D01*
X210075Y206744D01*
X210088Y206842D01*
X210105Y206940D01*
X210126Y207038D01*
X210151Y207134D01*
X210179Y207229D01*
X210211Y207323D01*
X210246Y207416D01*
X210285Y207508D01*
X210328Y207598D01*
X210373Y207686D01*
X210423Y207773D01*
X210475Y207857D01*
X210531Y207940D01*
X210589Y208020D01*
X210651Y208098D01*
X210716Y208173D01*
X210784Y208246D01*
X210854Y208316D01*
X210927Y208384D01*
X211002Y208449D01*
X211080Y208511D01*
X211160Y208569D01*
X211243Y208625D01*
X211327Y208677D01*
X211414Y208727D01*
X211502Y208772D01*
X211592Y208815D01*
X211684Y208854D01*
X211776Y208889D01*
X211871Y208921D01*
X211966Y208949D01*
X212062Y208974D01*
X212160Y208995D01*
X212258Y209012D01*
X212356Y209025D01*
X212455Y209034D01*
X212555Y209040D01*
X212654Y209042D01*
X215251Y209042D01*
X223186Y209042D02*
X223293Y209040D01*
X223399Y209034D01*
X223505Y209024D01*
X223611Y209011D01*
X223717Y208993D01*
X223821Y208972D01*
X223925Y208947D01*
X224028Y208918D01*
X224129Y208886D01*
X224229Y208849D01*
X224328Y208809D01*
X224426Y208766D01*
X224522Y208719D01*
X224616Y208668D01*
X224708Y208614D01*
X224798Y208557D01*
X224886Y208497D01*
X224971Y208433D01*
X225054Y208366D01*
X225135Y208296D01*
X225213Y208224D01*
X225289Y208148D01*
X225361Y208070D01*
X225431Y207989D01*
X225498Y207906D01*
X225562Y207821D01*
X225622Y207733D01*
X225679Y207643D01*
X225733Y207551D01*
X225784Y207457D01*
X225831Y207361D01*
X225874Y207263D01*
X225914Y207164D01*
X225951Y207064D01*
X225983Y206963D01*
X226012Y206860D01*
X226037Y206756D01*
X226058Y206652D01*
X226076Y206546D01*
X226089Y206440D01*
X226099Y206334D01*
X226105Y206228D01*
X226107Y206121D01*
X223186Y209042D02*
X223065Y209040D01*
X222944Y209034D01*
X222824Y209024D01*
X222703Y209011D01*
X222584Y208993D01*
X222464Y208972D01*
X222346Y208947D01*
X222229Y208918D01*
X222112Y208885D01*
X221997Y208849D01*
X221883Y208808D01*
X221770Y208765D01*
X221658Y208717D01*
X221549Y208666D01*
X221441Y208611D01*
X221334Y208553D01*
X221230Y208492D01*
X221128Y208427D01*
X221028Y208359D01*
X220930Y208288D01*
X220834Y208214D01*
X220741Y208137D01*
X220651Y208056D01*
X220563Y207973D01*
X220478Y207887D01*
X220395Y207798D01*
X220316Y207707D01*
X220239Y207613D01*
X220166Y207517D01*
X220096Y207419D01*
X220029Y207318D01*
X219965Y207215D01*
X219905Y207110D01*
X219848Y207003D01*
X219794Y206895D01*
X219744Y206785D01*
X219698Y206673D01*
X219655Y206560D01*
X219616Y206445D01*
X225134Y203849D02*
X225213Y203926D01*
X225289Y204007D01*
X225362Y204090D01*
X225432Y204175D01*
X225499Y204263D01*
X225563Y204353D01*
X225623Y204445D01*
X225680Y204540D01*
X225734Y204636D01*
X225785Y204734D01*
X225832Y204834D01*
X225876Y204936D01*
X225916Y205039D01*
X225952Y205143D01*
X225984Y205249D01*
X226013Y205355D01*
X226038Y205463D01*
X226060Y205571D01*
X226077Y205681D01*
X226091Y205790D01*
X226100Y205900D01*
X226106Y206011D01*
X226108Y206121D01*
X225134Y203849D02*
X219616Y197358D01*
X226107Y197358D01*
X151751Y210058D02*
X149154Y210058D01*
X149055Y210060D01*
X148955Y210066D01*
X148856Y210075D01*
X148758Y210088D01*
X148660Y210105D01*
X148562Y210126D01*
X148466Y210151D01*
X148371Y210179D01*
X148277Y210211D01*
X148184Y210246D01*
X148092Y210285D01*
X148002Y210328D01*
X147914Y210373D01*
X147827Y210423D01*
X147743Y210475D01*
X147660Y210531D01*
X147580Y210589D01*
X147502Y210651D01*
X147427Y210716D01*
X147354Y210784D01*
X147284Y210854D01*
X147216Y210927D01*
X147151Y211002D01*
X147089Y211080D01*
X147031Y211160D01*
X146975Y211243D01*
X146923Y211327D01*
X146873Y211414D01*
X146828Y211502D01*
X146785Y211592D01*
X146746Y211684D01*
X146711Y211777D01*
X146679Y211871D01*
X146651Y211966D01*
X146626Y212062D01*
X146605Y212160D01*
X146588Y212258D01*
X146575Y212356D01*
X146566Y212455D01*
X146560Y212555D01*
X146558Y212654D01*
X146558Y219146D01*
X146560Y219245D01*
X146566Y219345D01*
X146575Y219444D01*
X146588Y219542D01*
X146605Y219640D01*
X146626Y219738D01*
X146651Y219834D01*
X146679Y219929D01*
X146711Y220023D01*
X146746Y220116D01*
X146785Y220208D01*
X146828Y220298D01*
X146873Y220386D01*
X146923Y220473D01*
X146975Y220557D01*
X147031Y220640D01*
X147089Y220720D01*
X147151Y220798D01*
X147216Y220873D01*
X147284Y220946D01*
X147354Y221016D01*
X147427Y221084D01*
X147502Y221149D01*
X147580Y221211D01*
X147660Y221269D01*
X147743Y221325D01*
X147827Y221377D01*
X147914Y221427D01*
X148002Y221472D01*
X148092Y221515D01*
X148184Y221554D01*
X148276Y221589D01*
X148371Y221621D01*
X148466Y221649D01*
X148562Y221674D01*
X148660Y221695D01*
X148758Y221712D01*
X148856Y221725D01*
X148955Y221734D01*
X149055Y221740D01*
X149154Y221742D01*
X151751Y221742D01*
X156116Y210058D02*
X159362Y210058D01*
X159475Y210060D01*
X159588Y210066D01*
X159701Y210076D01*
X159814Y210090D01*
X159926Y210107D01*
X160037Y210129D01*
X160147Y210154D01*
X160257Y210184D01*
X160365Y210217D01*
X160472Y210254D01*
X160578Y210294D01*
X160682Y210339D01*
X160785Y210387D01*
X160886Y210438D01*
X160985Y210493D01*
X161082Y210551D01*
X161177Y210613D01*
X161270Y210678D01*
X161360Y210746D01*
X161448Y210817D01*
X161534Y210892D01*
X161617Y210969D01*
X161697Y211049D01*
X161774Y211132D01*
X161849Y211218D01*
X161920Y211306D01*
X161988Y211396D01*
X162053Y211489D01*
X162115Y211584D01*
X162173Y211681D01*
X162228Y211780D01*
X162279Y211881D01*
X162327Y211984D01*
X162372Y212088D01*
X162412Y212194D01*
X162449Y212301D01*
X162482Y212409D01*
X162512Y212519D01*
X162537Y212629D01*
X162559Y212740D01*
X162576Y212852D01*
X162590Y212965D01*
X162600Y213078D01*
X162606Y213191D01*
X162608Y213304D01*
X162606Y213417D01*
X162600Y213530D01*
X162590Y213643D01*
X162576Y213756D01*
X162559Y213868D01*
X162537Y213979D01*
X162512Y214089D01*
X162482Y214199D01*
X162449Y214307D01*
X162412Y214414D01*
X162372Y214520D01*
X162327Y214624D01*
X162279Y214727D01*
X162228Y214828D01*
X162173Y214927D01*
X162115Y215024D01*
X162053Y215119D01*
X161988Y215212D01*
X161920Y215302D01*
X161849Y215390D01*
X161774Y215476D01*
X161697Y215559D01*
X161617Y215639D01*
X161534Y215716D01*
X161448Y215791D01*
X161360Y215862D01*
X161270Y215930D01*
X161177Y215995D01*
X161082Y216057D01*
X160985Y216115D01*
X160886Y216170D01*
X160785Y216221D01*
X160682Y216269D01*
X160578Y216314D01*
X160472Y216354D01*
X160365Y216391D01*
X160257Y216424D01*
X160147Y216454D01*
X160037Y216479D01*
X159926Y216501D01*
X159814Y216518D01*
X159701Y216532D01*
X159588Y216542D01*
X159475Y216548D01*
X159362Y216550D01*
X160011Y221742D02*
X156116Y221742D01*
X160011Y221742D02*
X160112Y221740D01*
X160212Y221734D01*
X160312Y221724D01*
X160412Y221711D01*
X160511Y221693D01*
X160610Y221672D01*
X160707Y221647D01*
X160804Y221618D01*
X160899Y221585D01*
X160993Y221549D01*
X161085Y221509D01*
X161176Y221466D01*
X161265Y221419D01*
X161352Y221369D01*
X161438Y221315D01*
X161521Y221258D01*
X161601Y221198D01*
X161680Y221135D01*
X161756Y221068D01*
X161829Y220999D01*
X161899Y220927D01*
X161967Y220853D01*
X162032Y220776D01*
X162093Y220696D01*
X162152Y220614D01*
X162207Y220530D01*
X162259Y220444D01*
X162308Y220356D01*
X162353Y220266D01*
X162395Y220174D01*
X162433Y220081D01*
X162467Y219986D01*
X162498Y219891D01*
X162525Y219794D01*
X162548Y219696D01*
X162568Y219597D01*
X162583Y219497D01*
X162595Y219397D01*
X162603Y219297D01*
X162607Y219196D01*
X162607Y219096D01*
X162603Y218995D01*
X162595Y218895D01*
X162583Y218795D01*
X162568Y218695D01*
X162548Y218596D01*
X162525Y218498D01*
X162498Y218401D01*
X162467Y218306D01*
X162433Y218211D01*
X162395Y218118D01*
X162353Y218026D01*
X162308Y217936D01*
X162259Y217848D01*
X162207Y217762D01*
X162152Y217678D01*
X162093Y217596D01*
X162032Y217516D01*
X161967Y217439D01*
X161899Y217365D01*
X161829Y217293D01*
X161756Y217224D01*
X161680Y217157D01*
X161601Y217094D01*
X161521Y217034D01*
X161438Y216977D01*
X161352Y216923D01*
X161265Y216873D01*
X161176Y216826D01*
X161085Y216783D01*
X160993Y216743D01*
X160899Y216707D01*
X160804Y216674D01*
X160707Y216645D01*
X160610Y216620D01*
X160511Y216599D01*
X160412Y216581D01*
X160312Y216568D01*
X160212Y216558D01*
X160112Y216552D01*
X160011Y216550D01*
X160011Y216549D02*
X157414Y216549D01*
X151751Y171958D02*
X149154Y171958D01*
X149055Y171960D01*
X148955Y171966D01*
X148856Y171975D01*
X148758Y171988D01*
X148660Y172005D01*
X148562Y172026D01*
X148466Y172051D01*
X148371Y172079D01*
X148277Y172111D01*
X148184Y172146D01*
X148092Y172185D01*
X148002Y172228D01*
X147914Y172273D01*
X147827Y172323D01*
X147743Y172375D01*
X147660Y172431D01*
X147580Y172489D01*
X147502Y172551D01*
X147427Y172616D01*
X147354Y172684D01*
X147284Y172754D01*
X147216Y172827D01*
X147151Y172902D01*
X147089Y172980D01*
X147031Y173060D01*
X146975Y173143D01*
X146923Y173227D01*
X146873Y173314D01*
X146828Y173402D01*
X146785Y173492D01*
X146746Y173584D01*
X146711Y173677D01*
X146679Y173771D01*
X146651Y173866D01*
X146626Y173962D01*
X146605Y174060D01*
X146588Y174158D01*
X146575Y174256D01*
X146566Y174355D01*
X146560Y174455D01*
X146558Y174554D01*
X146558Y181046D01*
X146560Y181145D01*
X146566Y181245D01*
X146575Y181344D01*
X146588Y181442D01*
X146605Y181540D01*
X146626Y181638D01*
X146651Y181734D01*
X146679Y181829D01*
X146711Y181923D01*
X146746Y182016D01*
X146785Y182108D01*
X146828Y182198D01*
X146873Y182286D01*
X146923Y182373D01*
X146975Y182457D01*
X147031Y182540D01*
X147089Y182620D01*
X147151Y182698D01*
X147216Y182773D01*
X147284Y182846D01*
X147354Y182916D01*
X147427Y182984D01*
X147502Y183049D01*
X147580Y183111D01*
X147660Y183169D01*
X147743Y183225D01*
X147827Y183277D01*
X147914Y183327D01*
X148002Y183372D01*
X148092Y183415D01*
X148184Y183454D01*
X148276Y183489D01*
X148371Y183521D01*
X148466Y183549D01*
X148562Y183574D01*
X148660Y183595D01*
X148758Y183612D01*
X148856Y183625D01*
X148955Y183634D01*
X149055Y183640D01*
X149154Y183642D01*
X151751Y183642D01*
X158713Y183642D02*
X156116Y174554D01*
X162607Y174554D01*
X160660Y177151D02*
X160660Y171958D01*
D11*
X496700Y183675D02*
X496700Y197325D01*
D12*
X516525Y180340D02*
X516525Y175514D01*
X516525Y180340D02*
X517865Y180340D01*
X517935Y180338D01*
X518005Y180333D01*
X518075Y180323D01*
X518144Y180311D01*
X518212Y180294D01*
X518279Y180274D01*
X518346Y180251D01*
X518410Y180224D01*
X518474Y180194D01*
X518536Y180160D01*
X518595Y180124D01*
X518653Y180084D01*
X518709Y180041D01*
X518762Y179996D01*
X518813Y179947D01*
X518862Y179896D01*
X518907Y179843D01*
X518950Y179787D01*
X518990Y179729D01*
X519026Y179670D01*
X519060Y179608D01*
X519090Y179544D01*
X519117Y179480D01*
X519140Y179413D01*
X519160Y179346D01*
X519177Y179278D01*
X519189Y179209D01*
X519199Y179139D01*
X519204Y179069D01*
X519206Y178999D01*
X519206Y176855D01*
X519204Y176785D01*
X519199Y176715D01*
X519189Y176645D01*
X519177Y176576D01*
X519160Y176508D01*
X519140Y176441D01*
X519117Y176374D01*
X519090Y176310D01*
X519060Y176246D01*
X519026Y176184D01*
X518990Y176125D01*
X518950Y176067D01*
X518907Y176011D01*
X518862Y175958D01*
X518813Y175907D01*
X518762Y175858D01*
X518709Y175813D01*
X518653Y175770D01*
X518595Y175730D01*
X518535Y175694D01*
X518474Y175660D01*
X518410Y175630D01*
X518346Y175603D01*
X518279Y175580D01*
X518212Y175560D01*
X518144Y175543D01*
X518075Y175531D01*
X518005Y175521D01*
X517935Y175516D01*
X517865Y175514D01*
X516525Y175514D01*
X522194Y179268D02*
X523535Y180340D01*
X523535Y175514D01*
X524875Y175514D02*
X522194Y175514D01*
D11*
X162400Y64900D02*
X162400Y43900D01*
X108400Y43900D02*
X55400Y43900D01*
X155400Y43900D02*
X162400Y43900D01*
X162400Y133900D02*
X55400Y133900D01*
X162400Y133900D02*
X162400Y112900D01*
X55400Y133900D02*
X55400Y43900D01*
D12*
X48077Y96352D02*
X44323Y96352D01*
X48077Y96352D02*
X48142Y96350D01*
X48206Y96344D01*
X48270Y96334D01*
X48334Y96321D01*
X48396Y96303D01*
X48457Y96282D01*
X48517Y96258D01*
X48575Y96229D01*
X48632Y96197D01*
X48686Y96162D01*
X48738Y96124D01*
X48788Y96082D01*
X48835Y96038D01*
X48879Y95991D01*
X48921Y95941D01*
X48959Y95889D01*
X48994Y95835D01*
X49026Y95778D01*
X49055Y95720D01*
X49079Y95660D01*
X49100Y95599D01*
X49118Y95537D01*
X49131Y95473D01*
X49141Y95409D01*
X49147Y95345D01*
X49149Y95280D01*
X49149Y94743D01*
X45395Y99300D02*
X44323Y100640D01*
X49149Y100640D01*
X49149Y99300D02*
X49149Y101981D01*
D13*
X266700Y234950D02*
X273050Y228600D01*
X285750Y228600D02*
X292100Y234950D01*
X298450Y228600D01*
X311150Y228600D02*
X317500Y234950D01*
X323850Y228600D01*
X336550Y228600D02*
X342900Y234950D01*
X349250Y228600D01*
X361950Y228600D02*
X368300Y234950D01*
X374650Y228600D01*
X387350Y228600D02*
X393700Y234950D01*
X400050Y228600D01*
X412750Y228600D02*
X419100Y234950D01*
X266700Y234950D02*
X266700Y273050D01*
X273050Y279400D01*
X285750Y279400D01*
X292100Y273050D01*
X298450Y279400D01*
X311150Y279400D01*
X317500Y273050D01*
X323850Y279400D01*
X336550Y279400D01*
X342900Y273050D01*
X349250Y279400D01*
X361950Y279400D01*
X368300Y273050D01*
X374650Y279400D01*
X387350Y279400D01*
X393700Y273050D01*
X400050Y279400D01*
X412750Y279400D01*
X419100Y273050D01*
X425450Y279400D01*
X438150Y279400D01*
X444500Y273050D01*
X444500Y234950D02*
X438150Y228600D01*
X425450Y228600D02*
X419100Y234950D01*
X292100Y234950D02*
X292100Y273050D01*
X317500Y273050D02*
X317500Y234950D01*
X342900Y234950D02*
X342900Y273050D01*
X368300Y273050D02*
X368300Y234950D01*
X393700Y234950D02*
X393700Y273050D01*
X419100Y273050D02*
X419100Y234950D01*
X444500Y234950D02*
X444500Y273050D01*
X438150Y228600D02*
X425450Y228600D01*
X412750Y228600D02*
X400050Y228600D01*
X387350Y228600D02*
X374650Y228600D01*
X361950Y228600D02*
X349250Y228600D01*
X336550Y228600D02*
X323850Y228600D01*
X311150Y228600D02*
X298450Y228600D01*
X285750Y228600D02*
X273050Y228600D01*
X444500Y273050D02*
X450850Y279400D01*
X463550Y279400D01*
X469900Y273050D01*
X469900Y234950D02*
X463550Y228600D01*
X450850Y228600D02*
X444500Y234950D01*
X469900Y234950D02*
X469900Y273050D01*
X463550Y228600D02*
X450850Y228600D01*
D12*
X271145Y288925D02*
X271145Y297815D01*
X271145Y288925D02*
X271143Y288825D01*
X271137Y288726D01*
X271127Y288626D01*
X271114Y288528D01*
X271096Y288429D01*
X271075Y288332D01*
X271050Y288236D01*
X271021Y288140D01*
X270988Y288046D01*
X270952Y287953D01*
X270912Y287862D01*
X270868Y287772D01*
X270821Y287684D01*
X270771Y287598D01*
X270717Y287514D01*
X270660Y287432D01*
X270600Y287353D01*
X270536Y287275D01*
X270470Y287201D01*
X270401Y287129D01*
X270329Y287060D01*
X270255Y286994D01*
X270177Y286930D01*
X270098Y286870D01*
X270016Y286813D01*
X269932Y286759D01*
X269846Y286709D01*
X269758Y286662D01*
X269668Y286618D01*
X269577Y286578D01*
X269484Y286542D01*
X269390Y286509D01*
X269294Y286480D01*
X269198Y286455D01*
X269101Y286434D01*
X269002Y286416D01*
X268904Y286403D01*
X268804Y286393D01*
X268705Y286387D01*
X268605Y286385D01*
X267335Y286385D01*
X277125Y286385D02*
X277125Y297815D01*
X280300Y297815D01*
X280411Y297813D01*
X280521Y297807D01*
X280632Y297798D01*
X280742Y297784D01*
X280851Y297767D01*
X280960Y297746D01*
X281068Y297721D01*
X281175Y297692D01*
X281281Y297660D01*
X281386Y297624D01*
X281489Y297584D01*
X281591Y297541D01*
X281692Y297494D01*
X281791Y297443D01*
X281888Y297390D01*
X281982Y297333D01*
X282075Y297272D01*
X282166Y297209D01*
X282255Y297142D01*
X282341Y297072D01*
X282424Y296999D01*
X282506Y296924D01*
X282584Y296846D01*
X282659Y296764D01*
X282732Y296681D01*
X282802Y296595D01*
X282869Y296506D01*
X282932Y296415D01*
X282993Y296322D01*
X283050Y296227D01*
X283103Y296131D01*
X283154Y296032D01*
X283201Y295931D01*
X283244Y295829D01*
X283284Y295726D01*
X283320Y295621D01*
X283352Y295515D01*
X283381Y295408D01*
X283406Y295300D01*
X283427Y295191D01*
X283444Y295082D01*
X283458Y294972D01*
X283467Y294861D01*
X283473Y294751D01*
X283475Y294640D01*
X283473Y294529D01*
X283467Y294419D01*
X283458Y294308D01*
X283444Y294198D01*
X283427Y294089D01*
X283406Y293980D01*
X283381Y293872D01*
X283352Y293765D01*
X283320Y293659D01*
X283284Y293554D01*
X283244Y293451D01*
X283201Y293349D01*
X283154Y293248D01*
X283103Y293149D01*
X283050Y293052D01*
X282993Y292958D01*
X282932Y292865D01*
X282869Y292774D01*
X282802Y292685D01*
X282732Y292599D01*
X282659Y292516D01*
X282584Y292434D01*
X282506Y292356D01*
X282424Y292281D01*
X282341Y292208D01*
X282255Y292138D01*
X282166Y292071D01*
X282075Y292008D01*
X281982Y291947D01*
X281888Y291890D01*
X281791Y291837D01*
X281692Y291786D01*
X281591Y291739D01*
X281489Y291696D01*
X281386Y291656D01*
X281281Y291620D01*
X281175Y291588D01*
X281068Y291559D01*
X280960Y291534D01*
X280851Y291513D01*
X280742Y291496D01*
X280632Y291482D01*
X280521Y291473D01*
X280411Y291467D01*
X280300Y291465D01*
X277125Y291465D01*
X287984Y295275D02*
X291159Y297815D01*
X291159Y286385D01*
X287984Y286385D02*
X294334Y286385D01*
D13*
X241300Y273050D02*
X234950Y279400D01*
X222250Y279400D02*
X215900Y273050D01*
X209550Y279400D01*
X196850Y279400D02*
X190500Y273050D01*
X184150Y279400D01*
X171450Y279400D02*
X165100Y273050D01*
X158750Y279400D01*
X146050Y279400D02*
X139700Y273050D01*
X133350Y279400D01*
X120650Y279400D02*
X114300Y273050D01*
X107950Y279400D01*
X95250Y279400D02*
X88900Y273050D01*
X241300Y273050D02*
X241300Y234950D01*
X234950Y228600D01*
X222250Y228600D01*
X215900Y234950D01*
X209550Y228600D01*
X196850Y228600D01*
X190500Y234950D01*
X184150Y228600D01*
X171450Y228600D01*
X165100Y234950D01*
X158750Y228600D01*
X146050Y228600D01*
X139700Y234950D01*
X133350Y228600D01*
X120650Y228600D01*
X114300Y234950D01*
X107950Y228600D01*
X95250Y228600D01*
X88900Y234950D01*
X82550Y228600D01*
X69850Y228600D01*
X63500Y234950D01*
X63500Y273050D02*
X69850Y279400D01*
X82550Y279400D02*
X88900Y273050D01*
X215900Y273050D02*
X215900Y234950D01*
X190500Y234950D02*
X190500Y273050D01*
X165100Y273050D02*
X165100Y234950D01*
X139700Y234950D02*
X139700Y273050D01*
X114300Y273050D02*
X114300Y234950D01*
X88900Y234950D02*
X88900Y273050D01*
X63500Y273050D02*
X63500Y234950D01*
X69850Y279400D02*
X82550Y279400D01*
X95250Y279400D02*
X107950Y279400D01*
X120650Y279400D02*
X133350Y279400D01*
X146050Y279400D02*
X158750Y279400D01*
X171450Y279400D02*
X184150Y279400D01*
X196850Y279400D02*
X209550Y279400D01*
X222250Y279400D02*
X234950Y279400D01*
X63500Y234950D02*
X57150Y228600D01*
X44450Y228600D01*
X38100Y234950D01*
X38100Y273050D02*
X44450Y279400D01*
X57150Y279400D02*
X63500Y273050D01*
X38100Y273050D02*
X38100Y234950D01*
X44450Y279400D02*
X57150Y279400D01*
D12*
X217476Y221615D02*
X217476Y212725D01*
X217474Y212625D01*
X217468Y212526D01*
X217458Y212426D01*
X217445Y212328D01*
X217427Y212229D01*
X217406Y212132D01*
X217381Y212036D01*
X217352Y211940D01*
X217319Y211846D01*
X217283Y211753D01*
X217243Y211662D01*
X217199Y211572D01*
X217152Y211484D01*
X217102Y211398D01*
X217048Y211314D01*
X216991Y211232D01*
X216931Y211153D01*
X216867Y211075D01*
X216801Y211001D01*
X216732Y210929D01*
X216660Y210860D01*
X216586Y210794D01*
X216508Y210730D01*
X216429Y210670D01*
X216347Y210613D01*
X216263Y210559D01*
X216177Y210509D01*
X216089Y210462D01*
X215999Y210418D01*
X215908Y210378D01*
X215815Y210342D01*
X215721Y210309D01*
X215625Y210280D01*
X215529Y210255D01*
X215432Y210234D01*
X215333Y210216D01*
X215235Y210203D01*
X215135Y210193D01*
X215036Y210187D01*
X214936Y210185D01*
X213666Y210185D01*
X223457Y210185D02*
X223457Y221615D01*
X226632Y221615D01*
X226743Y221613D01*
X226853Y221607D01*
X226964Y221598D01*
X227074Y221584D01*
X227183Y221567D01*
X227292Y221546D01*
X227400Y221521D01*
X227507Y221492D01*
X227613Y221460D01*
X227718Y221424D01*
X227821Y221384D01*
X227923Y221341D01*
X228024Y221294D01*
X228123Y221243D01*
X228220Y221190D01*
X228314Y221133D01*
X228407Y221072D01*
X228498Y221009D01*
X228587Y220942D01*
X228673Y220872D01*
X228756Y220799D01*
X228838Y220724D01*
X228916Y220646D01*
X228991Y220564D01*
X229064Y220481D01*
X229134Y220395D01*
X229201Y220306D01*
X229264Y220215D01*
X229325Y220122D01*
X229382Y220027D01*
X229435Y219931D01*
X229486Y219832D01*
X229533Y219731D01*
X229576Y219629D01*
X229616Y219526D01*
X229652Y219421D01*
X229684Y219315D01*
X229713Y219208D01*
X229738Y219100D01*
X229759Y218991D01*
X229776Y218882D01*
X229790Y218772D01*
X229799Y218661D01*
X229805Y218551D01*
X229807Y218440D01*
X229805Y218329D01*
X229799Y218219D01*
X229790Y218108D01*
X229776Y217998D01*
X229759Y217889D01*
X229738Y217780D01*
X229713Y217672D01*
X229684Y217565D01*
X229652Y217459D01*
X229616Y217354D01*
X229576Y217251D01*
X229533Y217149D01*
X229486Y217048D01*
X229435Y216949D01*
X229382Y216852D01*
X229325Y216758D01*
X229264Y216665D01*
X229201Y216574D01*
X229134Y216485D01*
X229064Y216399D01*
X228991Y216316D01*
X228916Y216234D01*
X228838Y216156D01*
X228756Y216081D01*
X228673Y216008D01*
X228587Y215938D01*
X228498Y215871D01*
X228407Y215808D01*
X228314Y215747D01*
X228219Y215690D01*
X228123Y215637D01*
X228024Y215586D01*
X227923Y215539D01*
X227821Y215496D01*
X227718Y215456D01*
X227613Y215420D01*
X227507Y215388D01*
X227400Y215359D01*
X227292Y215334D01*
X227183Y215313D01*
X227074Y215296D01*
X226964Y215282D01*
X226853Y215273D01*
X226743Y215267D01*
X226632Y215265D01*
X223457Y215265D01*
X237808Y221616D02*
X237912Y221614D01*
X238017Y221608D01*
X238121Y221599D01*
X238224Y221586D01*
X238327Y221568D01*
X238429Y221548D01*
X238531Y221523D01*
X238631Y221495D01*
X238731Y221463D01*
X238829Y221427D01*
X238926Y221388D01*
X239021Y221346D01*
X239115Y221300D01*
X239207Y221250D01*
X239297Y221198D01*
X239385Y221142D01*
X239471Y221082D01*
X239555Y221020D01*
X239636Y220955D01*
X239715Y220887D01*
X239792Y220815D01*
X239865Y220742D01*
X239937Y220665D01*
X240005Y220586D01*
X240070Y220505D01*
X240132Y220421D01*
X240192Y220335D01*
X240248Y220247D01*
X240300Y220157D01*
X240350Y220065D01*
X240396Y219971D01*
X240438Y219876D01*
X240477Y219779D01*
X240513Y219681D01*
X240545Y219581D01*
X240573Y219481D01*
X240598Y219379D01*
X240618Y219277D01*
X240636Y219174D01*
X240649Y219071D01*
X240658Y218967D01*
X240664Y218862D01*
X240666Y218758D01*
X237808Y221615D02*
X237690Y221613D01*
X237571Y221607D01*
X237453Y221598D01*
X237336Y221585D01*
X237219Y221567D01*
X237102Y221547D01*
X236986Y221522D01*
X236871Y221494D01*
X236758Y221461D01*
X236645Y221426D01*
X236533Y221386D01*
X236423Y221344D01*
X236314Y221297D01*
X236206Y221247D01*
X236101Y221194D01*
X235997Y221137D01*
X235895Y221077D01*
X235795Y221014D01*
X235697Y220947D01*
X235601Y220878D01*
X235508Y220805D01*
X235417Y220729D01*
X235328Y220651D01*
X235242Y220569D01*
X235159Y220485D01*
X235078Y220399D01*
X235001Y220309D01*
X234926Y220218D01*
X234854Y220124D01*
X234785Y220027D01*
X234720Y219929D01*
X234657Y219828D01*
X234598Y219725D01*
X234542Y219621D01*
X234490Y219515D01*
X234441Y219407D01*
X234396Y219298D01*
X234354Y219187D01*
X234316Y219075D01*
X239713Y216536D02*
X239789Y216611D01*
X239864Y216690D01*
X239935Y216771D01*
X240004Y216855D01*
X240069Y216941D01*
X240131Y217029D01*
X240191Y217119D01*
X240247Y217211D01*
X240300Y217306D01*
X240349Y217402D01*
X240395Y217500D01*
X240438Y217599D01*
X240477Y217700D01*
X240512Y217802D01*
X240544Y217905D01*
X240572Y218009D01*
X240597Y218114D01*
X240618Y218221D01*
X240635Y218327D01*
X240648Y218434D01*
X240657Y218542D01*
X240663Y218650D01*
X240665Y218758D01*
X239713Y216535D02*
X234315Y210185D01*
X240665Y210185D01*
D14*
X735600Y159258D02*
X735602Y159321D01*
X735608Y159383D01*
X735618Y159445D01*
X735631Y159507D01*
X735649Y159567D01*
X735670Y159626D01*
X735695Y159684D01*
X735724Y159740D01*
X735756Y159794D01*
X735791Y159846D01*
X735829Y159895D01*
X735871Y159943D01*
X735915Y159987D01*
X735963Y160029D01*
X736012Y160067D01*
X736064Y160102D01*
X736118Y160134D01*
X736174Y160163D01*
X736232Y160188D01*
X736291Y160209D01*
X736351Y160227D01*
X736413Y160240D01*
X736475Y160250D01*
X736537Y160256D01*
X736600Y160258D01*
X736663Y160256D01*
X736725Y160250D01*
X736787Y160240D01*
X736849Y160227D01*
X736909Y160209D01*
X736968Y160188D01*
X737026Y160163D01*
X737082Y160134D01*
X737136Y160102D01*
X737188Y160067D01*
X737237Y160029D01*
X737285Y159987D01*
X737329Y159943D01*
X737371Y159895D01*
X737409Y159846D01*
X737444Y159794D01*
X737476Y159740D01*
X737505Y159684D01*
X737530Y159626D01*
X737551Y159567D01*
X737569Y159507D01*
X737582Y159445D01*
X737592Y159383D01*
X737598Y159321D01*
X737600Y159258D01*
X737598Y159195D01*
X737592Y159133D01*
X737582Y159071D01*
X737569Y159009D01*
X737551Y158949D01*
X737530Y158890D01*
X737505Y158832D01*
X737476Y158776D01*
X737444Y158722D01*
X737409Y158670D01*
X737371Y158621D01*
X737329Y158573D01*
X737285Y158529D01*
X737237Y158487D01*
X737188Y158449D01*
X737136Y158414D01*
X737082Y158382D01*
X737026Y158353D01*
X736968Y158328D01*
X736909Y158307D01*
X736849Y158289D01*
X736787Y158276D01*
X736725Y158266D01*
X736663Y158260D01*
X736600Y158258D01*
X736537Y158260D01*
X736475Y158266D01*
X736413Y158276D01*
X736351Y158289D01*
X736291Y158307D01*
X736232Y158328D01*
X736174Y158353D01*
X736118Y158382D01*
X736064Y158414D01*
X736012Y158449D01*
X735963Y158487D01*
X735915Y158529D01*
X735871Y158573D01*
X735829Y158621D01*
X735791Y158670D01*
X735756Y158722D01*
X735724Y158776D01*
X735695Y158832D01*
X735670Y158890D01*
X735649Y158949D01*
X735631Y159009D01*
X735618Y159071D01*
X735608Y159133D01*
X735602Y159195D01*
X735600Y159258D01*
D13*
X770265Y135851D02*
X776870Y135851D01*
X770265Y135851D02*
X770138Y135853D01*
X770011Y135859D01*
X769884Y135869D01*
X769758Y135882D01*
X769632Y135900D01*
X769506Y135921D01*
X769382Y135947D01*
X769258Y135976D01*
X769135Y136009D01*
X769014Y136045D01*
X768893Y136086D01*
X768774Y136130D01*
X768656Y136178D01*
X768540Y136229D01*
X768425Y136284D01*
X768312Y136342D01*
X768201Y136404D01*
X768092Y136469D01*
X767985Y136538D01*
X767880Y136610D01*
X767777Y136685D01*
X767677Y136763D01*
X767579Y136844D01*
X767484Y136928D01*
X767391Y137015D01*
X767301Y137105D01*
X767214Y137198D01*
X767130Y137293D01*
X767049Y137391D01*
X766971Y137491D01*
X766896Y137594D01*
X766824Y137699D01*
X766755Y137806D01*
X766690Y137915D01*
X766628Y138026D01*
X766570Y138139D01*
X766515Y138254D01*
X766464Y138370D01*
X766416Y138488D01*
X766372Y138607D01*
X766331Y138728D01*
X766295Y138849D01*
X766262Y138972D01*
X766233Y139096D01*
X766207Y139220D01*
X766186Y139346D01*
X766168Y139472D01*
X766155Y139598D01*
X766145Y139725D01*
X766139Y139852D01*
X766137Y139979D01*
X766139Y140106D01*
X766145Y140233D01*
X766155Y140360D01*
X766168Y140486D01*
X766186Y140612D01*
X766207Y140738D01*
X766233Y140862D01*
X766262Y140986D01*
X766295Y141109D01*
X766331Y141230D01*
X766372Y141351D01*
X766416Y141470D01*
X766464Y141588D01*
X766515Y141704D01*
X766570Y141819D01*
X766628Y141932D01*
X766690Y142043D01*
X766755Y142152D01*
X766824Y142259D01*
X766896Y142364D01*
X766971Y142467D01*
X767049Y142567D01*
X767130Y142665D01*
X767214Y142760D01*
X767301Y142853D01*
X767391Y142943D01*
X767484Y143030D01*
X767579Y143114D01*
X767677Y143195D01*
X767777Y143273D01*
X767880Y143348D01*
X767985Y143420D01*
X768092Y143489D01*
X768201Y143554D01*
X768312Y143616D01*
X768425Y143674D01*
X768540Y143729D01*
X768656Y143780D01*
X768774Y143828D01*
X768893Y143872D01*
X769014Y143913D01*
X769135Y143949D01*
X769258Y143982D01*
X769382Y144011D01*
X769506Y144037D01*
X769632Y144058D01*
X769758Y144076D01*
X769884Y144089D01*
X770011Y144099D01*
X770138Y144105D01*
X770265Y144107D01*
X776870Y144107D01*
X776997Y144105D01*
X777124Y144099D01*
X777251Y144089D01*
X777377Y144076D01*
X777503Y144058D01*
X777629Y144037D01*
X777753Y144011D01*
X777877Y143982D01*
X778000Y143949D01*
X778121Y143913D01*
X778242Y143872D01*
X778361Y143828D01*
X778479Y143780D01*
X778595Y143729D01*
X778710Y143674D01*
X778823Y143616D01*
X778934Y143554D01*
X779043Y143489D01*
X779150Y143420D01*
X779255Y143348D01*
X779358Y143273D01*
X779458Y143195D01*
X779556Y143114D01*
X779651Y143030D01*
X779744Y142943D01*
X779834Y142853D01*
X779921Y142760D01*
X780005Y142665D01*
X780086Y142567D01*
X780164Y142467D01*
X780239Y142364D01*
X780311Y142259D01*
X780380Y142152D01*
X780445Y142043D01*
X780507Y141932D01*
X780565Y141819D01*
X780620Y141704D01*
X780671Y141588D01*
X780719Y141470D01*
X780763Y141351D01*
X780804Y141230D01*
X780840Y141109D01*
X780873Y140986D01*
X780902Y140862D01*
X780928Y140738D01*
X780949Y140612D01*
X780967Y140486D01*
X780980Y140360D01*
X780990Y140233D01*
X780996Y140106D01*
X780998Y139979D01*
X780996Y139852D01*
X780990Y139725D01*
X780980Y139598D01*
X780967Y139472D01*
X780949Y139346D01*
X780928Y139220D01*
X780902Y139096D01*
X780873Y138972D01*
X780840Y138849D01*
X780804Y138728D01*
X780763Y138607D01*
X780719Y138488D01*
X780671Y138370D01*
X780620Y138254D01*
X780565Y138139D01*
X780507Y138026D01*
X780445Y137915D01*
X780380Y137806D01*
X780311Y137699D01*
X780239Y137594D01*
X780164Y137491D01*
X780086Y137391D01*
X780005Y137293D01*
X779921Y137198D01*
X779834Y137105D01*
X779744Y137015D01*
X779651Y136928D01*
X779556Y136844D01*
X779458Y136763D01*
X779358Y136685D01*
X779255Y136610D01*
X779150Y136538D01*
X779043Y136469D01*
X778934Y136404D01*
X778823Y136342D01*
X778710Y136284D01*
X778595Y136229D01*
X778479Y136178D01*
X778361Y136130D01*
X778242Y136086D01*
X778121Y136045D01*
X778000Y136009D01*
X777877Y135976D01*
X777753Y135947D01*
X777629Y135921D01*
X777503Y135900D01*
X777377Y135882D01*
X777251Y135869D01*
X777124Y135859D01*
X776997Y135853D01*
X776870Y135851D01*
X777696Y142456D02*
X780998Y145759D01*
X769440Y150042D02*
X766137Y154170D01*
X780998Y154170D01*
X780998Y150042D02*
X780998Y158298D01*
D12*
X761400Y155000D02*
X761400Y48200D01*
X755050Y48200D01*
X713000Y48200D01*
X713000Y155000D01*
X755050Y155000D01*
X761400Y155000D01*
X755050Y155000D02*
X755050Y48200D01*
D14*
X735600Y337058D02*
X735602Y337121D01*
X735608Y337183D01*
X735618Y337245D01*
X735631Y337307D01*
X735649Y337367D01*
X735670Y337426D01*
X735695Y337484D01*
X735724Y337540D01*
X735756Y337594D01*
X735791Y337646D01*
X735829Y337695D01*
X735871Y337743D01*
X735915Y337787D01*
X735963Y337829D01*
X736012Y337867D01*
X736064Y337902D01*
X736118Y337934D01*
X736174Y337963D01*
X736232Y337988D01*
X736291Y338009D01*
X736351Y338027D01*
X736413Y338040D01*
X736475Y338050D01*
X736537Y338056D01*
X736600Y338058D01*
X736663Y338056D01*
X736725Y338050D01*
X736787Y338040D01*
X736849Y338027D01*
X736909Y338009D01*
X736968Y337988D01*
X737026Y337963D01*
X737082Y337934D01*
X737136Y337902D01*
X737188Y337867D01*
X737237Y337829D01*
X737285Y337787D01*
X737329Y337743D01*
X737371Y337695D01*
X737409Y337646D01*
X737444Y337594D01*
X737476Y337540D01*
X737505Y337484D01*
X737530Y337426D01*
X737551Y337367D01*
X737569Y337307D01*
X737582Y337245D01*
X737592Y337183D01*
X737598Y337121D01*
X737600Y337058D01*
X737598Y336995D01*
X737592Y336933D01*
X737582Y336871D01*
X737569Y336809D01*
X737551Y336749D01*
X737530Y336690D01*
X737505Y336632D01*
X737476Y336576D01*
X737444Y336522D01*
X737409Y336470D01*
X737371Y336421D01*
X737329Y336373D01*
X737285Y336329D01*
X737237Y336287D01*
X737188Y336249D01*
X737136Y336214D01*
X737082Y336182D01*
X737026Y336153D01*
X736968Y336128D01*
X736909Y336107D01*
X736849Y336089D01*
X736787Y336076D01*
X736725Y336066D01*
X736663Y336060D01*
X736600Y336058D01*
X736537Y336060D01*
X736475Y336066D01*
X736413Y336076D01*
X736351Y336089D01*
X736291Y336107D01*
X736232Y336128D01*
X736174Y336153D01*
X736118Y336182D01*
X736064Y336214D01*
X736012Y336249D01*
X735963Y336287D01*
X735915Y336329D01*
X735871Y336373D01*
X735829Y336421D01*
X735791Y336470D01*
X735756Y336522D01*
X735724Y336576D01*
X735695Y336632D01*
X735670Y336690D01*
X735649Y336749D01*
X735631Y336809D01*
X735618Y336871D01*
X735608Y336933D01*
X735602Y336995D01*
X735600Y337058D01*
D13*
X770265Y313651D02*
X776870Y313651D01*
X770265Y313651D02*
X770138Y313653D01*
X770011Y313659D01*
X769884Y313669D01*
X769758Y313682D01*
X769632Y313700D01*
X769506Y313721D01*
X769382Y313747D01*
X769258Y313776D01*
X769135Y313809D01*
X769014Y313845D01*
X768893Y313886D01*
X768774Y313930D01*
X768656Y313978D01*
X768540Y314029D01*
X768425Y314084D01*
X768312Y314142D01*
X768201Y314204D01*
X768092Y314269D01*
X767985Y314338D01*
X767880Y314410D01*
X767777Y314485D01*
X767677Y314563D01*
X767579Y314644D01*
X767484Y314728D01*
X767391Y314815D01*
X767301Y314905D01*
X767214Y314998D01*
X767130Y315093D01*
X767049Y315191D01*
X766971Y315291D01*
X766896Y315394D01*
X766824Y315499D01*
X766755Y315606D01*
X766690Y315715D01*
X766628Y315826D01*
X766570Y315939D01*
X766515Y316054D01*
X766464Y316170D01*
X766416Y316288D01*
X766372Y316407D01*
X766331Y316528D01*
X766295Y316649D01*
X766262Y316772D01*
X766233Y316896D01*
X766207Y317020D01*
X766186Y317146D01*
X766168Y317272D01*
X766155Y317398D01*
X766145Y317525D01*
X766139Y317652D01*
X766137Y317779D01*
X766139Y317906D01*
X766145Y318033D01*
X766155Y318160D01*
X766168Y318286D01*
X766186Y318412D01*
X766207Y318538D01*
X766233Y318662D01*
X766262Y318786D01*
X766295Y318909D01*
X766331Y319030D01*
X766372Y319151D01*
X766416Y319270D01*
X766464Y319388D01*
X766515Y319504D01*
X766570Y319619D01*
X766628Y319732D01*
X766690Y319843D01*
X766755Y319952D01*
X766824Y320059D01*
X766896Y320164D01*
X766971Y320267D01*
X767049Y320367D01*
X767130Y320465D01*
X767214Y320560D01*
X767301Y320653D01*
X767391Y320743D01*
X767484Y320830D01*
X767579Y320914D01*
X767677Y320995D01*
X767777Y321073D01*
X767880Y321148D01*
X767985Y321220D01*
X768092Y321289D01*
X768201Y321354D01*
X768312Y321416D01*
X768425Y321474D01*
X768540Y321529D01*
X768656Y321580D01*
X768774Y321628D01*
X768893Y321672D01*
X769014Y321713D01*
X769135Y321749D01*
X769258Y321782D01*
X769382Y321811D01*
X769506Y321837D01*
X769632Y321858D01*
X769758Y321876D01*
X769884Y321889D01*
X770011Y321899D01*
X770138Y321905D01*
X770265Y321907D01*
X776870Y321907D01*
X776997Y321905D01*
X777124Y321899D01*
X777251Y321889D01*
X777377Y321876D01*
X777503Y321858D01*
X777629Y321837D01*
X777753Y321811D01*
X777877Y321782D01*
X778000Y321749D01*
X778121Y321713D01*
X778242Y321672D01*
X778361Y321628D01*
X778479Y321580D01*
X778595Y321529D01*
X778710Y321474D01*
X778823Y321416D01*
X778934Y321354D01*
X779043Y321289D01*
X779150Y321220D01*
X779255Y321148D01*
X779358Y321073D01*
X779458Y320995D01*
X779556Y320914D01*
X779651Y320830D01*
X779744Y320743D01*
X779834Y320653D01*
X779921Y320560D01*
X780005Y320465D01*
X780086Y320367D01*
X780164Y320267D01*
X780239Y320164D01*
X780311Y320059D01*
X780380Y319952D01*
X780445Y319843D01*
X780507Y319732D01*
X780565Y319619D01*
X780620Y319504D01*
X780671Y319388D01*
X780719Y319270D01*
X780763Y319151D01*
X780804Y319030D01*
X780840Y318909D01*
X780873Y318786D01*
X780902Y318662D01*
X780928Y318538D01*
X780949Y318412D01*
X780967Y318286D01*
X780980Y318160D01*
X780990Y318033D01*
X780996Y317906D01*
X780998Y317779D01*
X780996Y317652D01*
X780990Y317525D01*
X780980Y317398D01*
X780967Y317272D01*
X780949Y317146D01*
X780928Y317020D01*
X780902Y316896D01*
X780873Y316772D01*
X780840Y316649D01*
X780804Y316528D01*
X780763Y316407D01*
X780719Y316288D01*
X780671Y316170D01*
X780620Y316054D01*
X780565Y315939D01*
X780507Y315826D01*
X780445Y315715D01*
X780380Y315606D01*
X780311Y315499D01*
X780239Y315394D01*
X780164Y315291D01*
X780086Y315191D01*
X780005Y315093D01*
X779921Y314998D01*
X779834Y314905D01*
X779744Y314815D01*
X779651Y314728D01*
X779556Y314644D01*
X779458Y314563D01*
X779358Y314485D01*
X779255Y314410D01*
X779150Y314338D01*
X779043Y314269D01*
X778934Y314204D01*
X778823Y314142D01*
X778710Y314084D01*
X778595Y314029D01*
X778479Y313978D01*
X778361Y313930D01*
X778242Y313886D01*
X778121Y313845D01*
X778000Y313809D01*
X777877Y313776D01*
X777753Y313747D01*
X777629Y313721D01*
X777503Y313700D01*
X777377Y313682D01*
X777251Y313669D01*
X777124Y313659D01*
X776997Y313653D01*
X776870Y313651D01*
X777696Y320256D02*
X780998Y323559D01*
X769853Y336098D02*
X769731Y336096D01*
X769610Y336090D01*
X769489Y336080D01*
X769368Y336066D01*
X769248Y336048D01*
X769128Y336027D01*
X769009Y336001D01*
X768891Y335971D01*
X768775Y335938D01*
X768659Y335901D01*
X768544Y335860D01*
X768431Y335815D01*
X768320Y335767D01*
X768210Y335715D01*
X768102Y335659D01*
X767996Y335600D01*
X767891Y335538D01*
X767789Y335472D01*
X767689Y335403D01*
X767591Y335330D01*
X767496Y335255D01*
X767404Y335176D01*
X767313Y335094D01*
X767226Y335010D01*
X767142Y334923D01*
X767060Y334832D01*
X766981Y334740D01*
X766906Y334645D01*
X766833Y334547D01*
X766764Y334447D01*
X766698Y334345D01*
X766636Y334241D01*
X766577Y334134D01*
X766521Y334026D01*
X766469Y333916D01*
X766421Y333805D01*
X766376Y333692D01*
X766335Y333577D01*
X766298Y333461D01*
X766265Y333345D01*
X766235Y333227D01*
X766209Y333108D01*
X766188Y332988D01*
X766170Y332868D01*
X766156Y332747D01*
X766146Y332626D01*
X766140Y332505D01*
X766138Y332383D01*
X766137Y332383D02*
X766139Y332247D01*
X766145Y332110D01*
X766155Y331974D01*
X766168Y331839D01*
X766186Y331703D01*
X766207Y331569D01*
X766232Y331434D01*
X766261Y331301D01*
X766294Y331169D01*
X766331Y331037D01*
X766371Y330907D01*
X766415Y330778D01*
X766463Y330650D01*
X766514Y330524D01*
X766569Y330399D01*
X766627Y330276D01*
X766689Y330154D01*
X766755Y330034D01*
X766824Y329917D01*
X766896Y329801D01*
X766971Y329687D01*
X767050Y329576D01*
X767132Y329466D01*
X767217Y329360D01*
X767305Y329255D01*
X767395Y329154D01*
X767489Y329054D01*
X767586Y328958D01*
X767685Y328864D01*
X767787Y328774D01*
X767891Y328686D01*
X767998Y328601D01*
X768107Y328520D01*
X768219Y328441D01*
X768333Y328366D01*
X768448Y328294D01*
X768566Y328225D01*
X768686Y328160D01*
X768808Y328098D01*
X768931Y328040D01*
X769056Y327985D01*
X769182Y327934D01*
X769310Y327886D01*
X769439Y327842D01*
X772743Y334860D02*
X772656Y334949D01*
X772566Y335035D01*
X772474Y335118D01*
X772379Y335198D01*
X772281Y335275D01*
X772181Y335349D01*
X772079Y335420D01*
X771975Y335488D01*
X771869Y335553D01*
X771760Y335614D01*
X771650Y335671D01*
X771539Y335726D01*
X771425Y335776D01*
X771310Y335823D01*
X771194Y335867D01*
X771076Y335907D01*
X770957Y335943D01*
X770837Y335976D01*
X770716Y336005D01*
X770594Y336030D01*
X770472Y336051D01*
X770349Y336068D01*
X770225Y336082D01*
X770101Y336091D01*
X769977Y336097D01*
X769853Y336099D01*
X772742Y334860D02*
X780998Y327842D01*
X780998Y336098D01*
D12*
X761400Y332800D02*
X761400Y226000D01*
X755050Y226000D01*
X713000Y226000D01*
X713000Y332800D01*
X755050Y332800D01*
X761400Y332800D01*
X755050Y332800D02*
X755050Y226000D01*
D14*
X538242Y355600D02*
X538244Y355663D01*
X538250Y355725D01*
X538260Y355787D01*
X538273Y355849D01*
X538291Y355909D01*
X538312Y355968D01*
X538337Y356026D01*
X538366Y356082D01*
X538398Y356136D01*
X538433Y356188D01*
X538471Y356237D01*
X538513Y356285D01*
X538557Y356329D01*
X538605Y356371D01*
X538654Y356409D01*
X538706Y356444D01*
X538760Y356476D01*
X538816Y356505D01*
X538874Y356530D01*
X538933Y356551D01*
X538993Y356569D01*
X539055Y356582D01*
X539117Y356592D01*
X539179Y356598D01*
X539242Y356600D01*
X539305Y356598D01*
X539367Y356592D01*
X539429Y356582D01*
X539491Y356569D01*
X539551Y356551D01*
X539610Y356530D01*
X539668Y356505D01*
X539724Y356476D01*
X539778Y356444D01*
X539830Y356409D01*
X539879Y356371D01*
X539927Y356329D01*
X539971Y356285D01*
X540013Y356237D01*
X540051Y356188D01*
X540086Y356136D01*
X540118Y356082D01*
X540147Y356026D01*
X540172Y355968D01*
X540193Y355909D01*
X540211Y355849D01*
X540224Y355787D01*
X540234Y355725D01*
X540240Y355663D01*
X540242Y355600D01*
X540240Y355537D01*
X540234Y355475D01*
X540224Y355413D01*
X540211Y355351D01*
X540193Y355291D01*
X540172Y355232D01*
X540147Y355174D01*
X540118Y355118D01*
X540086Y355064D01*
X540051Y355012D01*
X540013Y354963D01*
X539971Y354915D01*
X539927Y354871D01*
X539879Y354829D01*
X539830Y354791D01*
X539778Y354756D01*
X539724Y354724D01*
X539668Y354695D01*
X539610Y354670D01*
X539551Y354649D01*
X539491Y354631D01*
X539429Y354618D01*
X539367Y354608D01*
X539305Y354602D01*
X539242Y354600D01*
X539179Y354602D01*
X539117Y354608D01*
X539055Y354618D01*
X538993Y354631D01*
X538933Y354649D01*
X538874Y354670D01*
X538816Y354695D01*
X538760Y354724D01*
X538706Y354756D01*
X538654Y354791D01*
X538605Y354829D01*
X538557Y354871D01*
X538513Y354915D01*
X538471Y354963D01*
X538433Y355012D01*
X538398Y355064D01*
X538366Y355118D01*
X538337Y355174D01*
X538312Y355232D01*
X538291Y355291D01*
X538273Y355351D01*
X538260Y355413D01*
X538250Y355475D01*
X538244Y355537D01*
X538242Y355600D01*
D13*
X540202Y389265D02*
X540202Y395870D01*
X540204Y395997D01*
X540210Y396124D01*
X540220Y396251D01*
X540233Y396377D01*
X540251Y396503D01*
X540272Y396629D01*
X540298Y396753D01*
X540327Y396877D01*
X540360Y397000D01*
X540396Y397121D01*
X540437Y397242D01*
X540481Y397361D01*
X540529Y397479D01*
X540580Y397595D01*
X540635Y397710D01*
X540693Y397823D01*
X540755Y397934D01*
X540820Y398043D01*
X540889Y398150D01*
X540961Y398255D01*
X541036Y398358D01*
X541114Y398458D01*
X541195Y398556D01*
X541279Y398651D01*
X541366Y398744D01*
X541456Y398834D01*
X541549Y398921D01*
X541644Y399005D01*
X541742Y399086D01*
X541842Y399164D01*
X541945Y399239D01*
X542050Y399311D01*
X542157Y399380D01*
X542266Y399445D01*
X542377Y399507D01*
X542490Y399565D01*
X542605Y399620D01*
X542721Y399671D01*
X542839Y399719D01*
X542958Y399763D01*
X543079Y399804D01*
X543200Y399840D01*
X543323Y399873D01*
X543447Y399902D01*
X543571Y399928D01*
X543697Y399949D01*
X543823Y399967D01*
X543949Y399980D01*
X544076Y399990D01*
X544203Y399996D01*
X544330Y399998D01*
X544457Y399996D01*
X544584Y399990D01*
X544711Y399980D01*
X544837Y399967D01*
X544963Y399949D01*
X545089Y399928D01*
X545213Y399902D01*
X545337Y399873D01*
X545460Y399840D01*
X545581Y399804D01*
X545702Y399763D01*
X545821Y399719D01*
X545939Y399671D01*
X546055Y399620D01*
X546170Y399565D01*
X546283Y399507D01*
X546394Y399445D01*
X546503Y399380D01*
X546610Y399311D01*
X546715Y399239D01*
X546818Y399164D01*
X546918Y399086D01*
X547016Y399005D01*
X547111Y398921D01*
X547204Y398834D01*
X547294Y398744D01*
X547381Y398651D01*
X547465Y398556D01*
X547546Y398458D01*
X547624Y398358D01*
X547699Y398255D01*
X547771Y398150D01*
X547840Y398043D01*
X547905Y397934D01*
X547967Y397823D01*
X548025Y397710D01*
X548080Y397595D01*
X548131Y397479D01*
X548179Y397361D01*
X548223Y397242D01*
X548264Y397121D01*
X548300Y397000D01*
X548333Y396877D01*
X548362Y396753D01*
X548388Y396629D01*
X548409Y396503D01*
X548427Y396377D01*
X548440Y396251D01*
X548450Y396124D01*
X548456Y395997D01*
X548458Y395870D01*
X548458Y389265D01*
X548456Y389138D01*
X548450Y389011D01*
X548440Y388884D01*
X548427Y388758D01*
X548409Y388632D01*
X548388Y388506D01*
X548362Y388382D01*
X548333Y388258D01*
X548300Y388135D01*
X548264Y388014D01*
X548223Y387893D01*
X548179Y387774D01*
X548131Y387656D01*
X548080Y387540D01*
X548025Y387425D01*
X547967Y387312D01*
X547905Y387201D01*
X547840Y387092D01*
X547771Y386985D01*
X547699Y386880D01*
X547624Y386777D01*
X547546Y386677D01*
X547465Y386579D01*
X547381Y386484D01*
X547294Y386391D01*
X547204Y386301D01*
X547111Y386214D01*
X547016Y386130D01*
X546918Y386049D01*
X546818Y385971D01*
X546715Y385896D01*
X546610Y385824D01*
X546503Y385755D01*
X546394Y385690D01*
X546283Y385628D01*
X546170Y385570D01*
X546055Y385515D01*
X545939Y385464D01*
X545821Y385416D01*
X545702Y385372D01*
X545581Y385331D01*
X545460Y385295D01*
X545337Y385262D01*
X545213Y385233D01*
X545089Y385207D01*
X544963Y385186D01*
X544837Y385168D01*
X544711Y385155D01*
X544584Y385145D01*
X544457Y385139D01*
X544330Y385137D01*
X544203Y385139D01*
X544076Y385145D01*
X543949Y385155D01*
X543823Y385168D01*
X543697Y385186D01*
X543571Y385207D01*
X543447Y385233D01*
X543323Y385262D01*
X543200Y385295D01*
X543079Y385331D01*
X542958Y385372D01*
X542839Y385416D01*
X542721Y385464D01*
X542605Y385515D01*
X542490Y385570D01*
X542377Y385628D01*
X542266Y385690D01*
X542157Y385755D01*
X542050Y385824D01*
X541945Y385896D01*
X541842Y385971D01*
X541742Y386049D01*
X541644Y386130D01*
X541549Y386214D01*
X541456Y386301D01*
X541366Y386391D01*
X541279Y386484D01*
X541195Y386579D01*
X541114Y386677D01*
X541036Y386777D01*
X540961Y386880D01*
X540889Y386985D01*
X540820Y387092D01*
X540755Y387201D01*
X540693Y387312D01*
X540635Y387425D01*
X540580Y387540D01*
X540529Y387656D01*
X540481Y387774D01*
X540437Y387893D01*
X540396Y388014D01*
X540360Y388135D01*
X540327Y388258D01*
X540298Y388382D01*
X540272Y388506D01*
X540251Y388632D01*
X540233Y388758D01*
X540220Y388884D01*
X540210Y389011D01*
X540204Y389138D01*
X540202Y389265D01*
X546807Y388440D02*
X550109Y385137D01*
X554393Y385137D02*
X558521Y385137D01*
X558648Y385139D01*
X558775Y385145D01*
X558902Y385155D01*
X559028Y385168D01*
X559154Y385186D01*
X559280Y385207D01*
X559404Y385233D01*
X559528Y385262D01*
X559651Y385295D01*
X559772Y385331D01*
X559893Y385372D01*
X560012Y385416D01*
X560130Y385464D01*
X560246Y385515D01*
X560361Y385570D01*
X560474Y385628D01*
X560585Y385690D01*
X560694Y385755D01*
X560801Y385824D01*
X560906Y385896D01*
X561009Y385971D01*
X561109Y386049D01*
X561207Y386130D01*
X561302Y386214D01*
X561395Y386301D01*
X561485Y386391D01*
X561572Y386484D01*
X561656Y386579D01*
X561737Y386677D01*
X561815Y386777D01*
X561890Y386880D01*
X561962Y386985D01*
X562031Y387092D01*
X562096Y387201D01*
X562158Y387312D01*
X562216Y387425D01*
X562271Y387540D01*
X562322Y387656D01*
X562370Y387774D01*
X562414Y387893D01*
X562455Y388014D01*
X562491Y388135D01*
X562524Y388258D01*
X562553Y388382D01*
X562579Y388506D01*
X562600Y388632D01*
X562618Y388758D01*
X562631Y388884D01*
X562641Y389011D01*
X562647Y389138D01*
X562649Y389265D01*
X562647Y389392D01*
X562641Y389519D01*
X562631Y389646D01*
X562618Y389772D01*
X562600Y389898D01*
X562579Y390024D01*
X562553Y390148D01*
X562524Y390272D01*
X562491Y390395D01*
X562455Y390516D01*
X562414Y390637D01*
X562370Y390756D01*
X562322Y390874D01*
X562271Y390990D01*
X562216Y391105D01*
X562158Y391218D01*
X562096Y391329D01*
X562031Y391438D01*
X561962Y391545D01*
X561890Y391650D01*
X561815Y391753D01*
X561737Y391853D01*
X561656Y391951D01*
X561572Y392046D01*
X561485Y392139D01*
X561395Y392229D01*
X561302Y392316D01*
X561207Y392400D01*
X561109Y392481D01*
X561009Y392559D01*
X560906Y392634D01*
X560801Y392706D01*
X560694Y392775D01*
X560585Y392840D01*
X560474Y392902D01*
X560361Y392960D01*
X560246Y393015D01*
X560130Y393066D01*
X560012Y393114D01*
X559893Y393158D01*
X559772Y393199D01*
X559651Y393235D01*
X559528Y393268D01*
X559404Y393297D01*
X559280Y393323D01*
X559154Y393344D01*
X559028Y393362D01*
X558902Y393375D01*
X558775Y393385D01*
X558648Y393391D01*
X558521Y393393D01*
X559346Y399998D02*
X554393Y399998D01*
X559346Y399999D02*
X559460Y399997D01*
X559574Y399991D01*
X559687Y399981D01*
X559801Y399968D01*
X559913Y399950D01*
X560025Y399928D01*
X560136Y399903D01*
X560247Y399874D01*
X560356Y399841D01*
X560464Y399804D01*
X560570Y399764D01*
X560676Y399720D01*
X560779Y399672D01*
X560881Y399621D01*
X560981Y399566D01*
X561079Y399508D01*
X561175Y399446D01*
X561269Y399382D01*
X561361Y399314D01*
X561450Y399242D01*
X561536Y399168D01*
X561620Y399091D01*
X561702Y399011D01*
X561780Y398929D01*
X561856Y398843D01*
X561928Y398755D01*
X561998Y398665D01*
X562064Y398572D01*
X562127Y398477D01*
X562187Y398380D01*
X562244Y398281D01*
X562297Y398180D01*
X562346Y398078D01*
X562392Y397973D01*
X562434Y397867D01*
X562473Y397760D01*
X562508Y397651D01*
X562539Y397542D01*
X562566Y397431D01*
X562590Y397319D01*
X562609Y397207D01*
X562625Y397094D01*
X562637Y396981D01*
X562645Y396867D01*
X562649Y396753D01*
X562649Y396639D01*
X562645Y396525D01*
X562637Y396411D01*
X562625Y396298D01*
X562609Y396185D01*
X562590Y396073D01*
X562566Y395961D01*
X562539Y395850D01*
X562508Y395741D01*
X562473Y395632D01*
X562434Y395525D01*
X562392Y395419D01*
X562346Y395314D01*
X562297Y395212D01*
X562244Y395111D01*
X562187Y395012D01*
X562127Y394915D01*
X562064Y394820D01*
X561998Y394727D01*
X561928Y394637D01*
X561856Y394549D01*
X561780Y394463D01*
X561702Y394381D01*
X561620Y394301D01*
X561536Y394224D01*
X561450Y394150D01*
X561361Y394078D01*
X561269Y394010D01*
X561175Y393946D01*
X561079Y393884D01*
X560981Y393826D01*
X560881Y393771D01*
X560779Y393720D01*
X560676Y393672D01*
X560570Y393628D01*
X560464Y393588D01*
X560356Y393551D01*
X560247Y393518D01*
X560136Y393489D01*
X560025Y393464D01*
X559913Y393442D01*
X559801Y393424D01*
X559687Y393411D01*
X559574Y393401D01*
X559460Y393395D01*
X559346Y393393D01*
X556044Y393393D01*
D12*
X543500Y380400D02*
X650300Y380400D01*
X650300Y374050D01*
X650300Y332000D01*
X543500Y332000D01*
X543500Y374050D01*
X543500Y380400D01*
X543500Y374050D02*
X650300Y374050D01*
D14*
X220742Y355600D02*
X220744Y355663D01*
X220750Y355725D01*
X220760Y355787D01*
X220773Y355849D01*
X220791Y355909D01*
X220812Y355968D01*
X220837Y356026D01*
X220866Y356082D01*
X220898Y356136D01*
X220933Y356188D01*
X220971Y356237D01*
X221013Y356285D01*
X221057Y356329D01*
X221105Y356371D01*
X221154Y356409D01*
X221206Y356444D01*
X221260Y356476D01*
X221316Y356505D01*
X221374Y356530D01*
X221433Y356551D01*
X221493Y356569D01*
X221555Y356582D01*
X221617Y356592D01*
X221679Y356598D01*
X221742Y356600D01*
X221805Y356598D01*
X221867Y356592D01*
X221929Y356582D01*
X221991Y356569D01*
X222051Y356551D01*
X222110Y356530D01*
X222168Y356505D01*
X222224Y356476D01*
X222278Y356444D01*
X222330Y356409D01*
X222379Y356371D01*
X222427Y356329D01*
X222471Y356285D01*
X222513Y356237D01*
X222551Y356188D01*
X222586Y356136D01*
X222618Y356082D01*
X222647Y356026D01*
X222672Y355968D01*
X222693Y355909D01*
X222711Y355849D01*
X222724Y355787D01*
X222734Y355725D01*
X222740Y355663D01*
X222742Y355600D01*
X222740Y355537D01*
X222734Y355475D01*
X222724Y355413D01*
X222711Y355351D01*
X222693Y355291D01*
X222672Y355232D01*
X222647Y355174D01*
X222618Y355118D01*
X222586Y355064D01*
X222551Y355012D01*
X222513Y354963D01*
X222471Y354915D01*
X222427Y354871D01*
X222379Y354829D01*
X222330Y354791D01*
X222278Y354756D01*
X222224Y354724D01*
X222168Y354695D01*
X222110Y354670D01*
X222051Y354649D01*
X221991Y354631D01*
X221929Y354618D01*
X221867Y354608D01*
X221805Y354602D01*
X221742Y354600D01*
X221679Y354602D01*
X221617Y354608D01*
X221555Y354618D01*
X221493Y354631D01*
X221433Y354649D01*
X221374Y354670D01*
X221316Y354695D01*
X221260Y354724D01*
X221206Y354756D01*
X221154Y354791D01*
X221105Y354829D01*
X221057Y354871D01*
X221013Y354915D01*
X220971Y354963D01*
X220933Y355012D01*
X220898Y355064D01*
X220866Y355118D01*
X220837Y355174D01*
X220812Y355232D01*
X220791Y355291D01*
X220773Y355351D01*
X220760Y355413D01*
X220750Y355475D01*
X220744Y355537D01*
X220742Y355600D01*
D13*
X222702Y389265D02*
X222702Y395870D01*
X222704Y395997D01*
X222710Y396124D01*
X222720Y396251D01*
X222733Y396377D01*
X222751Y396503D01*
X222772Y396629D01*
X222798Y396753D01*
X222827Y396877D01*
X222860Y397000D01*
X222896Y397121D01*
X222937Y397242D01*
X222981Y397361D01*
X223029Y397479D01*
X223080Y397595D01*
X223135Y397710D01*
X223193Y397823D01*
X223255Y397934D01*
X223320Y398043D01*
X223389Y398150D01*
X223461Y398255D01*
X223536Y398358D01*
X223614Y398458D01*
X223695Y398556D01*
X223779Y398651D01*
X223866Y398744D01*
X223956Y398834D01*
X224049Y398921D01*
X224144Y399005D01*
X224242Y399086D01*
X224342Y399164D01*
X224445Y399239D01*
X224550Y399311D01*
X224657Y399380D01*
X224766Y399445D01*
X224877Y399507D01*
X224990Y399565D01*
X225105Y399620D01*
X225221Y399671D01*
X225339Y399719D01*
X225458Y399763D01*
X225579Y399804D01*
X225700Y399840D01*
X225823Y399873D01*
X225947Y399902D01*
X226071Y399928D01*
X226197Y399949D01*
X226323Y399967D01*
X226449Y399980D01*
X226576Y399990D01*
X226703Y399996D01*
X226830Y399998D01*
X226957Y399996D01*
X227084Y399990D01*
X227211Y399980D01*
X227337Y399967D01*
X227463Y399949D01*
X227589Y399928D01*
X227713Y399902D01*
X227837Y399873D01*
X227960Y399840D01*
X228081Y399804D01*
X228202Y399763D01*
X228321Y399719D01*
X228439Y399671D01*
X228555Y399620D01*
X228670Y399565D01*
X228783Y399507D01*
X228894Y399445D01*
X229003Y399380D01*
X229110Y399311D01*
X229215Y399239D01*
X229318Y399164D01*
X229418Y399086D01*
X229516Y399005D01*
X229611Y398921D01*
X229704Y398834D01*
X229794Y398744D01*
X229881Y398651D01*
X229965Y398556D01*
X230046Y398458D01*
X230124Y398358D01*
X230199Y398255D01*
X230271Y398150D01*
X230340Y398043D01*
X230405Y397934D01*
X230467Y397823D01*
X230525Y397710D01*
X230580Y397595D01*
X230631Y397479D01*
X230679Y397361D01*
X230723Y397242D01*
X230764Y397121D01*
X230800Y397000D01*
X230833Y396877D01*
X230862Y396753D01*
X230888Y396629D01*
X230909Y396503D01*
X230927Y396377D01*
X230940Y396251D01*
X230950Y396124D01*
X230956Y395997D01*
X230958Y395870D01*
X230958Y389265D01*
X230956Y389138D01*
X230950Y389011D01*
X230940Y388884D01*
X230927Y388758D01*
X230909Y388632D01*
X230888Y388506D01*
X230862Y388382D01*
X230833Y388258D01*
X230800Y388135D01*
X230764Y388014D01*
X230723Y387893D01*
X230679Y387774D01*
X230631Y387656D01*
X230580Y387540D01*
X230525Y387425D01*
X230467Y387312D01*
X230405Y387201D01*
X230340Y387092D01*
X230271Y386985D01*
X230199Y386880D01*
X230124Y386777D01*
X230046Y386677D01*
X229965Y386579D01*
X229881Y386484D01*
X229794Y386391D01*
X229704Y386301D01*
X229611Y386214D01*
X229516Y386130D01*
X229418Y386049D01*
X229318Y385971D01*
X229215Y385896D01*
X229110Y385824D01*
X229003Y385755D01*
X228894Y385690D01*
X228783Y385628D01*
X228670Y385570D01*
X228555Y385515D01*
X228439Y385464D01*
X228321Y385416D01*
X228202Y385372D01*
X228081Y385331D01*
X227960Y385295D01*
X227837Y385262D01*
X227713Y385233D01*
X227589Y385207D01*
X227463Y385186D01*
X227337Y385168D01*
X227211Y385155D01*
X227084Y385145D01*
X226957Y385139D01*
X226830Y385137D01*
X226703Y385139D01*
X226576Y385145D01*
X226449Y385155D01*
X226323Y385168D01*
X226197Y385186D01*
X226071Y385207D01*
X225947Y385233D01*
X225823Y385262D01*
X225700Y385295D01*
X225579Y385331D01*
X225458Y385372D01*
X225339Y385416D01*
X225221Y385464D01*
X225105Y385515D01*
X224990Y385570D01*
X224877Y385628D01*
X224766Y385690D01*
X224657Y385755D01*
X224550Y385824D01*
X224445Y385896D01*
X224342Y385971D01*
X224242Y386049D01*
X224144Y386130D01*
X224049Y386214D01*
X223956Y386301D01*
X223866Y386391D01*
X223779Y386484D01*
X223695Y386579D01*
X223614Y386677D01*
X223536Y386777D01*
X223461Y386880D01*
X223389Y386985D01*
X223320Y387092D01*
X223255Y387201D01*
X223193Y387312D01*
X223135Y387425D01*
X223080Y387540D01*
X223029Y387656D01*
X222981Y387774D01*
X222937Y387893D01*
X222896Y388014D01*
X222860Y388135D01*
X222827Y388258D01*
X222798Y388382D01*
X222772Y388506D01*
X222751Y388632D01*
X222733Y388758D01*
X222720Y388884D01*
X222710Y389011D01*
X222704Y389138D01*
X222702Y389265D01*
X229307Y388440D02*
X232609Y385137D01*
X236893Y388440D02*
X240195Y399998D01*
X236893Y388440D02*
X245149Y388440D01*
X242672Y391742D02*
X242672Y385137D01*
D12*
X226000Y380400D02*
X332800Y380400D01*
X332800Y374050D01*
X332800Y332000D01*
X226000Y332000D01*
X226000Y374050D01*
X226000Y380400D01*
X226000Y374050D02*
X332800Y374050D01*
D10*
X559495Y183642D02*
X559495Y171958D01*
X559495Y183642D02*
X562740Y183642D01*
X562853Y183640D01*
X562966Y183634D01*
X563079Y183624D01*
X563192Y183610D01*
X563304Y183593D01*
X563415Y183571D01*
X563525Y183546D01*
X563635Y183516D01*
X563743Y183483D01*
X563850Y183446D01*
X563956Y183406D01*
X564060Y183361D01*
X564163Y183313D01*
X564264Y183262D01*
X564363Y183207D01*
X564460Y183149D01*
X564555Y183087D01*
X564648Y183022D01*
X564738Y182954D01*
X564826Y182883D01*
X564912Y182808D01*
X564995Y182731D01*
X565075Y182651D01*
X565152Y182568D01*
X565227Y182482D01*
X565298Y182394D01*
X565366Y182304D01*
X565431Y182211D01*
X565493Y182116D01*
X565551Y182019D01*
X565606Y181920D01*
X565657Y181819D01*
X565705Y181716D01*
X565750Y181612D01*
X565790Y181506D01*
X565827Y181399D01*
X565860Y181291D01*
X565890Y181181D01*
X565915Y181071D01*
X565937Y180960D01*
X565954Y180848D01*
X565968Y180735D01*
X565978Y180622D01*
X565984Y180509D01*
X565986Y180396D01*
X565984Y180283D01*
X565978Y180170D01*
X565968Y180057D01*
X565954Y179944D01*
X565937Y179832D01*
X565915Y179721D01*
X565890Y179611D01*
X565860Y179501D01*
X565827Y179393D01*
X565790Y179286D01*
X565750Y179180D01*
X565705Y179076D01*
X565657Y178973D01*
X565606Y178872D01*
X565551Y178773D01*
X565493Y178676D01*
X565431Y178581D01*
X565366Y178488D01*
X565298Y178398D01*
X565227Y178310D01*
X565152Y178224D01*
X565075Y178141D01*
X564995Y178061D01*
X564912Y177984D01*
X564826Y177909D01*
X564738Y177838D01*
X564648Y177770D01*
X564555Y177705D01*
X564460Y177643D01*
X564363Y177585D01*
X564264Y177530D01*
X564163Y177479D01*
X564060Y177431D01*
X563956Y177386D01*
X563850Y177346D01*
X563743Y177309D01*
X563635Y177276D01*
X563525Y177246D01*
X563415Y177221D01*
X563304Y177199D01*
X563192Y177182D01*
X563079Y177168D01*
X562966Y177158D01*
X562853Y177152D01*
X562740Y177150D01*
X562740Y177151D02*
X559495Y177151D01*
X563389Y177151D02*
X565986Y171958D01*
X570851Y181046D02*
X574096Y183642D01*
X574096Y171958D01*
X570851Y171958D02*
X577342Y171958D01*
X705358Y184658D02*
X705358Y196342D01*
X708604Y196342D01*
X708717Y196340D01*
X708830Y196334D01*
X708943Y196324D01*
X709056Y196310D01*
X709168Y196293D01*
X709279Y196271D01*
X709389Y196246D01*
X709499Y196216D01*
X709607Y196183D01*
X709714Y196146D01*
X709820Y196106D01*
X709924Y196061D01*
X710027Y196013D01*
X710128Y195962D01*
X710227Y195907D01*
X710324Y195849D01*
X710419Y195787D01*
X710512Y195722D01*
X710602Y195654D01*
X710690Y195583D01*
X710776Y195508D01*
X710859Y195431D01*
X710939Y195351D01*
X711016Y195268D01*
X711091Y195182D01*
X711162Y195094D01*
X711230Y195004D01*
X711295Y194911D01*
X711357Y194816D01*
X711415Y194719D01*
X711470Y194620D01*
X711521Y194519D01*
X711569Y194416D01*
X711614Y194312D01*
X711654Y194206D01*
X711691Y194099D01*
X711724Y193991D01*
X711754Y193881D01*
X711779Y193771D01*
X711801Y193660D01*
X711818Y193548D01*
X711832Y193435D01*
X711842Y193322D01*
X711848Y193209D01*
X711850Y193096D01*
X711848Y192983D01*
X711842Y192870D01*
X711832Y192757D01*
X711818Y192644D01*
X711801Y192532D01*
X711779Y192421D01*
X711754Y192311D01*
X711724Y192201D01*
X711691Y192093D01*
X711654Y191986D01*
X711614Y191880D01*
X711569Y191776D01*
X711521Y191673D01*
X711470Y191572D01*
X711415Y191473D01*
X711357Y191376D01*
X711295Y191281D01*
X711230Y191188D01*
X711162Y191098D01*
X711091Y191010D01*
X711016Y190924D01*
X710939Y190841D01*
X710859Y190761D01*
X710776Y190684D01*
X710690Y190609D01*
X710602Y190538D01*
X710512Y190470D01*
X710419Y190405D01*
X710324Y190343D01*
X710227Y190285D01*
X710128Y190230D01*
X710027Y190179D01*
X709924Y190131D01*
X709820Y190086D01*
X709714Y190046D01*
X709607Y190009D01*
X709499Y189976D01*
X709389Y189946D01*
X709279Y189921D01*
X709168Y189899D01*
X709056Y189882D01*
X708943Y189868D01*
X708830Y189858D01*
X708717Y189852D01*
X708604Y189850D01*
X708604Y189851D02*
X705358Y189851D01*
X709253Y189851D02*
X711849Y184658D01*
X723205Y193421D02*
X723203Y193528D01*
X723197Y193634D01*
X723187Y193740D01*
X723174Y193846D01*
X723156Y193952D01*
X723135Y194056D01*
X723110Y194160D01*
X723081Y194263D01*
X723049Y194364D01*
X723012Y194464D01*
X722972Y194563D01*
X722929Y194661D01*
X722882Y194757D01*
X722831Y194851D01*
X722777Y194943D01*
X722720Y195033D01*
X722660Y195121D01*
X722596Y195206D01*
X722529Y195289D01*
X722459Y195370D01*
X722387Y195448D01*
X722311Y195524D01*
X722233Y195596D01*
X722152Y195666D01*
X722069Y195733D01*
X721984Y195797D01*
X721896Y195857D01*
X721806Y195914D01*
X721714Y195968D01*
X721620Y196019D01*
X721524Y196066D01*
X721426Y196109D01*
X721327Y196149D01*
X721227Y196186D01*
X721126Y196218D01*
X721023Y196247D01*
X720919Y196272D01*
X720815Y196293D01*
X720709Y196311D01*
X720603Y196324D01*
X720497Y196334D01*
X720391Y196340D01*
X720284Y196342D01*
X720163Y196340D01*
X720042Y196334D01*
X719922Y196324D01*
X719801Y196311D01*
X719682Y196293D01*
X719562Y196272D01*
X719444Y196247D01*
X719327Y196218D01*
X719210Y196185D01*
X719095Y196149D01*
X718981Y196108D01*
X718868Y196065D01*
X718756Y196017D01*
X718647Y195966D01*
X718539Y195911D01*
X718432Y195853D01*
X718328Y195792D01*
X718226Y195727D01*
X718126Y195659D01*
X718028Y195588D01*
X717932Y195514D01*
X717839Y195437D01*
X717749Y195356D01*
X717661Y195273D01*
X717576Y195187D01*
X717493Y195098D01*
X717414Y195007D01*
X717337Y194913D01*
X717264Y194817D01*
X717194Y194719D01*
X717127Y194618D01*
X717063Y194515D01*
X717003Y194410D01*
X716946Y194303D01*
X716892Y194195D01*
X716842Y194085D01*
X716796Y193973D01*
X716753Y193860D01*
X716714Y193745D01*
X722232Y191149D02*
X722311Y191226D01*
X722387Y191307D01*
X722460Y191390D01*
X722530Y191475D01*
X722597Y191563D01*
X722661Y191653D01*
X722721Y191745D01*
X722778Y191840D01*
X722832Y191936D01*
X722883Y192034D01*
X722930Y192134D01*
X722974Y192236D01*
X723014Y192339D01*
X723050Y192443D01*
X723082Y192549D01*
X723111Y192655D01*
X723136Y192763D01*
X723158Y192871D01*
X723175Y192981D01*
X723189Y193090D01*
X723198Y193200D01*
X723204Y193311D01*
X723206Y193421D01*
X722232Y191149D02*
X716714Y184658D01*
X723205Y184658D01*
X749995Y170942D02*
X749995Y159258D01*
X749995Y170942D02*
X753240Y170942D01*
X753353Y170940D01*
X753466Y170934D01*
X753579Y170924D01*
X753692Y170910D01*
X753804Y170893D01*
X753915Y170871D01*
X754025Y170846D01*
X754135Y170816D01*
X754243Y170783D01*
X754350Y170746D01*
X754456Y170706D01*
X754560Y170661D01*
X754663Y170613D01*
X754764Y170562D01*
X754863Y170507D01*
X754960Y170449D01*
X755055Y170387D01*
X755148Y170322D01*
X755238Y170254D01*
X755326Y170183D01*
X755412Y170108D01*
X755495Y170031D01*
X755575Y169951D01*
X755652Y169868D01*
X755727Y169782D01*
X755798Y169694D01*
X755866Y169604D01*
X755931Y169511D01*
X755993Y169416D01*
X756051Y169319D01*
X756106Y169220D01*
X756157Y169119D01*
X756205Y169016D01*
X756250Y168912D01*
X756290Y168806D01*
X756327Y168699D01*
X756360Y168591D01*
X756390Y168481D01*
X756415Y168371D01*
X756437Y168260D01*
X756454Y168148D01*
X756468Y168035D01*
X756478Y167922D01*
X756484Y167809D01*
X756486Y167696D01*
X756484Y167583D01*
X756478Y167470D01*
X756468Y167357D01*
X756454Y167244D01*
X756437Y167132D01*
X756415Y167021D01*
X756390Y166911D01*
X756360Y166801D01*
X756327Y166693D01*
X756290Y166586D01*
X756250Y166480D01*
X756205Y166376D01*
X756157Y166273D01*
X756106Y166172D01*
X756051Y166073D01*
X755993Y165976D01*
X755931Y165881D01*
X755866Y165788D01*
X755798Y165698D01*
X755727Y165610D01*
X755652Y165524D01*
X755575Y165441D01*
X755495Y165361D01*
X755412Y165284D01*
X755326Y165209D01*
X755238Y165138D01*
X755148Y165070D01*
X755055Y165005D01*
X754960Y164943D01*
X754863Y164885D01*
X754764Y164830D01*
X754663Y164779D01*
X754560Y164731D01*
X754456Y164686D01*
X754350Y164646D01*
X754243Y164609D01*
X754135Y164576D01*
X754025Y164546D01*
X753915Y164521D01*
X753804Y164499D01*
X753692Y164482D01*
X753579Y164468D01*
X753466Y164458D01*
X753353Y164452D01*
X753240Y164450D01*
X753240Y164451D02*
X749995Y164451D01*
X753889Y164451D02*
X756486Y159258D01*
X761351Y159258D02*
X764596Y159258D01*
X764709Y159260D01*
X764822Y159266D01*
X764935Y159276D01*
X765048Y159290D01*
X765160Y159307D01*
X765271Y159329D01*
X765381Y159354D01*
X765491Y159384D01*
X765599Y159417D01*
X765706Y159454D01*
X765812Y159494D01*
X765916Y159539D01*
X766019Y159587D01*
X766120Y159638D01*
X766219Y159693D01*
X766316Y159751D01*
X766411Y159813D01*
X766504Y159878D01*
X766594Y159946D01*
X766682Y160017D01*
X766768Y160092D01*
X766851Y160169D01*
X766931Y160249D01*
X767008Y160332D01*
X767083Y160418D01*
X767154Y160506D01*
X767222Y160596D01*
X767287Y160689D01*
X767349Y160784D01*
X767407Y160881D01*
X767462Y160980D01*
X767513Y161081D01*
X767561Y161184D01*
X767606Y161288D01*
X767646Y161394D01*
X767683Y161501D01*
X767716Y161609D01*
X767746Y161719D01*
X767771Y161829D01*
X767793Y161940D01*
X767810Y162052D01*
X767824Y162165D01*
X767834Y162278D01*
X767840Y162391D01*
X767842Y162504D01*
X767840Y162617D01*
X767834Y162730D01*
X767824Y162843D01*
X767810Y162956D01*
X767793Y163068D01*
X767771Y163179D01*
X767746Y163289D01*
X767716Y163399D01*
X767683Y163507D01*
X767646Y163614D01*
X767606Y163720D01*
X767561Y163824D01*
X767513Y163927D01*
X767462Y164028D01*
X767407Y164127D01*
X767349Y164224D01*
X767287Y164319D01*
X767222Y164412D01*
X767154Y164502D01*
X767083Y164590D01*
X767008Y164676D01*
X766931Y164759D01*
X766851Y164839D01*
X766768Y164916D01*
X766682Y164991D01*
X766594Y165062D01*
X766504Y165130D01*
X766411Y165195D01*
X766316Y165257D01*
X766219Y165315D01*
X766120Y165370D01*
X766019Y165421D01*
X765916Y165469D01*
X765812Y165514D01*
X765706Y165554D01*
X765599Y165591D01*
X765491Y165624D01*
X765381Y165654D01*
X765271Y165679D01*
X765160Y165701D01*
X765048Y165718D01*
X764935Y165732D01*
X764822Y165742D01*
X764709Y165748D01*
X764596Y165750D01*
X765246Y170942D02*
X761351Y170942D01*
X765246Y170942D02*
X765347Y170940D01*
X765447Y170934D01*
X765547Y170924D01*
X765647Y170911D01*
X765746Y170893D01*
X765845Y170872D01*
X765942Y170847D01*
X766039Y170818D01*
X766134Y170785D01*
X766228Y170749D01*
X766320Y170709D01*
X766411Y170666D01*
X766500Y170619D01*
X766587Y170569D01*
X766673Y170515D01*
X766756Y170458D01*
X766836Y170398D01*
X766915Y170335D01*
X766991Y170268D01*
X767064Y170199D01*
X767134Y170127D01*
X767202Y170053D01*
X767267Y169976D01*
X767328Y169896D01*
X767387Y169814D01*
X767442Y169730D01*
X767494Y169644D01*
X767543Y169556D01*
X767588Y169466D01*
X767630Y169374D01*
X767668Y169281D01*
X767702Y169186D01*
X767733Y169091D01*
X767760Y168994D01*
X767783Y168896D01*
X767803Y168797D01*
X767818Y168697D01*
X767830Y168597D01*
X767838Y168497D01*
X767842Y168396D01*
X767842Y168296D01*
X767838Y168195D01*
X767830Y168095D01*
X767818Y167995D01*
X767803Y167895D01*
X767783Y167796D01*
X767760Y167698D01*
X767733Y167601D01*
X767702Y167506D01*
X767668Y167411D01*
X767630Y167318D01*
X767588Y167226D01*
X767543Y167136D01*
X767494Y167048D01*
X767442Y166962D01*
X767387Y166878D01*
X767328Y166796D01*
X767267Y166716D01*
X767202Y166639D01*
X767134Y166565D01*
X767064Y166493D01*
X766991Y166424D01*
X766915Y166357D01*
X766836Y166294D01*
X766756Y166234D01*
X766673Y166177D01*
X766587Y166123D01*
X766500Y166073D01*
X766411Y166026D01*
X766320Y165983D01*
X766228Y165943D01*
X766134Y165907D01*
X766039Y165874D01*
X765942Y165845D01*
X765845Y165820D01*
X765746Y165799D01*
X765647Y165781D01*
X765547Y165768D01*
X765447Y165758D01*
X765347Y165752D01*
X765246Y165750D01*
X765246Y165749D02*
X762649Y165749D01*
X705358Y362458D02*
X705358Y374142D01*
X708604Y374142D01*
X708717Y374140D01*
X708830Y374134D01*
X708943Y374124D01*
X709056Y374110D01*
X709168Y374093D01*
X709279Y374071D01*
X709389Y374046D01*
X709499Y374016D01*
X709607Y373983D01*
X709714Y373946D01*
X709820Y373906D01*
X709924Y373861D01*
X710027Y373813D01*
X710128Y373762D01*
X710227Y373707D01*
X710324Y373649D01*
X710419Y373587D01*
X710512Y373522D01*
X710602Y373454D01*
X710690Y373383D01*
X710776Y373308D01*
X710859Y373231D01*
X710939Y373151D01*
X711016Y373068D01*
X711091Y372982D01*
X711162Y372894D01*
X711230Y372804D01*
X711295Y372711D01*
X711357Y372616D01*
X711415Y372519D01*
X711470Y372420D01*
X711521Y372319D01*
X711569Y372216D01*
X711614Y372112D01*
X711654Y372006D01*
X711691Y371899D01*
X711724Y371791D01*
X711754Y371681D01*
X711779Y371571D01*
X711801Y371460D01*
X711818Y371348D01*
X711832Y371235D01*
X711842Y371122D01*
X711848Y371009D01*
X711850Y370896D01*
X711848Y370783D01*
X711842Y370670D01*
X711832Y370557D01*
X711818Y370444D01*
X711801Y370332D01*
X711779Y370221D01*
X711754Y370111D01*
X711724Y370001D01*
X711691Y369893D01*
X711654Y369786D01*
X711614Y369680D01*
X711569Y369576D01*
X711521Y369473D01*
X711470Y369372D01*
X711415Y369273D01*
X711357Y369176D01*
X711295Y369081D01*
X711230Y368988D01*
X711162Y368898D01*
X711091Y368810D01*
X711016Y368724D01*
X710939Y368641D01*
X710859Y368561D01*
X710776Y368484D01*
X710690Y368409D01*
X710602Y368338D01*
X710512Y368270D01*
X710419Y368205D01*
X710324Y368143D01*
X710227Y368085D01*
X710128Y368030D01*
X710027Y367979D01*
X709924Y367931D01*
X709820Y367886D01*
X709714Y367846D01*
X709607Y367809D01*
X709499Y367776D01*
X709389Y367746D01*
X709279Y367721D01*
X709168Y367699D01*
X709056Y367682D01*
X708943Y367668D01*
X708830Y367658D01*
X708717Y367652D01*
X708604Y367650D01*
X708604Y367651D02*
X705358Y367651D01*
X709253Y367651D02*
X711849Y362458D01*
X716714Y365054D02*
X719311Y374142D01*
X716714Y365054D02*
X723205Y365054D01*
X721258Y367651D02*
X721258Y362458D01*
X749995Y348742D02*
X749995Y337058D01*
X749995Y348742D02*
X753240Y348742D01*
X753353Y348740D01*
X753466Y348734D01*
X753579Y348724D01*
X753692Y348710D01*
X753804Y348693D01*
X753915Y348671D01*
X754025Y348646D01*
X754135Y348616D01*
X754243Y348583D01*
X754350Y348546D01*
X754456Y348506D01*
X754560Y348461D01*
X754663Y348413D01*
X754764Y348362D01*
X754863Y348307D01*
X754960Y348249D01*
X755055Y348187D01*
X755148Y348122D01*
X755238Y348054D01*
X755326Y347983D01*
X755412Y347908D01*
X755495Y347831D01*
X755575Y347751D01*
X755652Y347668D01*
X755727Y347582D01*
X755798Y347494D01*
X755866Y347404D01*
X755931Y347311D01*
X755993Y347216D01*
X756051Y347119D01*
X756106Y347020D01*
X756157Y346919D01*
X756205Y346816D01*
X756250Y346712D01*
X756290Y346606D01*
X756327Y346499D01*
X756360Y346391D01*
X756390Y346281D01*
X756415Y346171D01*
X756437Y346060D01*
X756454Y345948D01*
X756468Y345835D01*
X756478Y345722D01*
X756484Y345609D01*
X756486Y345496D01*
X756484Y345383D01*
X756478Y345270D01*
X756468Y345157D01*
X756454Y345044D01*
X756437Y344932D01*
X756415Y344821D01*
X756390Y344711D01*
X756360Y344601D01*
X756327Y344493D01*
X756290Y344386D01*
X756250Y344280D01*
X756205Y344176D01*
X756157Y344073D01*
X756106Y343972D01*
X756051Y343873D01*
X755993Y343776D01*
X755931Y343681D01*
X755866Y343588D01*
X755798Y343498D01*
X755727Y343410D01*
X755652Y343324D01*
X755575Y343241D01*
X755495Y343161D01*
X755412Y343084D01*
X755326Y343009D01*
X755238Y342938D01*
X755148Y342870D01*
X755055Y342805D01*
X754960Y342743D01*
X754863Y342685D01*
X754764Y342630D01*
X754663Y342579D01*
X754560Y342531D01*
X754456Y342486D01*
X754350Y342446D01*
X754243Y342409D01*
X754135Y342376D01*
X754025Y342346D01*
X753915Y342321D01*
X753804Y342299D01*
X753692Y342282D01*
X753579Y342268D01*
X753466Y342258D01*
X753353Y342252D01*
X753240Y342250D01*
X753240Y342251D02*
X749995Y342251D01*
X753889Y342251D02*
X756486Y337058D01*
X761351Y337058D02*
X765246Y337058D01*
X765345Y337060D01*
X765445Y337066D01*
X765544Y337075D01*
X765642Y337088D01*
X765740Y337105D01*
X765838Y337126D01*
X765934Y337151D01*
X766029Y337179D01*
X766123Y337211D01*
X766216Y337246D01*
X766308Y337285D01*
X766398Y337328D01*
X766486Y337373D01*
X766573Y337423D01*
X766657Y337475D01*
X766740Y337531D01*
X766820Y337589D01*
X766898Y337651D01*
X766973Y337716D01*
X767046Y337784D01*
X767116Y337854D01*
X767184Y337927D01*
X767249Y338002D01*
X767311Y338080D01*
X767369Y338160D01*
X767425Y338243D01*
X767477Y338327D01*
X767527Y338414D01*
X767572Y338502D01*
X767615Y338592D01*
X767654Y338684D01*
X767689Y338777D01*
X767721Y338871D01*
X767749Y338966D01*
X767774Y339062D01*
X767795Y339160D01*
X767812Y339258D01*
X767825Y339356D01*
X767834Y339455D01*
X767840Y339555D01*
X767842Y339654D01*
X767842Y340953D01*
X767840Y341052D01*
X767834Y341152D01*
X767825Y341251D01*
X767812Y341349D01*
X767795Y341447D01*
X767774Y341545D01*
X767749Y341641D01*
X767721Y341736D01*
X767689Y341830D01*
X767654Y341923D01*
X767615Y342015D01*
X767572Y342105D01*
X767527Y342193D01*
X767477Y342280D01*
X767425Y342364D01*
X767369Y342447D01*
X767311Y342527D01*
X767249Y342605D01*
X767184Y342680D01*
X767116Y342753D01*
X767046Y342823D01*
X766973Y342891D01*
X766898Y342956D01*
X766820Y343018D01*
X766740Y343076D01*
X766657Y343132D01*
X766573Y343184D01*
X766486Y343234D01*
X766398Y343279D01*
X766308Y343322D01*
X766216Y343361D01*
X766123Y343396D01*
X766029Y343428D01*
X765934Y343456D01*
X765838Y343481D01*
X765740Y343502D01*
X765642Y343519D01*
X765544Y343532D01*
X765445Y343541D01*
X765345Y343547D01*
X765246Y343549D01*
X761351Y343549D01*
X761351Y348742D01*
X767842Y348742D01*
X513842Y324358D02*
X502158Y324358D01*
X502158Y327604D01*
X502160Y327717D01*
X502166Y327830D01*
X502176Y327943D01*
X502190Y328056D01*
X502207Y328168D01*
X502229Y328279D01*
X502254Y328389D01*
X502284Y328499D01*
X502317Y328607D01*
X502354Y328714D01*
X502394Y328820D01*
X502439Y328924D01*
X502487Y329027D01*
X502538Y329128D01*
X502593Y329227D01*
X502651Y329324D01*
X502713Y329419D01*
X502778Y329512D01*
X502846Y329602D01*
X502917Y329690D01*
X502992Y329776D01*
X503069Y329859D01*
X503149Y329939D01*
X503232Y330016D01*
X503318Y330091D01*
X503406Y330162D01*
X503496Y330230D01*
X503589Y330295D01*
X503684Y330357D01*
X503781Y330415D01*
X503880Y330470D01*
X503981Y330521D01*
X504084Y330569D01*
X504188Y330614D01*
X504294Y330654D01*
X504401Y330691D01*
X504509Y330724D01*
X504619Y330754D01*
X504729Y330779D01*
X504840Y330801D01*
X504952Y330818D01*
X505065Y330832D01*
X505178Y330842D01*
X505291Y330848D01*
X505404Y330850D01*
X505517Y330848D01*
X505630Y330842D01*
X505743Y330832D01*
X505856Y330818D01*
X505968Y330801D01*
X506079Y330779D01*
X506189Y330754D01*
X506299Y330724D01*
X506407Y330691D01*
X506514Y330654D01*
X506620Y330614D01*
X506724Y330569D01*
X506827Y330521D01*
X506928Y330470D01*
X507027Y330415D01*
X507124Y330357D01*
X507219Y330295D01*
X507312Y330230D01*
X507402Y330162D01*
X507490Y330091D01*
X507576Y330016D01*
X507659Y329939D01*
X507739Y329859D01*
X507816Y329776D01*
X507891Y329690D01*
X507962Y329602D01*
X508030Y329512D01*
X508095Y329419D01*
X508157Y329324D01*
X508215Y329227D01*
X508270Y329128D01*
X508321Y329027D01*
X508369Y328924D01*
X508414Y328820D01*
X508454Y328714D01*
X508491Y328607D01*
X508524Y328499D01*
X508554Y328389D01*
X508579Y328279D01*
X508601Y328168D01*
X508618Y328056D01*
X508632Y327943D01*
X508642Y327830D01*
X508648Y327717D01*
X508650Y327604D01*
X508649Y327604D02*
X508649Y324358D01*
X508649Y328253D02*
X513842Y330849D01*
X507351Y335714D02*
X507351Y339609D01*
X507353Y339708D01*
X507359Y339808D01*
X507368Y339907D01*
X507381Y340005D01*
X507398Y340103D01*
X507419Y340201D01*
X507444Y340297D01*
X507472Y340392D01*
X507504Y340486D01*
X507539Y340579D01*
X507578Y340671D01*
X507621Y340761D01*
X507666Y340849D01*
X507716Y340936D01*
X507768Y341020D01*
X507824Y341103D01*
X507882Y341183D01*
X507944Y341261D01*
X508009Y341336D01*
X508077Y341409D01*
X508147Y341479D01*
X508220Y341547D01*
X508295Y341612D01*
X508373Y341674D01*
X508453Y341732D01*
X508536Y341788D01*
X508620Y341840D01*
X508707Y341890D01*
X508795Y341935D01*
X508885Y341978D01*
X508977Y342017D01*
X509070Y342052D01*
X509164Y342084D01*
X509259Y342112D01*
X509355Y342137D01*
X509453Y342158D01*
X509551Y342175D01*
X509649Y342188D01*
X509748Y342197D01*
X509848Y342203D01*
X509947Y342205D01*
X510596Y342205D01*
X510596Y342206D02*
X510709Y342204D01*
X510822Y342198D01*
X510935Y342188D01*
X511048Y342174D01*
X511160Y342157D01*
X511271Y342135D01*
X511381Y342110D01*
X511491Y342080D01*
X511599Y342047D01*
X511706Y342010D01*
X511812Y341970D01*
X511916Y341925D01*
X512019Y341877D01*
X512120Y341826D01*
X512219Y341771D01*
X512316Y341713D01*
X512411Y341651D01*
X512504Y341586D01*
X512594Y341518D01*
X512682Y341447D01*
X512768Y341372D01*
X512851Y341295D01*
X512931Y341215D01*
X513008Y341132D01*
X513083Y341046D01*
X513154Y340958D01*
X513222Y340868D01*
X513287Y340775D01*
X513349Y340680D01*
X513407Y340583D01*
X513462Y340484D01*
X513513Y340383D01*
X513561Y340280D01*
X513606Y340176D01*
X513646Y340070D01*
X513683Y339963D01*
X513716Y339855D01*
X513746Y339745D01*
X513771Y339635D01*
X513793Y339524D01*
X513810Y339412D01*
X513824Y339299D01*
X513834Y339186D01*
X513840Y339073D01*
X513842Y338960D01*
X513840Y338847D01*
X513834Y338734D01*
X513824Y338621D01*
X513810Y338508D01*
X513793Y338396D01*
X513771Y338285D01*
X513746Y338175D01*
X513716Y338065D01*
X513683Y337957D01*
X513646Y337850D01*
X513606Y337744D01*
X513561Y337640D01*
X513513Y337537D01*
X513462Y337436D01*
X513407Y337337D01*
X513349Y337240D01*
X513287Y337145D01*
X513222Y337052D01*
X513154Y336962D01*
X513083Y336874D01*
X513008Y336788D01*
X512931Y336705D01*
X512851Y336625D01*
X512768Y336548D01*
X512682Y336473D01*
X512594Y336402D01*
X512504Y336334D01*
X512411Y336269D01*
X512316Y336207D01*
X512219Y336149D01*
X512120Y336094D01*
X512019Y336043D01*
X511916Y335995D01*
X511812Y335950D01*
X511706Y335910D01*
X511599Y335873D01*
X511491Y335840D01*
X511381Y335810D01*
X511271Y335785D01*
X511160Y335763D01*
X511048Y335746D01*
X510935Y335732D01*
X510822Y335722D01*
X510709Y335716D01*
X510596Y335714D01*
X507351Y335714D01*
X507208Y335716D01*
X507065Y335722D01*
X506922Y335732D01*
X506780Y335746D01*
X506638Y335763D01*
X506496Y335785D01*
X506355Y335810D01*
X506215Y335840D01*
X506076Y335873D01*
X505938Y335910D01*
X505801Y335951D01*
X505665Y335995D01*
X505530Y336044D01*
X505397Y336096D01*
X505265Y336151D01*
X505135Y336211D01*
X505006Y336274D01*
X504879Y336340D01*
X504755Y336410D01*
X504632Y336483D01*
X504511Y336560D01*
X504392Y336639D01*
X504276Y336723D01*
X504161Y336809D01*
X504050Y336898D01*
X503941Y336991D01*
X503834Y337086D01*
X503730Y337185D01*
X503629Y337286D01*
X503530Y337390D01*
X503435Y337496D01*
X503342Y337606D01*
X503253Y337717D01*
X503167Y337831D01*
X503084Y337948D01*
X503004Y338067D01*
X502927Y338188D01*
X502854Y338310D01*
X502784Y338435D01*
X502718Y338562D01*
X502655Y338691D01*
X502595Y338821D01*
X502540Y338953D01*
X502488Y339086D01*
X502439Y339221D01*
X502395Y339357D01*
X502354Y339494D01*
X502317Y339632D01*
X502284Y339771D01*
X502254Y339911D01*
X502229Y340052D01*
X502207Y340194D01*
X502190Y340336D01*
X502176Y340478D01*
X502166Y340621D01*
X502160Y340764D01*
X502158Y340907D01*
X527558Y368995D02*
X539242Y368995D01*
X527558Y368995D02*
X527558Y372240D01*
X527560Y372353D01*
X527566Y372466D01*
X527576Y372579D01*
X527590Y372692D01*
X527607Y372804D01*
X527629Y372915D01*
X527654Y373025D01*
X527684Y373135D01*
X527717Y373243D01*
X527754Y373350D01*
X527794Y373456D01*
X527839Y373560D01*
X527887Y373663D01*
X527938Y373764D01*
X527993Y373863D01*
X528051Y373960D01*
X528113Y374055D01*
X528178Y374148D01*
X528246Y374238D01*
X528317Y374326D01*
X528392Y374412D01*
X528469Y374495D01*
X528549Y374575D01*
X528632Y374652D01*
X528718Y374727D01*
X528806Y374798D01*
X528896Y374866D01*
X528989Y374931D01*
X529084Y374993D01*
X529181Y375051D01*
X529280Y375106D01*
X529381Y375157D01*
X529484Y375205D01*
X529588Y375250D01*
X529694Y375290D01*
X529801Y375327D01*
X529909Y375360D01*
X530019Y375390D01*
X530129Y375415D01*
X530240Y375437D01*
X530352Y375454D01*
X530465Y375468D01*
X530578Y375478D01*
X530691Y375484D01*
X530804Y375486D01*
X530917Y375484D01*
X531030Y375478D01*
X531143Y375468D01*
X531256Y375454D01*
X531368Y375437D01*
X531479Y375415D01*
X531589Y375390D01*
X531699Y375360D01*
X531807Y375327D01*
X531914Y375290D01*
X532020Y375250D01*
X532124Y375205D01*
X532227Y375157D01*
X532328Y375106D01*
X532427Y375051D01*
X532524Y374993D01*
X532619Y374931D01*
X532712Y374866D01*
X532802Y374798D01*
X532890Y374727D01*
X532976Y374652D01*
X533059Y374575D01*
X533139Y374495D01*
X533216Y374412D01*
X533291Y374326D01*
X533362Y374238D01*
X533430Y374148D01*
X533495Y374055D01*
X533557Y373960D01*
X533615Y373863D01*
X533670Y373764D01*
X533721Y373663D01*
X533769Y373560D01*
X533814Y373456D01*
X533854Y373350D01*
X533891Y373243D01*
X533924Y373135D01*
X533954Y373025D01*
X533979Y372915D01*
X534001Y372804D01*
X534018Y372692D01*
X534032Y372579D01*
X534042Y372466D01*
X534048Y372353D01*
X534050Y372240D01*
X534049Y372240D02*
X534049Y368995D01*
X534049Y372889D02*
X539242Y375486D01*
X528856Y380351D02*
X527558Y380351D01*
X527558Y386842D01*
X539242Y383596D01*
X196342Y311658D02*
X184658Y311658D01*
X184658Y314904D01*
X184660Y315017D01*
X184666Y315130D01*
X184676Y315243D01*
X184690Y315356D01*
X184707Y315468D01*
X184729Y315579D01*
X184754Y315689D01*
X184784Y315799D01*
X184817Y315907D01*
X184854Y316014D01*
X184894Y316120D01*
X184939Y316224D01*
X184987Y316327D01*
X185038Y316428D01*
X185093Y316527D01*
X185151Y316624D01*
X185213Y316719D01*
X185278Y316812D01*
X185346Y316902D01*
X185417Y316990D01*
X185492Y317076D01*
X185569Y317159D01*
X185649Y317239D01*
X185732Y317316D01*
X185818Y317391D01*
X185906Y317462D01*
X185996Y317530D01*
X186089Y317595D01*
X186184Y317657D01*
X186281Y317715D01*
X186380Y317770D01*
X186481Y317821D01*
X186584Y317869D01*
X186688Y317914D01*
X186794Y317954D01*
X186901Y317991D01*
X187009Y318024D01*
X187119Y318054D01*
X187229Y318079D01*
X187340Y318101D01*
X187452Y318118D01*
X187565Y318132D01*
X187678Y318142D01*
X187791Y318148D01*
X187904Y318150D01*
X188017Y318148D01*
X188130Y318142D01*
X188243Y318132D01*
X188356Y318118D01*
X188468Y318101D01*
X188579Y318079D01*
X188689Y318054D01*
X188799Y318024D01*
X188907Y317991D01*
X189014Y317954D01*
X189120Y317914D01*
X189224Y317869D01*
X189327Y317821D01*
X189428Y317770D01*
X189527Y317715D01*
X189624Y317657D01*
X189719Y317595D01*
X189812Y317530D01*
X189902Y317462D01*
X189990Y317391D01*
X190076Y317316D01*
X190159Y317239D01*
X190239Y317159D01*
X190316Y317076D01*
X190391Y316990D01*
X190462Y316902D01*
X190530Y316812D01*
X190595Y316719D01*
X190657Y316624D01*
X190715Y316527D01*
X190770Y316428D01*
X190821Y316327D01*
X190869Y316224D01*
X190914Y316120D01*
X190954Y316014D01*
X190991Y315907D01*
X191024Y315799D01*
X191054Y315689D01*
X191079Y315579D01*
X191101Y315468D01*
X191118Y315356D01*
X191132Y315243D01*
X191142Y315130D01*
X191148Y315017D01*
X191150Y314904D01*
X191149Y314904D02*
X191149Y311658D01*
X191149Y315553D02*
X196342Y318149D01*
X193096Y323014D02*
X192983Y323016D01*
X192870Y323022D01*
X192757Y323032D01*
X192644Y323046D01*
X192532Y323063D01*
X192421Y323085D01*
X192311Y323110D01*
X192201Y323140D01*
X192093Y323173D01*
X191986Y323210D01*
X191880Y323250D01*
X191776Y323295D01*
X191673Y323343D01*
X191572Y323394D01*
X191473Y323449D01*
X191376Y323507D01*
X191281Y323569D01*
X191188Y323634D01*
X191098Y323702D01*
X191010Y323773D01*
X190924Y323848D01*
X190841Y323925D01*
X190761Y324005D01*
X190684Y324088D01*
X190609Y324174D01*
X190538Y324262D01*
X190470Y324352D01*
X190405Y324445D01*
X190343Y324540D01*
X190285Y324637D01*
X190230Y324736D01*
X190179Y324837D01*
X190131Y324940D01*
X190086Y325044D01*
X190046Y325150D01*
X190009Y325257D01*
X189976Y325365D01*
X189946Y325475D01*
X189921Y325585D01*
X189899Y325696D01*
X189882Y325808D01*
X189868Y325921D01*
X189858Y326034D01*
X189852Y326147D01*
X189850Y326260D01*
X189852Y326373D01*
X189858Y326486D01*
X189868Y326599D01*
X189882Y326712D01*
X189899Y326824D01*
X189921Y326935D01*
X189946Y327045D01*
X189976Y327155D01*
X190009Y327263D01*
X190046Y327370D01*
X190086Y327476D01*
X190131Y327580D01*
X190179Y327683D01*
X190230Y327784D01*
X190285Y327883D01*
X190343Y327980D01*
X190405Y328075D01*
X190470Y328168D01*
X190538Y328258D01*
X190609Y328346D01*
X190684Y328432D01*
X190761Y328515D01*
X190841Y328595D01*
X190924Y328672D01*
X191010Y328747D01*
X191098Y328818D01*
X191188Y328886D01*
X191281Y328951D01*
X191376Y329013D01*
X191473Y329071D01*
X191572Y329126D01*
X191673Y329177D01*
X191776Y329225D01*
X191880Y329270D01*
X191986Y329310D01*
X192093Y329347D01*
X192201Y329380D01*
X192311Y329410D01*
X192421Y329435D01*
X192532Y329457D01*
X192644Y329474D01*
X192757Y329488D01*
X192870Y329498D01*
X192983Y329504D01*
X193096Y329506D01*
X193209Y329504D01*
X193322Y329498D01*
X193435Y329488D01*
X193548Y329474D01*
X193660Y329457D01*
X193771Y329435D01*
X193881Y329410D01*
X193991Y329380D01*
X194099Y329347D01*
X194206Y329310D01*
X194312Y329270D01*
X194416Y329225D01*
X194519Y329177D01*
X194620Y329126D01*
X194719Y329071D01*
X194816Y329013D01*
X194911Y328951D01*
X195004Y328886D01*
X195094Y328818D01*
X195182Y328747D01*
X195268Y328672D01*
X195351Y328595D01*
X195431Y328515D01*
X195508Y328432D01*
X195583Y328346D01*
X195654Y328258D01*
X195722Y328168D01*
X195787Y328075D01*
X195849Y327980D01*
X195907Y327883D01*
X195962Y327784D01*
X196013Y327683D01*
X196061Y327580D01*
X196106Y327476D01*
X196146Y327370D01*
X196183Y327263D01*
X196216Y327155D01*
X196246Y327045D01*
X196271Y326935D01*
X196293Y326824D01*
X196310Y326712D01*
X196324Y326599D01*
X196334Y326486D01*
X196340Y326373D01*
X196342Y326260D01*
X196340Y326147D01*
X196334Y326034D01*
X196324Y325921D01*
X196310Y325808D01*
X196293Y325696D01*
X196271Y325585D01*
X196246Y325475D01*
X196216Y325365D01*
X196183Y325257D01*
X196146Y325150D01*
X196106Y325044D01*
X196061Y324940D01*
X196013Y324837D01*
X195962Y324736D01*
X195907Y324637D01*
X195849Y324540D01*
X195787Y324445D01*
X195722Y324352D01*
X195654Y324262D01*
X195583Y324174D01*
X195508Y324088D01*
X195431Y324005D01*
X195351Y323925D01*
X195268Y323848D01*
X195182Y323773D01*
X195094Y323702D01*
X195004Y323634D01*
X194911Y323569D01*
X194816Y323507D01*
X194719Y323449D01*
X194620Y323394D01*
X194519Y323343D01*
X194416Y323295D01*
X194312Y323250D01*
X194206Y323210D01*
X194099Y323173D01*
X193991Y323140D01*
X193881Y323110D01*
X193771Y323085D01*
X193660Y323063D01*
X193548Y323046D01*
X193435Y323032D01*
X193322Y323022D01*
X193209Y323016D01*
X193096Y323014D01*
X187254Y323664D02*
X187153Y323666D01*
X187053Y323672D01*
X186953Y323682D01*
X186853Y323695D01*
X186754Y323713D01*
X186655Y323734D01*
X186558Y323759D01*
X186461Y323788D01*
X186366Y323821D01*
X186272Y323857D01*
X186180Y323897D01*
X186089Y323940D01*
X186000Y323987D01*
X185913Y324037D01*
X185827Y324091D01*
X185744Y324148D01*
X185664Y324208D01*
X185585Y324271D01*
X185509Y324338D01*
X185436Y324407D01*
X185366Y324479D01*
X185298Y324553D01*
X185233Y324630D01*
X185172Y324710D01*
X185113Y324792D01*
X185058Y324876D01*
X185006Y324962D01*
X184957Y325050D01*
X184912Y325140D01*
X184870Y325232D01*
X184832Y325325D01*
X184798Y325420D01*
X184767Y325515D01*
X184740Y325612D01*
X184717Y325710D01*
X184697Y325809D01*
X184682Y325909D01*
X184670Y326009D01*
X184662Y326109D01*
X184658Y326210D01*
X184658Y326310D01*
X184662Y326411D01*
X184670Y326511D01*
X184682Y326611D01*
X184697Y326711D01*
X184717Y326810D01*
X184740Y326908D01*
X184767Y327005D01*
X184798Y327100D01*
X184832Y327195D01*
X184870Y327288D01*
X184912Y327380D01*
X184957Y327470D01*
X185006Y327558D01*
X185058Y327644D01*
X185113Y327728D01*
X185172Y327810D01*
X185233Y327890D01*
X185298Y327967D01*
X185366Y328041D01*
X185436Y328113D01*
X185509Y328182D01*
X185585Y328249D01*
X185664Y328312D01*
X185744Y328372D01*
X185827Y328429D01*
X185913Y328483D01*
X186000Y328533D01*
X186089Y328580D01*
X186180Y328623D01*
X186272Y328663D01*
X186366Y328699D01*
X186461Y328732D01*
X186558Y328761D01*
X186655Y328786D01*
X186754Y328807D01*
X186853Y328825D01*
X186953Y328838D01*
X187053Y328848D01*
X187153Y328854D01*
X187254Y328856D01*
X187355Y328854D01*
X187455Y328848D01*
X187555Y328838D01*
X187655Y328825D01*
X187754Y328807D01*
X187853Y328786D01*
X187950Y328761D01*
X188047Y328732D01*
X188142Y328699D01*
X188236Y328663D01*
X188328Y328623D01*
X188419Y328580D01*
X188508Y328533D01*
X188595Y328483D01*
X188681Y328429D01*
X188764Y328372D01*
X188844Y328312D01*
X188923Y328249D01*
X188999Y328182D01*
X189072Y328113D01*
X189142Y328041D01*
X189210Y327967D01*
X189275Y327890D01*
X189336Y327810D01*
X189395Y327728D01*
X189450Y327644D01*
X189502Y327558D01*
X189551Y327470D01*
X189596Y327380D01*
X189638Y327288D01*
X189676Y327195D01*
X189710Y327100D01*
X189741Y327005D01*
X189768Y326908D01*
X189791Y326810D01*
X189811Y326711D01*
X189826Y326611D01*
X189838Y326511D01*
X189846Y326411D01*
X189850Y326310D01*
X189850Y326210D01*
X189846Y326109D01*
X189838Y326009D01*
X189826Y325909D01*
X189811Y325809D01*
X189791Y325710D01*
X189768Y325612D01*
X189741Y325515D01*
X189710Y325420D01*
X189676Y325325D01*
X189638Y325232D01*
X189596Y325140D01*
X189551Y325050D01*
X189502Y324962D01*
X189450Y324876D01*
X189395Y324792D01*
X189336Y324710D01*
X189275Y324630D01*
X189210Y324553D01*
X189142Y324479D01*
X189072Y324407D01*
X188999Y324338D01*
X188923Y324271D01*
X188844Y324208D01*
X188764Y324148D01*
X188681Y324091D01*
X188595Y324037D01*
X188508Y323987D01*
X188419Y323940D01*
X188328Y323897D01*
X188236Y323857D01*
X188142Y323821D01*
X188047Y323788D01*
X187950Y323759D01*
X187853Y323734D01*
X187754Y323713D01*
X187655Y323695D01*
X187555Y323682D01*
X187455Y323672D01*
X187355Y323666D01*
X187254Y323664D01*
X210058Y356295D02*
X221742Y356295D01*
X210058Y356295D02*
X210058Y359540D01*
X210060Y359653D01*
X210066Y359766D01*
X210076Y359879D01*
X210090Y359992D01*
X210107Y360104D01*
X210129Y360215D01*
X210154Y360325D01*
X210184Y360435D01*
X210217Y360543D01*
X210254Y360650D01*
X210294Y360756D01*
X210339Y360860D01*
X210387Y360963D01*
X210438Y361064D01*
X210493Y361163D01*
X210551Y361260D01*
X210613Y361355D01*
X210678Y361448D01*
X210746Y361538D01*
X210817Y361626D01*
X210892Y361712D01*
X210969Y361795D01*
X211049Y361875D01*
X211132Y361952D01*
X211218Y362027D01*
X211306Y362098D01*
X211396Y362166D01*
X211489Y362231D01*
X211584Y362293D01*
X211681Y362351D01*
X211780Y362406D01*
X211881Y362457D01*
X211984Y362505D01*
X212088Y362550D01*
X212194Y362590D01*
X212301Y362627D01*
X212409Y362660D01*
X212519Y362690D01*
X212629Y362715D01*
X212740Y362737D01*
X212852Y362754D01*
X212965Y362768D01*
X213078Y362778D01*
X213191Y362784D01*
X213304Y362786D01*
X213417Y362784D01*
X213530Y362778D01*
X213643Y362768D01*
X213756Y362754D01*
X213868Y362737D01*
X213979Y362715D01*
X214089Y362690D01*
X214199Y362660D01*
X214307Y362627D01*
X214414Y362590D01*
X214520Y362550D01*
X214624Y362505D01*
X214727Y362457D01*
X214828Y362406D01*
X214927Y362351D01*
X215024Y362293D01*
X215119Y362231D01*
X215212Y362166D01*
X215302Y362098D01*
X215390Y362027D01*
X215476Y361952D01*
X215559Y361875D01*
X215639Y361795D01*
X215716Y361712D01*
X215791Y361626D01*
X215862Y361538D01*
X215930Y361448D01*
X215995Y361355D01*
X216057Y361260D01*
X216115Y361163D01*
X216170Y361064D01*
X216221Y360963D01*
X216269Y360860D01*
X216314Y360756D01*
X216354Y360650D01*
X216391Y360543D01*
X216424Y360435D01*
X216454Y360325D01*
X216479Y360215D01*
X216501Y360104D01*
X216518Y359992D01*
X216532Y359879D01*
X216542Y359766D01*
X216548Y359653D01*
X216550Y359540D01*
X216549Y359540D02*
X216549Y356295D01*
X216549Y360189D02*
X221742Y362786D01*
X216549Y370247D02*
X216549Y374142D01*
X216549Y370247D02*
X216547Y370148D01*
X216541Y370048D01*
X216532Y369949D01*
X216519Y369851D01*
X216502Y369753D01*
X216481Y369655D01*
X216456Y369559D01*
X216428Y369464D01*
X216396Y369370D01*
X216361Y369277D01*
X216322Y369185D01*
X216279Y369095D01*
X216234Y369007D01*
X216184Y368920D01*
X216132Y368836D01*
X216076Y368753D01*
X216018Y368673D01*
X215956Y368595D01*
X215891Y368520D01*
X215823Y368447D01*
X215753Y368377D01*
X215680Y368309D01*
X215605Y368244D01*
X215527Y368182D01*
X215447Y368124D01*
X215364Y368068D01*
X215280Y368016D01*
X215193Y367966D01*
X215105Y367921D01*
X215015Y367878D01*
X214923Y367839D01*
X214830Y367804D01*
X214736Y367772D01*
X214641Y367744D01*
X214545Y367719D01*
X214447Y367698D01*
X214349Y367681D01*
X214251Y367668D01*
X214152Y367659D01*
X214052Y367653D01*
X213953Y367651D01*
X213304Y367651D01*
X213304Y367650D02*
X213191Y367652D01*
X213078Y367658D01*
X212965Y367668D01*
X212852Y367682D01*
X212740Y367699D01*
X212629Y367721D01*
X212519Y367746D01*
X212409Y367776D01*
X212301Y367809D01*
X212194Y367846D01*
X212088Y367886D01*
X211984Y367931D01*
X211881Y367979D01*
X211780Y368030D01*
X211681Y368085D01*
X211584Y368143D01*
X211489Y368205D01*
X211396Y368270D01*
X211306Y368338D01*
X211218Y368409D01*
X211132Y368484D01*
X211049Y368561D01*
X210969Y368641D01*
X210892Y368724D01*
X210817Y368810D01*
X210746Y368898D01*
X210678Y368988D01*
X210613Y369081D01*
X210551Y369176D01*
X210493Y369273D01*
X210438Y369372D01*
X210387Y369473D01*
X210339Y369576D01*
X210294Y369680D01*
X210254Y369786D01*
X210217Y369893D01*
X210184Y370001D01*
X210154Y370111D01*
X210129Y370221D01*
X210107Y370332D01*
X210090Y370444D01*
X210076Y370557D01*
X210066Y370670D01*
X210060Y370783D01*
X210058Y370896D01*
X210060Y371009D01*
X210066Y371122D01*
X210076Y371235D01*
X210090Y371348D01*
X210107Y371460D01*
X210129Y371571D01*
X210154Y371681D01*
X210184Y371791D01*
X210217Y371899D01*
X210254Y372006D01*
X210294Y372112D01*
X210339Y372216D01*
X210387Y372319D01*
X210438Y372420D01*
X210493Y372519D01*
X210551Y372616D01*
X210613Y372711D01*
X210678Y372804D01*
X210746Y372894D01*
X210817Y372982D01*
X210892Y373068D01*
X210969Y373151D01*
X211049Y373231D01*
X211132Y373308D01*
X211218Y373383D01*
X211306Y373454D01*
X211396Y373522D01*
X211489Y373587D01*
X211584Y373649D01*
X211681Y373707D01*
X211780Y373762D01*
X211881Y373813D01*
X211984Y373861D01*
X212088Y373906D01*
X212194Y373946D01*
X212301Y373983D01*
X212409Y374016D01*
X212519Y374046D01*
X212629Y374071D01*
X212740Y374093D01*
X212852Y374110D01*
X212965Y374124D01*
X213078Y374134D01*
X213191Y374140D01*
X213304Y374142D01*
X216549Y374142D01*
X216692Y374140D01*
X216835Y374134D01*
X216978Y374124D01*
X217120Y374110D01*
X217262Y374093D01*
X217404Y374071D01*
X217545Y374046D01*
X217685Y374016D01*
X217824Y373983D01*
X217962Y373946D01*
X218099Y373905D01*
X218235Y373861D01*
X218370Y373812D01*
X218503Y373760D01*
X218635Y373705D01*
X218765Y373645D01*
X218894Y373582D01*
X219021Y373516D01*
X219146Y373446D01*
X219268Y373373D01*
X219389Y373296D01*
X219508Y373216D01*
X219624Y373133D01*
X219739Y373047D01*
X219850Y372958D01*
X219960Y372865D01*
X220066Y372770D01*
X220170Y372671D01*
X220271Y372570D01*
X220370Y372466D01*
X220465Y372360D01*
X220558Y372250D01*
X220647Y372139D01*
X220733Y372024D01*
X220816Y371908D01*
X220896Y371789D01*
X220973Y371668D01*
X221046Y371546D01*
X221116Y371421D01*
X221182Y371294D01*
X221245Y371165D01*
X221305Y371035D01*
X221360Y370903D01*
X221412Y370770D01*
X221461Y370635D01*
X221505Y370499D01*
X221546Y370362D01*
X221583Y370224D01*
X221616Y370085D01*
X221646Y369945D01*
X221671Y369804D01*
X221693Y369662D01*
X221710Y369520D01*
X221724Y369378D01*
X221734Y369235D01*
X221740Y369092D01*
X221742Y368949D01*
D12*
X814000Y375200D02*
X964000Y375200D01*
X964000Y300200D01*
X814000Y300200D01*
X814000Y375200D01*
X755300Y420700D02*
X507300Y420200D01*
X755300Y420700D02*
X755300Y463700D01*
X532800Y463700D01*
X532800Y441700D01*
X507300Y441700D01*
X507300Y420200D01*
X398300Y411700D02*
X973300Y411700D01*
X973300Y759200D01*
X398300Y759200D01*
X398300Y411700D01*
X196850Y400050D02*
X184150Y400050D01*
X196850Y400050D02*
X209550Y400050D01*
X222250Y400050D01*
X234950Y400050D01*
X247650Y400050D01*
X260350Y400050D01*
X349250Y400050D01*
X349250Y768350D01*
X332740Y768350D01*
X200660Y768350D01*
X184150Y768350D01*
X184150Y400050D01*
X266700Y419100D02*
X273050Y425450D01*
X285750Y425450D01*
X292100Y419100D01*
X298450Y425450D01*
X311150Y425450D01*
X317500Y419100D01*
X323850Y425450D01*
X336550Y425450D01*
X342900Y406400D02*
X336550Y400050D01*
X323850Y400050D02*
X317500Y406400D01*
X311150Y400050D01*
X298450Y400050D02*
X292100Y406400D01*
X285750Y400050D01*
X273050Y400050D02*
X266700Y406400D01*
D10*
X252596Y784804D02*
X252596Y793242D01*
X252596Y784804D02*
X252598Y784691D01*
X252604Y784578D01*
X252614Y784465D01*
X252628Y784352D01*
X252645Y784240D01*
X252667Y784129D01*
X252692Y784019D01*
X252722Y783909D01*
X252755Y783801D01*
X252792Y783694D01*
X252832Y783588D01*
X252877Y783484D01*
X252925Y783381D01*
X252976Y783280D01*
X253031Y783181D01*
X253089Y783084D01*
X253151Y782989D01*
X253216Y782896D01*
X253284Y782806D01*
X253355Y782718D01*
X253430Y782632D01*
X253507Y782549D01*
X253587Y782469D01*
X253670Y782392D01*
X253756Y782317D01*
X253844Y782246D01*
X253934Y782178D01*
X254027Y782113D01*
X254122Y782051D01*
X254219Y781993D01*
X254318Y781938D01*
X254419Y781887D01*
X254522Y781839D01*
X254626Y781794D01*
X254732Y781754D01*
X254839Y781717D01*
X254947Y781684D01*
X255057Y781654D01*
X255167Y781629D01*
X255278Y781607D01*
X255390Y781590D01*
X255503Y781576D01*
X255616Y781566D01*
X255729Y781560D01*
X255842Y781558D01*
X255955Y781560D01*
X256068Y781566D01*
X256181Y781576D01*
X256294Y781590D01*
X256406Y781607D01*
X256517Y781629D01*
X256627Y781654D01*
X256737Y781684D01*
X256845Y781717D01*
X256952Y781754D01*
X257058Y781794D01*
X257162Y781839D01*
X257265Y781887D01*
X257366Y781938D01*
X257465Y781993D01*
X257562Y782051D01*
X257657Y782113D01*
X257750Y782178D01*
X257840Y782246D01*
X257928Y782317D01*
X258014Y782392D01*
X258097Y782469D01*
X258177Y782549D01*
X258254Y782632D01*
X258329Y782718D01*
X258400Y782806D01*
X258468Y782896D01*
X258533Y782989D01*
X258595Y783084D01*
X258653Y783181D01*
X258708Y783280D01*
X258759Y783381D01*
X258807Y783484D01*
X258852Y783588D01*
X258892Y783694D01*
X258929Y783801D01*
X258962Y783909D01*
X258992Y784019D01*
X259017Y784129D01*
X259039Y784240D01*
X259056Y784352D01*
X259070Y784465D01*
X259080Y784578D01*
X259086Y784691D01*
X259088Y784804D01*
X259087Y784804D02*
X259087Y793242D01*
X266891Y793242D02*
X266891Y781558D01*
X266891Y787400D02*
X265268Y788374D01*
X265267Y788373D02*
X265194Y788420D01*
X265123Y788469D01*
X265053Y788522D01*
X264987Y788578D01*
X264923Y788637D01*
X264861Y788698D01*
X264803Y788762D01*
X264747Y788829D01*
X264695Y788898D01*
X264645Y788970D01*
X264599Y789044D01*
X264556Y789119D01*
X264517Y789197D01*
X264481Y789276D01*
X264449Y789357D01*
X264420Y789439D01*
X264395Y789522D01*
X264374Y789606D01*
X264357Y789691D01*
X264343Y789777D01*
X264334Y789863D01*
X264328Y789950D01*
X264326Y790037D01*
X264328Y790124D01*
X264334Y790211D01*
X264344Y790297D01*
X264357Y790383D01*
X264375Y790468D01*
X264396Y790552D01*
X264421Y790635D01*
X264450Y790718D01*
X264482Y790798D01*
X264518Y790877D01*
X264557Y790955D01*
X264600Y791030D01*
X264647Y791104D01*
X264696Y791175D01*
X264749Y791245D01*
X264804Y791311D01*
X264863Y791375D01*
X264924Y791437D01*
X264989Y791496D01*
X265055Y791551D01*
X265124Y791604D01*
X265196Y791654D01*
X265269Y791700D01*
X265345Y791743D01*
X265422Y791782D01*
X265501Y791818D01*
X265582Y791851D01*
X265664Y791879D01*
X265747Y791905D01*
X265831Y791926D01*
X265917Y791943D01*
X265917Y791944D02*
X266057Y791968D01*
X266199Y791988D01*
X266340Y792004D01*
X266482Y792015D01*
X266625Y792023D01*
X266767Y792027D01*
X266910Y792028D01*
X267053Y792024D01*
X267195Y792016D01*
X267337Y792004D01*
X267479Y791988D01*
X267620Y791969D01*
X267761Y791945D01*
X267901Y791918D01*
X268040Y791886D01*
X268178Y791851D01*
X268316Y791812D01*
X268452Y791769D01*
X268586Y791723D01*
X268720Y791672D01*
X268852Y791619D01*
X268982Y791561D01*
X269111Y791500D01*
X269238Y791435D01*
X269364Y791367D01*
X269487Y791295D01*
X266891Y787400D02*
X268513Y786426D01*
X268514Y786427D02*
X268587Y786380D01*
X268658Y786331D01*
X268728Y786278D01*
X268794Y786222D01*
X268858Y786163D01*
X268920Y786102D01*
X268978Y786038D01*
X269034Y785971D01*
X269086Y785902D01*
X269136Y785830D01*
X269182Y785756D01*
X269225Y785681D01*
X269264Y785603D01*
X269300Y785524D01*
X269332Y785443D01*
X269361Y785361D01*
X269386Y785278D01*
X269407Y785194D01*
X269424Y785109D01*
X269438Y785023D01*
X269447Y784937D01*
X269453Y784850D01*
X269455Y784763D01*
X269453Y784676D01*
X269447Y784589D01*
X269437Y784503D01*
X269424Y784417D01*
X269406Y784332D01*
X269385Y784248D01*
X269360Y784165D01*
X269331Y784082D01*
X269299Y784002D01*
X269263Y783923D01*
X269224Y783845D01*
X269181Y783770D01*
X269134Y783696D01*
X269085Y783625D01*
X269032Y783555D01*
X268977Y783489D01*
X268918Y783425D01*
X268857Y783363D01*
X268792Y783304D01*
X268726Y783249D01*
X268657Y783196D01*
X268585Y783146D01*
X268512Y783100D01*
X268436Y783057D01*
X268359Y783018D01*
X268280Y782982D01*
X268199Y782949D01*
X268117Y782921D01*
X268034Y782895D01*
X267950Y782874D01*
X267865Y782857D01*
X267864Y782856D02*
X267724Y782832D01*
X267582Y782812D01*
X267441Y782796D01*
X267299Y782785D01*
X267156Y782777D01*
X267014Y782773D01*
X266871Y782772D01*
X266728Y782776D01*
X266586Y782784D01*
X266444Y782796D01*
X266302Y782812D01*
X266161Y782831D01*
X266020Y782855D01*
X265880Y782882D01*
X265741Y782914D01*
X265603Y782949D01*
X265465Y782988D01*
X265329Y783031D01*
X265195Y783077D01*
X265061Y783128D01*
X264929Y783181D01*
X264799Y783239D01*
X264670Y783300D01*
X264543Y783365D01*
X264417Y783433D01*
X264294Y783505D01*
X274313Y781558D02*
X277558Y781558D01*
X277671Y781560D01*
X277784Y781566D01*
X277897Y781576D01*
X278010Y781590D01*
X278122Y781607D01*
X278233Y781629D01*
X278343Y781654D01*
X278453Y781684D01*
X278561Y781717D01*
X278668Y781754D01*
X278774Y781794D01*
X278878Y781839D01*
X278981Y781887D01*
X279082Y781938D01*
X279181Y781993D01*
X279278Y782051D01*
X279373Y782113D01*
X279466Y782178D01*
X279556Y782246D01*
X279644Y782317D01*
X279730Y782392D01*
X279813Y782469D01*
X279893Y782549D01*
X279970Y782632D01*
X280045Y782718D01*
X280116Y782806D01*
X280184Y782896D01*
X280249Y782989D01*
X280311Y783084D01*
X280369Y783181D01*
X280424Y783280D01*
X280475Y783381D01*
X280523Y783484D01*
X280568Y783588D01*
X280608Y783694D01*
X280645Y783801D01*
X280678Y783909D01*
X280708Y784019D01*
X280733Y784129D01*
X280755Y784240D01*
X280772Y784352D01*
X280786Y784465D01*
X280796Y784578D01*
X280802Y784691D01*
X280804Y784804D01*
X280802Y784917D01*
X280796Y785030D01*
X280786Y785143D01*
X280772Y785256D01*
X280755Y785368D01*
X280733Y785479D01*
X280708Y785589D01*
X280678Y785699D01*
X280645Y785807D01*
X280608Y785914D01*
X280568Y786020D01*
X280523Y786124D01*
X280475Y786227D01*
X280424Y786328D01*
X280369Y786427D01*
X280311Y786524D01*
X280249Y786619D01*
X280184Y786712D01*
X280116Y786802D01*
X280045Y786890D01*
X279970Y786976D01*
X279893Y787059D01*
X279813Y787139D01*
X279730Y787216D01*
X279644Y787291D01*
X279556Y787362D01*
X279466Y787430D01*
X279373Y787495D01*
X279278Y787557D01*
X279181Y787615D01*
X279082Y787670D01*
X278981Y787721D01*
X278878Y787769D01*
X278774Y787814D01*
X278668Y787854D01*
X278561Y787891D01*
X278453Y787924D01*
X278343Y787954D01*
X278233Y787979D01*
X278122Y788001D01*
X278010Y788018D01*
X277897Y788032D01*
X277784Y788042D01*
X277671Y788048D01*
X277558Y788050D01*
X278208Y793242D02*
X274313Y793242D01*
X278208Y793242D02*
X278309Y793240D01*
X278409Y793234D01*
X278509Y793224D01*
X278609Y793211D01*
X278708Y793193D01*
X278807Y793172D01*
X278904Y793147D01*
X279001Y793118D01*
X279096Y793085D01*
X279190Y793049D01*
X279282Y793009D01*
X279373Y792966D01*
X279462Y792919D01*
X279549Y792869D01*
X279635Y792815D01*
X279718Y792758D01*
X279798Y792698D01*
X279877Y792635D01*
X279953Y792568D01*
X280026Y792499D01*
X280096Y792427D01*
X280164Y792353D01*
X280229Y792276D01*
X280290Y792196D01*
X280349Y792114D01*
X280404Y792030D01*
X280456Y791944D01*
X280505Y791856D01*
X280550Y791766D01*
X280592Y791674D01*
X280630Y791581D01*
X280664Y791486D01*
X280695Y791391D01*
X280722Y791294D01*
X280745Y791196D01*
X280765Y791097D01*
X280780Y790997D01*
X280792Y790897D01*
X280800Y790797D01*
X280804Y790696D01*
X280804Y790596D01*
X280800Y790495D01*
X280792Y790395D01*
X280780Y790295D01*
X280765Y790195D01*
X280745Y790096D01*
X280722Y789998D01*
X280695Y789901D01*
X280664Y789806D01*
X280630Y789711D01*
X280592Y789618D01*
X280550Y789526D01*
X280505Y789436D01*
X280456Y789348D01*
X280404Y789262D01*
X280349Y789178D01*
X280290Y789096D01*
X280229Y789016D01*
X280164Y788939D01*
X280096Y788865D01*
X280026Y788793D01*
X279953Y788724D01*
X279877Y788657D01*
X279798Y788594D01*
X279718Y788534D01*
X279635Y788477D01*
X279549Y788423D01*
X279462Y788373D01*
X279373Y788326D01*
X279282Y788283D01*
X279190Y788243D01*
X279096Y788207D01*
X279001Y788174D01*
X278904Y788145D01*
X278807Y788120D01*
X278708Y788099D01*
X278609Y788081D01*
X278509Y788068D01*
X278409Y788058D01*
X278309Y788052D01*
X278208Y788050D01*
X278208Y788049D02*
X275611Y788049D01*
D12*
X342900Y419100D02*
X342900Y406400D01*
X342900Y419100D02*
X336550Y425450D01*
X266700Y419100D02*
X260350Y425450D01*
X247650Y425450D01*
X241300Y419100D01*
X234950Y425450D01*
X222250Y425450D01*
X215900Y419100D01*
X209550Y425450D01*
X196850Y425450D01*
X190500Y419100D01*
X190500Y406400D01*
X196850Y400050D01*
X209550Y400050D02*
X215900Y406400D01*
X222250Y400050D01*
X234950Y400050D02*
X241300Y406400D01*
X247650Y400050D01*
X260350Y400050D02*
X266700Y406400D01*
X200660Y730250D02*
X200660Y768350D01*
X200660Y730250D02*
X200660Y501650D01*
X332740Y501650D01*
X332740Y730250D01*
D10*
X206446Y438799D02*
X206545Y438797D01*
X206645Y438791D01*
X206744Y438782D01*
X206842Y438769D01*
X206940Y438752D01*
X207038Y438731D01*
X207134Y438706D01*
X207229Y438678D01*
X207323Y438646D01*
X207416Y438611D01*
X207508Y438572D01*
X207598Y438529D01*
X207686Y438484D01*
X207773Y438434D01*
X207857Y438382D01*
X207940Y438326D01*
X208020Y438268D01*
X208098Y438206D01*
X208173Y438141D01*
X208246Y438073D01*
X208316Y438003D01*
X208384Y437930D01*
X208449Y437855D01*
X208511Y437777D01*
X208569Y437697D01*
X208625Y437614D01*
X208677Y437530D01*
X208727Y437443D01*
X208772Y437355D01*
X208815Y437265D01*
X208854Y437173D01*
X208889Y437080D01*
X208921Y436986D01*
X208949Y436891D01*
X208974Y436795D01*
X208995Y436697D01*
X209012Y436599D01*
X209025Y436501D01*
X209034Y436402D01*
X209040Y436302D01*
X209042Y436203D01*
X209040Y436059D01*
X209034Y435914D01*
X209025Y435770D01*
X209012Y435627D01*
X208995Y435483D01*
X208974Y435340D01*
X208949Y435198D01*
X208921Y435057D01*
X208889Y434916D01*
X208853Y434776D01*
X208814Y434637D01*
X208771Y434499D01*
X208724Y434363D01*
X208674Y434227D01*
X208620Y434093D01*
X208563Y433961D01*
X208502Y433830D01*
X208438Y433701D01*
X208370Y433573D01*
X208300Y433447D01*
X208225Y433323D01*
X208148Y433202D01*
X208067Y433082D01*
X207984Y432964D01*
X207897Y432849D01*
X207807Y432736D01*
X207714Y432625D01*
X207619Y432517D01*
X207520Y432411D01*
X207419Y432308D01*
X199954Y432633D02*
X199855Y432635D01*
X199755Y432641D01*
X199656Y432650D01*
X199558Y432663D01*
X199460Y432680D01*
X199362Y432701D01*
X199266Y432726D01*
X199171Y432754D01*
X199077Y432786D01*
X198984Y432821D01*
X198892Y432860D01*
X198802Y432903D01*
X198714Y432948D01*
X198627Y432998D01*
X198543Y433050D01*
X198460Y433106D01*
X198380Y433164D01*
X198302Y433226D01*
X198227Y433291D01*
X198154Y433359D01*
X198084Y433429D01*
X198016Y433502D01*
X197951Y433577D01*
X197889Y433655D01*
X197831Y433735D01*
X197775Y433818D01*
X197723Y433902D01*
X197673Y433989D01*
X197628Y434077D01*
X197585Y434167D01*
X197546Y434259D01*
X197511Y434352D01*
X197479Y434446D01*
X197451Y434541D01*
X197426Y434637D01*
X197405Y434735D01*
X197388Y434833D01*
X197375Y434931D01*
X197366Y435030D01*
X197360Y435130D01*
X197358Y435229D01*
X197360Y435365D01*
X197366Y435501D01*
X197375Y435637D01*
X197388Y435773D01*
X197406Y435908D01*
X197426Y436042D01*
X197451Y436176D01*
X197479Y436310D01*
X197512Y436442D01*
X197547Y436573D01*
X197587Y436704D01*
X197630Y436833D01*
X197676Y436961D01*
X197727Y437087D01*
X197780Y437213D01*
X197838Y437336D01*
X197898Y437458D01*
X197962Y437578D01*
X198030Y437697D01*
X198100Y437813D01*
X198174Y437927D01*
X198251Y438040D01*
X198332Y438150D01*
X202226Y433931D02*
X202173Y433845D01*
X202116Y433761D01*
X202057Y433679D01*
X201994Y433599D01*
X201928Y433522D01*
X201860Y433447D01*
X201788Y433375D01*
X201714Y433306D01*
X201637Y433240D01*
X201558Y433177D01*
X201476Y433117D01*
X201392Y433060D01*
X201306Y433006D01*
X201218Y432956D01*
X201128Y432909D01*
X201037Y432865D01*
X200943Y432826D01*
X200849Y432789D01*
X200753Y432757D01*
X200655Y432728D01*
X200557Y432703D01*
X200458Y432682D01*
X200358Y432664D01*
X200258Y432651D01*
X200157Y432641D01*
X200055Y432635D01*
X199954Y432633D01*
X204174Y437501D02*
X204227Y437587D01*
X204284Y437671D01*
X204343Y437753D01*
X204406Y437833D01*
X204472Y437910D01*
X204540Y437985D01*
X204612Y438057D01*
X204686Y438126D01*
X204763Y438192D01*
X204842Y438255D01*
X204924Y438315D01*
X205008Y438372D01*
X205094Y438426D01*
X205182Y438476D01*
X205272Y438523D01*
X205363Y438567D01*
X205457Y438606D01*
X205551Y438643D01*
X205647Y438675D01*
X205745Y438704D01*
X205843Y438729D01*
X205942Y438750D01*
X206042Y438768D01*
X206142Y438781D01*
X206243Y438791D01*
X206345Y438797D01*
X206446Y438799D01*
X204174Y437501D02*
X202226Y433931D01*
X197358Y445841D02*
X209042Y445841D01*
X197358Y442595D02*
X197358Y449086D01*
X197358Y456509D02*
X209042Y452614D01*
X209042Y460403D02*
X197358Y456509D01*
X206121Y459430D02*
X206121Y453588D01*
X209042Y467176D02*
X197358Y467176D01*
X197358Y463931D02*
X197358Y470422D01*
X209042Y475003D02*
X209042Y480195D01*
X209042Y475003D02*
X197358Y475003D01*
X197358Y480195D01*
X202551Y478897D02*
X202551Y475003D01*
X222758Y432308D02*
X234442Y432308D01*
X222758Y432308D02*
X222758Y435554D01*
X222760Y435667D01*
X222766Y435780D01*
X222776Y435893D01*
X222790Y436006D01*
X222807Y436118D01*
X222829Y436229D01*
X222854Y436339D01*
X222884Y436449D01*
X222917Y436557D01*
X222954Y436664D01*
X222994Y436770D01*
X223039Y436874D01*
X223087Y436977D01*
X223138Y437078D01*
X223193Y437177D01*
X223251Y437274D01*
X223313Y437369D01*
X223378Y437462D01*
X223446Y437552D01*
X223517Y437640D01*
X223592Y437726D01*
X223669Y437809D01*
X223749Y437889D01*
X223832Y437966D01*
X223918Y438041D01*
X224006Y438112D01*
X224096Y438180D01*
X224189Y438245D01*
X224284Y438307D01*
X224381Y438365D01*
X224480Y438420D01*
X224581Y438471D01*
X224684Y438519D01*
X224788Y438564D01*
X224894Y438604D01*
X225001Y438641D01*
X225109Y438674D01*
X225219Y438704D01*
X225329Y438729D01*
X225440Y438751D01*
X225552Y438768D01*
X225665Y438782D01*
X225778Y438792D01*
X225891Y438798D01*
X226004Y438800D01*
X226117Y438798D01*
X226230Y438792D01*
X226343Y438782D01*
X226456Y438768D01*
X226568Y438751D01*
X226679Y438729D01*
X226789Y438704D01*
X226899Y438674D01*
X227007Y438641D01*
X227114Y438604D01*
X227220Y438564D01*
X227324Y438519D01*
X227427Y438471D01*
X227528Y438420D01*
X227627Y438365D01*
X227724Y438307D01*
X227819Y438245D01*
X227912Y438180D01*
X228002Y438112D01*
X228090Y438041D01*
X228176Y437966D01*
X228259Y437889D01*
X228339Y437809D01*
X228416Y437726D01*
X228491Y437640D01*
X228562Y437552D01*
X228630Y437462D01*
X228695Y437369D01*
X228757Y437274D01*
X228815Y437177D01*
X228870Y437078D01*
X228921Y436977D01*
X228969Y436874D01*
X229014Y436770D01*
X229054Y436664D01*
X229091Y436557D01*
X229124Y436449D01*
X229154Y436339D01*
X229179Y436229D01*
X229201Y436118D01*
X229218Y436006D01*
X229232Y435893D01*
X229242Y435780D01*
X229248Y435667D01*
X229250Y435554D01*
X229249Y435554D02*
X229249Y432308D01*
X229249Y436203D02*
X234442Y438799D01*
X234442Y443015D02*
X222758Y450805D01*
X222758Y443015D02*
X234442Y450805D01*
X248158Y435554D02*
X259842Y435554D01*
X248158Y432308D02*
X248158Y438799D01*
X248158Y450116D02*
X259842Y442327D01*
X259842Y450116D02*
X248158Y442327D01*
X278751Y438799D02*
X278751Y436852D01*
X278751Y438799D02*
X285242Y438799D01*
X285242Y434904D01*
X285240Y434805D01*
X285234Y434705D01*
X285225Y434606D01*
X285212Y434508D01*
X285195Y434410D01*
X285174Y434312D01*
X285149Y434216D01*
X285121Y434121D01*
X285089Y434027D01*
X285054Y433934D01*
X285015Y433842D01*
X284972Y433752D01*
X284927Y433664D01*
X284877Y433577D01*
X284825Y433493D01*
X284769Y433410D01*
X284711Y433330D01*
X284649Y433252D01*
X284584Y433177D01*
X284516Y433104D01*
X284446Y433034D01*
X284373Y432966D01*
X284298Y432901D01*
X284220Y432839D01*
X284140Y432781D01*
X284057Y432725D01*
X283973Y432673D01*
X283886Y432623D01*
X283798Y432578D01*
X283708Y432535D01*
X283616Y432496D01*
X283523Y432461D01*
X283429Y432429D01*
X283334Y432401D01*
X283238Y432376D01*
X283140Y432355D01*
X283042Y432338D01*
X282944Y432325D01*
X282845Y432316D01*
X282745Y432310D01*
X282646Y432308D01*
X276154Y432308D01*
X276055Y432310D01*
X275955Y432316D01*
X275856Y432325D01*
X275758Y432338D01*
X275660Y432356D01*
X275562Y432376D01*
X275466Y432401D01*
X275370Y432429D01*
X275276Y432461D01*
X275183Y432496D01*
X275092Y432535D01*
X275002Y432578D01*
X274913Y432623D01*
X274827Y432673D01*
X274742Y432725D01*
X274660Y432781D01*
X274580Y432840D01*
X274502Y432901D01*
X274426Y432966D01*
X274353Y433034D01*
X274283Y433104D01*
X274215Y433177D01*
X274150Y433253D01*
X274089Y433331D01*
X274030Y433411D01*
X273974Y433493D01*
X273922Y433578D01*
X273873Y433664D01*
X273827Y433753D01*
X273784Y433843D01*
X273745Y433934D01*
X273710Y434027D01*
X273678Y434121D01*
X273650Y434217D01*
X273625Y434313D01*
X273605Y434411D01*
X273587Y434509D01*
X273574Y434607D01*
X273565Y434706D01*
X273559Y434805D01*
X273557Y434905D01*
X273558Y434904D02*
X273558Y438799D01*
X273558Y444500D02*
X285242Y444500D01*
X285242Y450991D02*
X273558Y444500D01*
X273558Y450991D02*
X285242Y450991D01*
X285242Y456692D02*
X273558Y456692D01*
X273558Y459937D01*
X273560Y460050D01*
X273566Y460163D01*
X273576Y460276D01*
X273590Y460389D01*
X273607Y460501D01*
X273629Y460612D01*
X273654Y460722D01*
X273684Y460832D01*
X273717Y460940D01*
X273754Y461047D01*
X273794Y461153D01*
X273839Y461257D01*
X273887Y461360D01*
X273938Y461461D01*
X273993Y461560D01*
X274051Y461657D01*
X274113Y461752D01*
X274178Y461845D01*
X274246Y461935D01*
X274317Y462023D01*
X274392Y462109D01*
X274469Y462192D01*
X274549Y462272D01*
X274632Y462349D01*
X274718Y462424D01*
X274806Y462495D01*
X274896Y462563D01*
X274989Y462628D01*
X275084Y462690D01*
X275181Y462748D01*
X275280Y462803D01*
X275381Y462854D01*
X275484Y462902D01*
X275588Y462947D01*
X275694Y462987D01*
X275801Y463024D01*
X275909Y463057D01*
X276019Y463087D01*
X276129Y463112D01*
X276240Y463134D01*
X276352Y463151D01*
X276465Y463165D01*
X276578Y463175D01*
X276691Y463181D01*
X276804Y463183D01*
X281996Y463183D01*
X281996Y463184D02*
X282109Y463182D01*
X282222Y463176D01*
X282335Y463166D01*
X282448Y463152D01*
X282560Y463135D01*
X282671Y463113D01*
X282781Y463088D01*
X282891Y463058D01*
X282999Y463025D01*
X283106Y462988D01*
X283212Y462948D01*
X283316Y462903D01*
X283419Y462855D01*
X283520Y462804D01*
X283619Y462749D01*
X283716Y462691D01*
X283811Y462629D01*
X283904Y462564D01*
X283994Y462496D01*
X284082Y462425D01*
X284168Y462350D01*
X284251Y462273D01*
X284331Y462193D01*
X284408Y462110D01*
X284483Y462024D01*
X284554Y461936D01*
X284622Y461846D01*
X284687Y461753D01*
X284749Y461658D01*
X284807Y461561D01*
X284862Y461462D01*
X284913Y461361D01*
X284961Y461258D01*
X285006Y461154D01*
X285046Y461048D01*
X285083Y460941D01*
X285116Y460833D01*
X285146Y460723D01*
X285171Y460613D01*
X285193Y460502D01*
X285210Y460390D01*
X285224Y460277D01*
X285234Y460164D01*
X285240Y460051D01*
X285242Y459938D01*
X285242Y459937D02*
X285242Y456692D01*
X306098Y440097D02*
X306098Y432308D01*
X302204Y436203D02*
X309993Y436203D01*
X310642Y445149D02*
X310642Y449044D01*
X310640Y449143D01*
X310634Y449243D01*
X310625Y449342D01*
X310612Y449440D01*
X310595Y449538D01*
X310574Y449636D01*
X310549Y449732D01*
X310521Y449827D01*
X310489Y449921D01*
X310454Y450014D01*
X310415Y450106D01*
X310372Y450196D01*
X310327Y450284D01*
X310277Y450371D01*
X310225Y450455D01*
X310169Y450538D01*
X310111Y450618D01*
X310049Y450696D01*
X309984Y450771D01*
X309916Y450844D01*
X309846Y450914D01*
X309773Y450982D01*
X309698Y451047D01*
X309620Y451109D01*
X309540Y451167D01*
X309457Y451223D01*
X309373Y451275D01*
X309286Y451325D01*
X309198Y451370D01*
X309108Y451413D01*
X309016Y451452D01*
X308923Y451487D01*
X308829Y451519D01*
X308734Y451547D01*
X308638Y451572D01*
X308540Y451593D01*
X308442Y451610D01*
X308344Y451623D01*
X308245Y451632D01*
X308145Y451638D01*
X308046Y451640D01*
X306747Y451640D01*
X306648Y451638D01*
X306548Y451632D01*
X306449Y451623D01*
X306351Y451610D01*
X306253Y451593D01*
X306155Y451572D01*
X306059Y451547D01*
X305964Y451519D01*
X305870Y451487D01*
X305777Y451452D01*
X305685Y451413D01*
X305595Y451370D01*
X305507Y451325D01*
X305420Y451275D01*
X305336Y451223D01*
X305253Y451167D01*
X305173Y451109D01*
X305095Y451047D01*
X305020Y450982D01*
X304947Y450914D01*
X304877Y450844D01*
X304809Y450771D01*
X304744Y450696D01*
X304682Y450618D01*
X304624Y450538D01*
X304568Y450455D01*
X304516Y450371D01*
X304466Y450284D01*
X304421Y450196D01*
X304378Y450106D01*
X304339Y450014D01*
X304304Y449921D01*
X304272Y449827D01*
X304244Y449732D01*
X304219Y449636D01*
X304198Y449538D01*
X304181Y449440D01*
X304168Y449342D01*
X304159Y449243D01*
X304153Y449143D01*
X304151Y449044D01*
X304151Y445149D01*
X298958Y445149D01*
X298958Y451640D01*
X298958Y455930D02*
X310642Y459825D01*
X298958Y463719D01*
X336042Y437501D02*
X336042Y432308D01*
X324358Y432308D01*
X324358Y437501D01*
X329551Y436203D02*
X329551Y432308D01*
X324358Y442191D02*
X336042Y442191D01*
X336042Y448683D02*
X324358Y442191D01*
X324358Y448683D02*
X336042Y448683D01*
D12*
X332740Y730250D02*
X332740Y768350D01*
X332740Y730250D02*
X200660Y730250D01*
X221434Y742315D02*
X226091Y756285D01*
X230747Y742315D01*
X229583Y745808D02*
X222598Y745808D01*
X236355Y742315D02*
X236355Y756285D01*
X244116Y742315D01*
X244116Y756285D01*
X253468Y756285D02*
X253468Y742315D01*
X257348Y756285D02*
X249587Y756285D01*
X262847Y742315D02*
X269056Y742315D01*
X262847Y742315D02*
X262847Y756285D01*
X269056Y756285D01*
X267504Y750076D02*
X262847Y750076D01*
X274683Y756285D02*
X274683Y742315D01*
X282444Y742315D02*
X274683Y756285D01*
X282444Y756285D02*
X282444Y742315D01*
X289284Y742315D02*
X289284Y756285D01*
X297045Y742315D01*
X297045Y756285D01*
X307309Y756285D02*
X302653Y742315D01*
X311966Y742315D02*
X307309Y756285D01*
X310802Y745808D02*
X303817Y745808D01*
X787400Y165100D02*
X787427Y167282D01*
X787507Y169462D01*
X787641Y171640D01*
X787828Y173814D01*
X788069Y175982D01*
X788362Y178144D01*
X788709Y180299D01*
X789108Y182444D01*
X789560Y184578D01*
X790064Y186701D01*
X790620Y188811D01*
X791228Y190906D01*
X791887Y192986D01*
X792597Y195050D01*
X793357Y197095D01*
X794167Y199121D01*
X795027Y201126D01*
X795935Y203110D01*
X796892Y205070D01*
X797897Y207007D01*
X798949Y208919D01*
X800048Y210804D01*
X801193Y212661D01*
X802382Y214490D01*
X803617Y216289D01*
X804895Y218058D01*
X806216Y219794D01*
X807579Y221498D01*
X808984Y223167D01*
X810429Y224802D01*
X811914Y226400D01*
X813438Y227962D01*
X815000Y229486D01*
X816598Y230971D01*
X818233Y232416D01*
X819902Y233821D01*
X821606Y235184D01*
X823342Y236505D01*
X825111Y237783D01*
X826910Y239018D01*
X828739Y240207D01*
X830596Y241352D01*
X832481Y242451D01*
X834393Y243503D01*
X836330Y244508D01*
X838290Y245465D01*
X840274Y246373D01*
X842279Y247233D01*
X844305Y248043D01*
X846350Y248803D01*
X848414Y249513D01*
X850494Y250172D01*
X852589Y250780D01*
X854699Y251336D01*
X856822Y251840D01*
X858956Y252292D01*
X861101Y252691D01*
X863256Y253038D01*
X865418Y253331D01*
X867586Y253572D01*
X869760Y253759D01*
X871938Y253893D01*
X874118Y253973D01*
X876300Y254000D01*
X878482Y253973D01*
X880662Y253893D01*
X882840Y253759D01*
X885014Y253572D01*
X887182Y253331D01*
X889344Y253038D01*
X891499Y252691D01*
X893644Y252292D01*
X895778Y251840D01*
X897901Y251336D01*
X900011Y250780D01*
X902106Y250172D01*
X904186Y249513D01*
X906250Y248803D01*
X908295Y248043D01*
X910321Y247233D01*
X912326Y246373D01*
X914310Y245465D01*
X916270Y244508D01*
X918207Y243503D01*
X920119Y242451D01*
X922004Y241352D01*
X923861Y240207D01*
X925690Y239018D01*
X927489Y237783D01*
X929258Y236505D01*
X930994Y235184D01*
X932698Y233821D01*
X934367Y232416D01*
X936002Y230971D01*
X937600Y229486D01*
X939162Y227962D01*
X940686Y226400D01*
X942171Y224802D01*
X943616Y223167D01*
X945021Y221498D01*
X946384Y219794D01*
X947705Y218058D01*
X948983Y216289D01*
X950218Y214490D01*
X951407Y212661D01*
X952552Y210804D01*
X953651Y208919D01*
X954703Y207007D01*
X955708Y205070D01*
X956665Y203110D01*
X957573Y201126D01*
X958433Y199121D01*
X959243Y197095D01*
X960003Y195050D01*
X960713Y192986D01*
X961372Y190906D01*
X961980Y188811D01*
X962536Y186701D01*
X963040Y184578D01*
X963492Y182444D01*
X963891Y180299D01*
X964238Y178144D01*
X964531Y175982D01*
X964772Y173814D01*
X964959Y171640D01*
X965093Y169462D01*
X965173Y167282D01*
X965200Y165100D01*
X965173Y162918D01*
X965093Y160738D01*
X964959Y158560D01*
X964772Y156386D01*
X964531Y154218D01*
X964238Y152056D01*
X963891Y149901D01*
X963492Y147756D01*
X963040Y145622D01*
X962536Y143499D01*
X961980Y141389D01*
X961372Y139294D01*
X960713Y137214D01*
X960003Y135150D01*
X959243Y133105D01*
X958433Y131079D01*
X957573Y129074D01*
X956665Y127090D01*
X955708Y125130D01*
X954703Y123193D01*
X953651Y121281D01*
X952552Y119396D01*
X951407Y117539D01*
X950218Y115710D01*
X948983Y113911D01*
X947705Y112142D01*
X946384Y110406D01*
X945021Y108702D01*
X943616Y107033D01*
X942171Y105398D01*
X940686Y103800D01*
X939162Y102238D01*
X937600Y100714D01*
X936002Y99229D01*
X934367Y97784D01*
X932698Y96379D01*
X930994Y95016D01*
X929258Y93695D01*
X927489Y92417D01*
X925690Y91182D01*
X923861Y89993D01*
X922004Y88848D01*
X920119Y87749D01*
X918207Y86697D01*
X916270Y85692D01*
X914310Y84735D01*
X912326Y83827D01*
X910321Y82967D01*
X908295Y82157D01*
X906250Y81397D01*
X904186Y80687D01*
X902106Y80028D01*
X900011Y79420D01*
X897901Y78864D01*
X895778Y78360D01*
X893644Y77908D01*
X891499Y77509D01*
X889344Y77162D01*
X887182Y76869D01*
X885014Y76628D01*
X882840Y76441D01*
X880662Y76307D01*
X878482Y76227D01*
X876300Y76200D01*
X874118Y76227D01*
X871938Y76307D01*
X869760Y76441D01*
X867586Y76628D01*
X865418Y76869D01*
X863256Y77162D01*
X861101Y77509D01*
X858956Y77908D01*
X856822Y78360D01*
X854699Y78864D01*
X852589Y79420D01*
X850494Y80028D01*
X848414Y80687D01*
X846350Y81397D01*
X844305Y82157D01*
X842279Y82967D01*
X840274Y83827D01*
X838290Y84735D01*
X836330Y85692D01*
X834393Y86697D01*
X832481Y87749D01*
X830596Y88848D01*
X828739Y89993D01*
X826910Y91182D01*
X825111Y92417D01*
X823342Y93695D01*
X821606Y95016D01*
X819902Y96379D01*
X818233Y97784D01*
X816598Y99229D01*
X815000Y100714D01*
X813438Y102238D01*
X811914Y103800D01*
X810429Y105398D01*
X808984Y107033D01*
X807579Y108702D01*
X806216Y110406D01*
X804895Y112142D01*
X803617Y113911D01*
X802382Y115710D01*
X801193Y117539D01*
X800048Y119396D01*
X798949Y121281D01*
X797897Y123193D01*
X796892Y125130D01*
X795935Y127090D01*
X795027Y129074D01*
X794167Y131079D01*
X793357Y133105D01*
X792597Y135150D01*
X791887Y137214D01*
X791228Y139294D01*
X790620Y141389D01*
X790064Y143499D01*
X789560Y145622D01*
X789108Y147756D01*
X788709Y149901D01*
X788362Y152056D01*
X788069Y154218D01*
X787828Y156386D01*
X787641Y158560D01*
X787507Y160738D01*
X787427Y162918D01*
X787400Y165100D01*
D11*
X93980Y210566D02*
X58420Y210566D01*
X93980Y210566D02*
X93980Y145034D01*
X58420Y145034D01*
X58420Y210566D01*
D10*
X119060Y190546D02*
X119060Y188561D01*
X119060Y190546D02*
X119058Y190634D01*
X119052Y190721D01*
X119043Y190809D01*
X119029Y190895D01*
X119012Y190982D01*
X118990Y191067D01*
X118966Y191151D01*
X118937Y191234D01*
X118905Y191316D01*
X118869Y191396D01*
X118829Y191474D01*
X118787Y191551D01*
X118741Y191626D01*
X118691Y191698D01*
X118639Y191769D01*
X118583Y191837D01*
X118524Y191902D01*
X118463Y191965D01*
X118399Y192025D01*
X118332Y192082D01*
X118263Y192136D01*
X118191Y192187D01*
X118118Y192235D01*
X118042Y192280D01*
X117964Y192321D01*
X117885Y192358D01*
X117804Y192392D01*
X117722Y192423D01*
X117638Y192449D01*
X117553Y192473D01*
X117468Y192492D01*
X117381Y192507D01*
X117294Y192519D01*
X117207Y192527D01*
X117119Y192531D01*
X117031Y192531D01*
X116943Y192527D01*
X116856Y192519D01*
X116769Y192507D01*
X116682Y192492D01*
X116597Y192473D01*
X116512Y192449D01*
X116428Y192423D01*
X116346Y192392D01*
X116265Y192358D01*
X116186Y192321D01*
X116108Y192280D01*
X116032Y192235D01*
X115959Y192187D01*
X115887Y192136D01*
X115818Y192082D01*
X115751Y192025D01*
X115687Y191965D01*
X115626Y191902D01*
X115567Y191837D01*
X115511Y191769D01*
X115459Y191698D01*
X115409Y191626D01*
X115363Y191551D01*
X115321Y191474D01*
X115281Y191396D01*
X115245Y191316D01*
X115213Y191234D01*
X115184Y191151D01*
X115160Y191067D01*
X115138Y190982D01*
X115121Y190895D01*
X115107Y190809D01*
X115098Y190721D01*
X115092Y190634D01*
X115090Y190546D01*
X111913Y190943D02*
X111913Y188561D01*
X111913Y190943D02*
X111915Y191021D01*
X111921Y191099D01*
X111930Y191176D01*
X111944Y191253D01*
X111961Y191329D01*
X111981Y191404D01*
X112006Y191478D01*
X112034Y191551D01*
X112065Y191622D01*
X112101Y191692D01*
X112139Y191759D01*
X112181Y191825D01*
X112226Y191889D01*
X112273Y191950D01*
X112324Y192009D01*
X112378Y192066D01*
X112435Y192120D01*
X112494Y192171D01*
X112555Y192218D01*
X112619Y192263D01*
X112685Y192305D01*
X112752Y192343D01*
X112822Y192379D01*
X112893Y192410D01*
X112966Y192438D01*
X113040Y192463D01*
X113115Y192483D01*
X113191Y192500D01*
X113268Y192514D01*
X113345Y192523D01*
X113423Y192529D01*
X113501Y192531D01*
X113579Y192529D01*
X113657Y192523D01*
X113734Y192514D01*
X113811Y192500D01*
X113887Y192483D01*
X113962Y192463D01*
X114036Y192438D01*
X114109Y192410D01*
X114180Y192379D01*
X114250Y192343D01*
X114317Y192305D01*
X114383Y192263D01*
X114447Y192218D01*
X114508Y192171D01*
X114567Y192120D01*
X114624Y192066D01*
X114678Y192009D01*
X114729Y191950D01*
X114776Y191889D01*
X114821Y191825D01*
X114863Y191759D01*
X114901Y191692D01*
X114937Y191622D01*
X114968Y191551D01*
X114996Y191478D01*
X115021Y191404D01*
X115041Y191329D01*
X115058Y191253D01*
X115072Y191176D01*
X115081Y191099D01*
X115087Y191021D01*
X115089Y190943D01*
X115089Y189355D01*
X48646Y197404D02*
X43099Y198989D01*
X48646Y197404D02*
X48646Y201366D01*
X47061Y200177D02*
X50231Y200177D01*
X111869Y145657D02*
X113455Y143675D01*
X111869Y145657D02*
X119007Y145657D01*
X119007Y143675D02*
X119007Y147640D01*
X111870Y167571D02*
X111872Y167653D01*
X111878Y167735D01*
X111887Y167817D01*
X111900Y167898D01*
X111917Y167978D01*
X111938Y168058D01*
X111962Y168136D01*
X111990Y168214D01*
X112022Y168290D01*
X112057Y168364D01*
X112095Y168437D01*
X112136Y168508D01*
X112181Y168576D01*
X112229Y168643D01*
X112280Y168708D01*
X112334Y168770D01*
X112391Y168829D01*
X112451Y168886D01*
X112513Y168940D01*
X112577Y168991D01*
X112644Y169039D01*
X112712Y169084D01*
X112783Y169125D01*
X112856Y169163D01*
X112930Y169198D01*
X113006Y169230D01*
X113084Y169258D01*
X113162Y169282D01*
X113242Y169303D01*
X113322Y169320D01*
X113403Y169333D01*
X113485Y169342D01*
X113567Y169348D01*
X113649Y169350D01*
X111870Y167571D02*
X111872Y167478D01*
X111878Y167386D01*
X111887Y167294D01*
X111900Y167202D01*
X111917Y167111D01*
X111937Y167020D01*
X111962Y166931D01*
X111989Y166842D01*
X112021Y166755D01*
X112055Y166669D01*
X112094Y166585D01*
X112135Y166502D01*
X112180Y166421D01*
X112229Y166342D01*
X112280Y166265D01*
X112335Y166190D01*
X112392Y166117D01*
X112453Y166047D01*
X112516Y165979D01*
X112582Y165914D01*
X112650Y165851D01*
X112721Y165792D01*
X112795Y165735D01*
X112870Y165681D01*
X112948Y165631D01*
X113027Y165584D01*
X113109Y165539D01*
X113192Y165499D01*
X113277Y165461D01*
X113363Y165427D01*
X113451Y165397D01*
X115033Y168757D02*
X114972Y168818D01*
X114909Y168876D01*
X114843Y168931D01*
X114775Y168983D01*
X114704Y169032D01*
X114631Y169078D01*
X114557Y169121D01*
X114480Y169160D01*
X114402Y169195D01*
X114322Y169228D01*
X114241Y169256D01*
X114159Y169281D01*
X114075Y169302D01*
X113991Y169319D01*
X113906Y169333D01*
X113821Y169342D01*
X113735Y169348D01*
X113649Y169350D01*
X115032Y168756D02*
X118985Y165396D01*
X118985Y169349D01*
X71921Y152795D02*
X63441Y152795D01*
X71921Y152795D02*
X72034Y152797D01*
X72146Y152803D01*
X72258Y152812D01*
X72370Y152826D01*
X72481Y152843D01*
X72592Y152865D01*
X72701Y152890D01*
X72810Y152919D01*
X72918Y152951D01*
X73025Y152987D01*
X73130Y153027D01*
X73234Y153071D01*
X73336Y153118D01*
X73436Y153169D01*
X73535Y153223D01*
X73632Y153280D01*
X73727Y153341D01*
X73820Y153405D01*
X73910Y153472D01*
X73998Y153542D01*
X74083Y153615D01*
X74166Y153691D01*
X74247Y153770D01*
X74324Y153852D01*
X74399Y153936D01*
X74471Y154023D01*
X74539Y154112D01*
X74605Y154204D01*
X74667Y154297D01*
X74726Y154393D01*
X74782Y154491D01*
X74834Y154591D01*
X74883Y154692D01*
X74928Y154795D01*
X74970Y154900D01*
X75008Y155006D01*
X75043Y155113D01*
X75073Y155221D01*
X75100Y155330D01*
X75123Y155441D01*
X75143Y155551D01*
X75158Y155663D01*
X75170Y155775D01*
X75178Y155887D01*
X75182Y156000D01*
X75182Y156112D01*
X75178Y156225D01*
X75170Y156337D01*
X75158Y156449D01*
X75143Y156561D01*
X75123Y156671D01*
X75100Y156782D01*
X75073Y156891D01*
X75043Y156999D01*
X75008Y157106D01*
X74970Y157212D01*
X74928Y157317D01*
X74883Y157420D01*
X74834Y157521D01*
X74782Y157621D01*
X74726Y157719D01*
X74667Y157815D01*
X74605Y157908D01*
X74539Y158000D01*
X74471Y158089D01*
X74399Y158176D01*
X74324Y158260D01*
X74247Y158342D01*
X74166Y158421D01*
X74083Y158497D01*
X73998Y158570D01*
X73910Y158640D01*
X73820Y158707D01*
X73727Y158771D01*
X73632Y158832D01*
X73535Y158889D01*
X73436Y158943D01*
X73336Y158994D01*
X73234Y159041D01*
X73130Y159085D01*
X73025Y159125D01*
X72918Y159161D01*
X72810Y159193D01*
X72701Y159222D01*
X72592Y159247D01*
X72481Y159269D01*
X72370Y159286D01*
X72258Y159300D01*
X72146Y159309D01*
X72034Y159315D01*
X71921Y159317D01*
X63441Y159317D01*
X66050Y164658D02*
X63441Y167920D01*
X75182Y167920D01*
X75182Y171181D02*
X75182Y164658D01*
D12*
X106680Y140970D02*
X106682Y141041D01*
X106688Y141112D01*
X106698Y141183D01*
X106712Y141253D01*
X106730Y141322D01*
X106751Y141389D01*
X106777Y141456D01*
X106806Y141521D01*
X106838Y141584D01*
X106875Y141646D01*
X106914Y141705D01*
X106957Y141762D01*
X107003Y141816D01*
X107052Y141868D01*
X107104Y141917D01*
X107158Y141963D01*
X107215Y142006D01*
X107274Y142045D01*
X107336Y142082D01*
X107399Y142114D01*
X107464Y142143D01*
X107531Y142169D01*
X107598Y142190D01*
X107667Y142208D01*
X107737Y142222D01*
X107808Y142232D01*
X107879Y142238D01*
X107950Y142240D01*
X108021Y142238D01*
X108092Y142232D01*
X108163Y142222D01*
X108233Y142208D01*
X108302Y142190D01*
X108369Y142169D01*
X108436Y142143D01*
X108501Y142114D01*
X108564Y142082D01*
X108626Y142045D01*
X108685Y142006D01*
X108742Y141963D01*
X108796Y141917D01*
X108848Y141868D01*
X108897Y141816D01*
X108943Y141762D01*
X108986Y141705D01*
X109025Y141646D01*
X109062Y141584D01*
X109094Y141521D01*
X109123Y141456D01*
X109149Y141389D01*
X109170Y141322D01*
X109188Y141253D01*
X109202Y141183D01*
X109212Y141112D01*
X109218Y141041D01*
X109220Y140970D01*
X109218Y140899D01*
X109212Y140828D01*
X109202Y140757D01*
X109188Y140687D01*
X109170Y140618D01*
X109149Y140551D01*
X109123Y140484D01*
X109094Y140419D01*
X109062Y140356D01*
X109025Y140294D01*
X108986Y140235D01*
X108943Y140178D01*
X108897Y140124D01*
X108848Y140072D01*
X108796Y140023D01*
X108742Y139977D01*
X108685Y139934D01*
X108626Y139895D01*
X108564Y139858D01*
X108501Y139826D01*
X108436Y139797D01*
X108369Y139771D01*
X108302Y139750D01*
X108233Y139732D01*
X108163Y139718D01*
X108092Y139708D01*
X108021Y139702D01*
X107950Y139700D01*
X107879Y139702D01*
X107808Y139708D01*
X107737Y139718D01*
X107667Y139732D01*
X107598Y139750D01*
X107531Y139771D01*
X107464Y139797D01*
X107399Y139826D01*
X107336Y139858D01*
X107274Y139895D01*
X107215Y139934D01*
X107158Y139977D01*
X107104Y140023D01*
X107052Y140072D01*
X107003Y140124D01*
X106957Y140178D01*
X106914Y140235D01*
X106875Y140294D01*
X106838Y140356D01*
X106806Y140419D01*
X106777Y140484D01*
X106751Y140551D01*
X106730Y140618D01*
X106712Y140687D01*
X106698Y140757D01*
X106688Y140828D01*
X106682Y140899D01*
X106680Y140970D01*
D13*
X245110Y142748D02*
X245110Y85852D01*
X593090Y85852D02*
X593090Y111252D01*
X593090Y117348D01*
X593090Y139192D01*
X593090Y117348D02*
X592981Y117346D01*
X592873Y117340D01*
X592764Y117331D01*
X592656Y117317D01*
X592549Y117300D01*
X592442Y117278D01*
X592336Y117253D01*
X592231Y117225D01*
X592127Y117192D01*
X592025Y117156D01*
X591924Y117116D01*
X591824Y117073D01*
X591726Y117026D01*
X591629Y116975D01*
X591535Y116921D01*
X591442Y116864D01*
X591352Y116804D01*
X591263Y116740D01*
X591177Y116673D01*
X591094Y116604D01*
X591013Y116531D01*
X590935Y116455D01*
X590859Y116377D01*
X590786Y116296D01*
X590717Y116213D01*
X590650Y116127D01*
X590586Y116038D01*
X590526Y115948D01*
X590469Y115855D01*
X590415Y115761D01*
X590364Y115664D01*
X590317Y115566D01*
X590274Y115466D01*
X590234Y115365D01*
X590198Y115263D01*
X590165Y115159D01*
X590137Y115054D01*
X590112Y114948D01*
X590090Y114841D01*
X590073Y114734D01*
X590059Y114626D01*
X590050Y114517D01*
X590044Y114409D01*
X590042Y114300D01*
X590044Y114191D01*
X590050Y114083D01*
X590059Y113974D01*
X590073Y113866D01*
X590090Y113759D01*
X590112Y113652D01*
X590137Y113546D01*
X590165Y113441D01*
X590198Y113337D01*
X590234Y113235D01*
X590274Y113134D01*
X590317Y113034D01*
X590364Y112936D01*
X590415Y112839D01*
X590469Y112745D01*
X590526Y112652D01*
X590586Y112562D01*
X590650Y112473D01*
X590717Y112387D01*
X590786Y112304D01*
X590859Y112223D01*
X590935Y112145D01*
X591013Y112069D01*
X591094Y111996D01*
X591177Y111927D01*
X591263Y111860D01*
X591352Y111796D01*
X591442Y111736D01*
X591535Y111679D01*
X591629Y111625D01*
X591726Y111574D01*
X591824Y111527D01*
X591924Y111484D01*
X592025Y111444D01*
X592127Y111408D01*
X592231Y111375D01*
X592336Y111347D01*
X592442Y111322D01*
X592549Y111300D01*
X592656Y111283D01*
X592764Y111269D01*
X592873Y111260D01*
X592981Y111254D01*
X593090Y111252D01*
D15*
X600400Y154213D02*
X604379Y154213D01*
X600400Y154213D02*
X597415Y151892D01*
X600400Y154213D02*
X597415Y156535D01*
X600400Y154213D02*
X601726Y150566D01*
X600400Y154213D02*
X601726Y157861D01*
D11*
X215646Y162560D02*
X202071Y162560D01*
X201928Y162558D01*
X201786Y162552D01*
X201644Y162542D01*
X201502Y162529D01*
X201360Y162511D01*
X201219Y162490D01*
X201079Y162465D01*
X200939Y162436D01*
X200800Y162403D01*
X200662Y162366D01*
X200526Y162326D01*
X200390Y162282D01*
X200256Y162234D01*
X200123Y162183D01*
X199991Y162128D01*
X199861Y162069D01*
X199733Y162007D01*
X199606Y161941D01*
X199481Y161872D01*
X199358Y161800D01*
X199237Y161724D01*
X199119Y161645D01*
X199002Y161563D01*
X198888Y161477D01*
X198776Y161389D01*
X198667Y161297D01*
X198560Y161203D01*
X198456Y161106D01*
X198354Y161006D01*
X198255Y160903D01*
X198159Y160797D01*
X198066Y160689D01*
X197976Y160578D01*
X197889Y160465D01*
X197806Y160350D01*
X197725Y160232D01*
X197648Y160112D01*
X197573Y159991D01*
X197503Y159867D01*
X197435Y159741D01*
X197371Y159613D01*
X197311Y159484D01*
X197254Y159353D01*
X197201Y159221D01*
X197151Y159087D01*
X197106Y158952D01*
X197063Y158816D01*
X197025Y158679D01*
X196990Y158540D01*
X196959Y158401D01*
X196932Y158261D01*
X196909Y158121D01*
X196889Y157979D01*
X196874Y157837D01*
X196862Y157695D01*
X196854Y157553D01*
X196850Y157410D01*
X196850Y157268D01*
X196854Y157125D01*
X196862Y156983D01*
X196874Y156841D01*
X196889Y156699D01*
X196909Y156557D01*
X196932Y156417D01*
X196959Y156277D01*
X196990Y156138D01*
X197025Y155999D01*
X197063Y155862D01*
X197106Y155726D01*
X197151Y155591D01*
X197201Y155457D01*
X197254Y155325D01*
X197311Y155194D01*
X197371Y155065D01*
X197435Y154937D01*
X197503Y154811D01*
X197573Y154687D01*
X197648Y154566D01*
X197725Y154446D01*
X197806Y154328D01*
X197889Y154213D01*
X197976Y154100D01*
X198066Y153989D01*
X198159Y153881D01*
X198255Y153775D01*
X198354Y153672D01*
X198456Y153572D01*
X198560Y153475D01*
X198667Y153381D01*
X198776Y153289D01*
X198888Y153201D01*
X199002Y153115D01*
X199119Y153033D01*
X199237Y152954D01*
X199358Y152878D01*
X199481Y152806D01*
X199606Y152737D01*
X199733Y152671D01*
X199861Y152609D01*
X199991Y152550D01*
X200123Y152495D01*
X200256Y152444D01*
X200390Y152396D01*
X200526Y152352D01*
X200662Y152312D01*
X200800Y152275D01*
X200939Y152242D01*
X201079Y152213D01*
X201219Y152188D01*
X201360Y152167D01*
X201502Y152149D01*
X201644Y152136D01*
X201786Y152126D01*
X201928Y152120D01*
X202071Y152118D01*
X215646Y152118D01*
X215646Y138388D02*
X215644Y138254D01*
X215638Y138120D01*
X215629Y137986D01*
X215615Y137852D01*
X215598Y137719D01*
X215577Y137587D01*
X215552Y137455D01*
X215524Y137324D01*
X215492Y137193D01*
X215456Y137064D01*
X215416Y136936D01*
X215373Y136809D01*
X215326Y136683D01*
X215275Y136559D01*
X215221Y136436D01*
X215164Y136315D01*
X215103Y136195D01*
X215039Y136077D01*
X214971Y135961D01*
X214900Y135848D01*
X214826Y135736D01*
X214749Y135626D01*
X214668Y135519D01*
X214585Y135413D01*
X214498Y135311D01*
X214409Y135211D01*
X214317Y135113D01*
X214222Y135018D01*
X214124Y134926D01*
X214024Y134837D01*
X213922Y134750D01*
X213816Y134667D01*
X213709Y134586D01*
X213599Y134509D01*
X213487Y134435D01*
X213374Y134364D01*
X213258Y134296D01*
X213140Y134232D01*
X213020Y134171D01*
X212899Y134114D01*
X212776Y134060D01*
X212652Y134009D01*
X212526Y133962D01*
X212399Y133919D01*
X212271Y133879D01*
X212142Y133843D01*
X212011Y133811D01*
X211880Y133783D01*
X211748Y133758D01*
X211616Y133737D01*
X211483Y133720D01*
X211349Y133706D01*
X211215Y133697D01*
X211081Y133691D01*
X210947Y133689D01*
X215646Y138388D02*
X215644Y138540D01*
X215638Y138692D01*
X215629Y138843D01*
X215615Y138994D01*
X215598Y139145D01*
X215577Y139296D01*
X215553Y139445D01*
X215524Y139595D01*
X215492Y139743D01*
X215456Y139890D01*
X215416Y140037D01*
X215373Y140183D01*
X215326Y140327D01*
X215276Y140470D01*
X215221Y140612D01*
X215164Y140752D01*
X215102Y140891D01*
X215038Y141029D01*
X214970Y141164D01*
X214898Y141298D01*
X214823Y141430D01*
X214745Y141561D01*
X214664Y141689D01*
X214579Y141815D01*
X214491Y141939D01*
X214400Y142060D01*
X214307Y142180D01*
X214210Y142297D01*
X214110Y142411D01*
X214007Y142523D01*
X213902Y142632D01*
X213794Y142739D01*
X213683Y142843D01*
X213570Y142944D01*
X213454Y143042D01*
X213336Y143137D01*
X213215Y143230D01*
X213092Y143319D01*
X212967Y143405D01*
X212840Y143488D01*
X212711Y143567D01*
X212579Y143644D01*
X212446Y143717D01*
X212311Y143786D01*
X212175Y143853D01*
X212036Y143915D01*
X211897Y143975D01*
X211755Y144031D01*
X211613Y144083D01*
X211469Y144131D01*
X207292Y135255D02*
X207391Y135155D01*
X207492Y135057D01*
X207596Y134962D01*
X207703Y134870D01*
X207812Y134781D01*
X207924Y134695D01*
X208038Y134612D01*
X208154Y134532D01*
X208273Y134456D01*
X208393Y134383D01*
X208516Y134313D01*
X208640Y134247D01*
X208766Y134184D01*
X208894Y134125D01*
X209024Y134070D01*
X209155Y134018D01*
X209287Y133970D01*
X209421Y133925D01*
X209556Y133884D01*
X209692Y133848D01*
X209829Y133814D01*
X209967Y133785D01*
X210105Y133760D01*
X210245Y133738D01*
X210384Y133720D01*
X210525Y133707D01*
X210665Y133697D01*
X210806Y133691D01*
X210947Y133689D01*
X207292Y135255D02*
X196850Y144131D01*
X196850Y133689D01*
D16*
X380173Y177165D02*
X382040Y174520D01*
X383907Y177165D01*
X382040Y174520D02*
X382040Y171563D01*
X385983Y175920D02*
X387539Y177165D01*
X387539Y171563D01*
X385983Y171563D02*
X389096Y171563D01*
D17*
X383300Y199500D03*
M02*
