G04 EAGLE Gerber X2 export*
%TF.Part,Single*%
%TF.FileFunction,Soldermask,Bot,1*%
%TF.FilePolarity,Negative*%
%TF.GenerationSoftware,Autodesk,EAGLE,8.6.3*%
%TF.CreationDate,2018-03-15T12:54:08Z*%
G75*
%MOMM*%
%FSLAX34Y34*%
%LPD*%
%AMOC8*
5,1,8,0,0,1.08239X$1,22.5*%
G01*
%ADD10C,4.521200*%
%ADD11P,1.869504X8X22.500000*%
%ADD12P,1.869504X8X202.500000*%
%ADD13R,2.213200X2.213200*%
%ADD14C,2.213200*%
%ADD15C,1.403200*%
%ADD16C,1.553200*%
%ADD17C,1.703200*%
%ADD18R,1.703200X1.703200*%
%ADD19C,2.003200*%
%ADD20R,1.879600X1.879600*%
%ADD21C,1.879600*%


D10*
X162400Y88900D03*
X102400Y88900D03*
X132400Y41900D03*
D11*
X279400Y241300D03*
X279400Y266700D03*
X304800Y241300D03*
X304800Y266700D03*
X330200Y241300D03*
X330200Y266700D03*
X355600Y241300D03*
X355600Y266700D03*
X381000Y241300D03*
X381000Y266700D03*
X406400Y241300D03*
X406400Y266700D03*
X431800Y241300D03*
X431800Y266700D03*
X457200Y241300D03*
X457200Y266700D03*
D12*
X228600Y266700D03*
X228600Y241300D03*
X203200Y266700D03*
X203200Y241300D03*
X177800Y266700D03*
X177800Y241300D03*
X152400Y266700D03*
X152400Y241300D03*
X127000Y266700D03*
X127000Y241300D03*
X101600Y266700D03*
X101600Y241300D03*
X76200Y266700D03*
X76200Y241300D03*
X50800Y266700D03*
X50800Y241300D03*
D13*
X736600Y127000D03*
D14*
X736600Y101600D03*
X736600Y76200D03*
D13*
X736600Y304800D03*
D14*
X736600Y279400D03*
X736600Y254000D03*
D13*
X571500Y355600D03*
D14*
X596900Y355600D03*
X622300Y355600D03*
D13*
X254000Y355600D03*
D14*
X279400Y355600D03*
X304800Y355600D03*
D15*
X851500Y330200D03*
X876500Y330200D03*
X901500Y330200D03*
X926500Y330200D03*
D16*
X543800Y455700D03*
X569300Y455700D03*
X594800Y455700D03*
X619800Y455700D03*
X645300Y455700D03*
X670800Y455700D03*
X696300Y455700D03*
X721800Y455700D03*
X747300Y455700D03*
X747300Y429200D03*
X721800Y429200D03*
X696300Y429200D03*
X670800Y429200D03*
X645300Y429200D03*
X619800Y429200D03*
X594800Y429200D03*
X569300Y429200D03*
X543800Y429200D03*
X518800Y429200D03*
D17*
X228600Y412750D03*
D18*
X203200Y412750D03*
D17*
X254000Y412750D03*
X279400Y412750D03*
X304800Y412750D03*
X330200Y412750D03*
D19*
X842700Y198700D03*
X842700Y131500D03*
X909900Y131500D03*
X909900Y198700D03*
X828800Y165100D03*
X923800Y165100D03*
D20*
X584200Y152400D03*
D21*
X558800Y152400D03*
X533400Y152400D03*
X508000Y152400D03*
X482600Y152400D03*
X457200Y152400D03*
X431800Y152400D03*
X406400Y152400D03*
X381000Y152400D03*
X355600Y152400D03*
X330200Y152400D03*
X304800Y152400D03*
X279400Y152400D03*
X254000Y152400D03*
X254000Y76200D03*
X279400Y76200D03*
X304800Y76200D03*
X330200Y76200D03*
X355600Y76200D03*
X381000Y76200D03*
X406400Y76200D03*
X431800Y76200D03*
X457200Y76200D03*
X482600Y76200D03*
X508000Y76200D03*
X533400Y76200D03*
X558800Y76200D03*
X584200Y76200D03*
M02*
